<?xml version="1.0" encoding="utf-8"?>
<!DOCTYPE svg PUBLIC "-//W3C//DTD SVG 1.1//EN" "http://www.w3.org/Graphics/SVG/1.1/DTD/svg11.dtd">
<svg version="1.1" id="Capa_1" xmlns="http://www.w3.org/2000/svg" xmlns:xlink="http://www.w3.org/1999/xlink" x="0px" y="0px"
	 width="174px" height="174px" viewBox="0 0 174 174" enable-background="new 0 0 174 174" xml:space="preserve">
<g id="Flor">
		<animateTransform  type="rotate" 
		fill="remove" calcMode="linear" restart="always" 
		to="360 87 87" from="0 87 87" additive="replace" 
		dur="220s" accumulate="none" attributeName="transform" 
		repeatCount="indefinite">
		</animateTransform>
	<path fill="#FFFFFF" d="M129.453,17.036C107.55,1.917,83.235,39.097,86.787,71.552c-0.215,0.017-0.422,0.002-0.64,0.028
		c-1.761-34.205-15.015-67.4-39.37-55.829c-24.311,11.543-3.568,51.927,26.864,64.634c-0.107,0.22-0.173,0.446-0.271,0.668
		C42.647,65.075,6.504,59.531,4.318,86.716c-2.167,26.993,43.767,29.069,69.901,8.656c0.133,0.222,0.317,0.416,0.46,0.63
		c-29.446,18.617-52.711,47.391-30.126,62.963c22.191,15.305,46.843-23.025,42.504-55.771c0.251,0.011,0.492-0.031,0.744-0.029
		c1.496,34.638,14.772,68.798,39.436,57.082c24.084-11.438,3.93-51.216-26.059-64.292c0.118-0.183,0.229-0.366,0.336-0.554
		c30.535,15.633,66.012,20.813,68.172-6.118c2.119-26.38-41.711-28.962-68.104-10.012c-0.102-0.171-0.244-0.327-0.352-0.494
		C129.76,60.147,151.557,32.27,129.453,17.036z"/>
	<g>
		<path d="M87.194,73.867l-1.875,0.066c-1.009-27.755-9.071-50.19-20.549-57.158c-5.23-3.176-11.151-3.235-17.593-0.176
			c-8.848,4.198-10.373,11.805-10.113,17.45c0.734,15.747,16.661,38.137,39.195,46.372l-0.639,1.758
			c-21.057-7.69-39.571-29.691-40.428-48.044c-0.415-8.912,3.463-15.559,11.18-19.229c7.047-3.349,13.567-3.255,19.371,0.267
			C80.327,24.021,86.416,52.324,87.194,73.867z"/>
	</g>
	<path d="M62.222,27.227c-3.599-1.978-7.383-2.348-10.938-1.078c-3.662,1.311-5.98,4.394-6.395,8.522
		c-1.235,12.385,14.645,35.324,31.535,45.641L86.563,73C82.572,55.784,73.837,33.587,62.222,27.227z M80.037,73.888L80.296,75
		l-0.965-0.604c-15.42-9.695-28.791-30.229-27.915-39.075c0.112-1.11,0.445-1.897,1.021-2.408c0.352-0.312,0.739-0.475,1.064-0.585
		c1.807-0.651,3.581-0.442,5.576,0.651C66.716,37.167,75.333,53.989,80.037,73.888z"/>
	<g>
		<path d="M132.723,157.78c-1.445,1.278-3.143,2.39-5.076,3.312c-7.054,3.352-13.57,3.26-19.381-0.263
			c-14.582-8.851-20.67-37.149-21.454-58.693l1.877-0.065c1.002,27.76,9.076,50.188,20.549,57.156
			c5.234,3.176,11.148,3.234,17.595,0.178c8.847-4.189,10.373-11.807,10.11-17.452c-0.73-15.749-16.657-38.14-39.198-46.365
			l0.642-1.762c21.063,7.687,39.575,29.688,40.434,48.039C139.126,148.535,137.039,153.943,132.723,157.78z"/>
	</g>
	<g>
		<path d="M76.271,94.949c-17.192,14.393-45.496,19.42-61.821,10.988C6.526,101.844,2.697,95.171,3.381,86.643
			c0.635-7.782,3.972-13.38,9.921-16.646c14.953-8.202,42.504,0.674,61.558,10.767l-0.882,1.66
			c-24.54-13.006-48.005-17.238-59.772-10.782c-5.362,2.941-8.386,8.042-8.956,15.15c-0.78,9.747,5.042,14.886,10.057,17.481
			c14.008,7.236,41.36,4.641,59.762-10.763L76.271,94.949z"/>
	</g>
	<g>
		<path d="M164.216,103.543c-1.043,0.93-2.214,1.751-3.513,2.464c-14.952,8.201-42.504-0.675-61.557-10.771l0.879-1.659
			c24.541,13.009,48.01,17.237,59.775,10.784c5.372-2.94,8.379-8.041,8.947-15.153c0.784-9.747-5.036-14.884-10.063-17.477
			c-14-7.242-41.354-4.644-59.75,10.757l-1.203-1.439c17.195-14.391,45.496-19.42,61.817-10.988
			c7.925,4.099,11.755,10.769,11.063,19.303C170.129,95.445,167.982,100.193,164.216,103.543z"/>
	</g>
	<g>
		<path d="M70.253,156.764c-1.282,1.139-2.616,2.156-3.992,3.037c-7.507,4.813-15.197,4.79-22.245-0.063
			c-6.424-4.432-9.605-10.12-9.455-16.912c0.372-17.051,21.842-36.479,40.097-47.924l0.997,1.587
			c-23.537,14.751-38.929,32.954-39.219,46.381c-0.134,6.119,2.774,11.274,8.646,15.323c8.053,5.552,15.407,3.08,20.169,0.023
			c13.298-8.515,24.702-33.494,20.557-57.121l1.851-0.326C91.184,120.889,83.358,145.113,70.253,156.764z"/>
	</g>
	<g>
		<path d="M118.104,67.083c-5.984,5.324-12.559,10.129-18.756,14.012L98.35,79.51c23.541-14.756,38.935-32.956,39.217-46.378
			c0.142-6.121-2.767-11.278-8.646-15.323c-8.04-5.558-15.405-3.084-20.163-0.035c-13.275,8.522-24.701,33.496-20.563,57.13
			l-1.848,0.324c-3.863-22.086,5.922-49.131,21.398-59.032c7.512-4.816,15.198-4.789,22.237,0.067
			c6.435,4.426,9.61,10.115,9.466,16.907C139.202,44.434,129.746,56.735,118.104,67.083z"/>
	</g>
	<path d="M111.784,148.773c3.599,1.976,7.384,2.345,10.932,1.076c3.688-1.326,5.995-4.392,6.401-8.521
		c1.236-12.389-14.646-35.324-31.536-45.646l-10.138,7.314C91.434,120.214,100.167,142.418,111.784,148.773z M93.971,102.109
		l-0.26-1.114l0.973,0.606c15.414,9.688,28.784,30.228,27.907,39.071c-0.11,1.109-0.444,1.896-1.021,2.406
		c-0.35,0.312-0.731,0.471-1.066,0.591c-1.809,0.646-3.572,0.438-5.568-0.652C107.288,138.839,98.672,122.016,93.971,102.109z"/>
	<path d="M19.77,97.811c10.103,7.263,37.911,4.979,55.288-4.494l-1.26-12.438c-16.912-5.148-40.511-8.686-51.816-1.805
		c-0.827,0.501-1.589,1.061-2.268,1.664c-2.225,1.976-3.611,4.418-4.125,7.265C14.877,91.882,16.359,95.366,19.77,97.811z
		 M22.038,89.177c0.348-1.886,1.396-3.305,3.35-4.495c7.439-4.531,26.323-3.584,45.915,2.293l1.099,0.328l-1.015,0.538
		c-16.089,8.509-40.563,9.826-47.792,4.638C21.915,91.275,21.857,90.18,22.038,89.177z"/>
	<path d="M154.241,78.191c-10.103-7.264-37.906-4.982-55.289,4.49l1.263,12.438c16.907,5.15,40.498,8.688,51.813,1.813
		c3.543-2.166,5.725-5.228,6.398-8.938C159.13,84.12,157.648,80.632,154.241,78.191z M151.973,86.819
		c-0.26,1.396-0.922,2.553-2.021,3.529c-0.382,0.34-0.831,0.668-1.335,0.976c-7.443,4.528-26.319,3.581-45.912-2.306l-1.098-0.326
		l1.013-0.536c16.104-8.506,40.575-9.824,47.796-4.632C152.084,84.728,152.158,85.815,151.973,86.819z"/>
	<path d="M74.236,95.876C61.316,107.939,46.46,126.6,46.761,139.84c0.089,4.109,1.658,7.574,4.534,10.016
		c3.005,2.556,6.765,3.006,10.585,1.279c1.455-0.654,2.969-1.677,4.488-3.027c10.076-8.957,18.85-30.449,19.267-47.104
		L74.236,95.876z M79.052,101.449c-0.604,16.257-9.374,35.008-16.872,41.668c-1.038,0.921-2.05,1.605-3.006,2.038
		c-1.879,0.85-2.855,0.355-3.635-0.3c-1.463-1.248-2.172-2.889-2.224-5.164c-0.194-8.711,10.063-24.584,24.943-38.601l0.838-0.786
		L79.052,101.449z"/>
	<path d="M112.124,24.864c-1.458,0.663-2.974,1.68-4.49,3.034c-10.077,8.949-18.845,30.447-19.255,47.098l11.396,5.126
		c12.914-12.065,27.773-30.73,27.477-43.971c-0.093-4.101-1.66-7.564-4.537-10.007C119.706,23.594,115.952,23.14,112.124,24.864z
		 M120.693,36.298c0.19,8.71-10.057,24.585-24.948,38.608l-0.831,0.787l0.045-1.144c0.604-16.257,9.377-35.007,16.873-41.672
		c1.031-0.916,2.045-1.602,3-2.035c1.876-0.844,2.857-0.355,3.637,0.305C119.936,32.389,120.643,34.026,120.693,36.298z"/>
	<g>
		<path d="M69.365,41.869c-0.584-1.817-1.999-3.204-4.203-4.129c-1.688-0.71-2.699-0.282-3.246,0.206
			c-0.004,0.004-0.004,0.004-0.01,0.008c-1.236,1.101-1.197,3.538-0.915,5.484c-1.612-1.125-3.766-2.256-5.299-1.644
			c-0.679,0.27-1.527,0.978-1.656,2.801c-0.173,2.385,0.428,4.279,1.776,5.622c1.862,1.846,5.038,2.568,9.65,2.244l14.322,23.766
			l1.483-0.889L67.064,51.393C69.389,47.473,70.167,44.337,69.365,41.869z M63.154,39.353c0,0,0,0,0.005-0.003
			c0.28-0.25,0.917-0.031,1.276,0.117c1.708,0.715,2.73,1.69,3.153,2.977c0.552,1.726-0.047,4.128-1.656,7.083l-2.731-4.561
			C62.688,42.854,62.419,40.007,63.154,39.353z M57.138,48.887c-0.961-0.958-1.359-2.317-1.23-4.158
			c0.025-0.385,0.115-1.051,0.476-1.192c0.994-0.401,3.792,1.458,5.431,2.953l0.034-0.037l2.497,4.164
			C60.913,50.732,58.441,50.182,57.138,48.887z"/>
		<path d="M108.549,123.542L94.227,99.773l-1.48,0.89l14.202,23.946c-2.322,3.916-3.104,7.051-2.304,9.519
			c0.582,1.817,1.998,3.208,4.203,4.131c1.685,0.711,2.694,0.28,3.24-0.198c0.006-0.004,0.01-0.01,0.014-0.011
			c1.24-1.104,1.201-3.541,0.924-5.483c1.605,1.125,3.762,2.259,5.303,1.646c0.217-0.091,0.443-0.215,0.663-0.411
			c0.475-0.423,0.897-1.146,0.981-2.392c0.176-2.388-0.429-4.279-1.777-5.626C116.334,123.938,113.162,123.216,108.549,123.542z
			 M110.855,136.646L110.855,136.646c-0.285,0.25-0.924,0.037-1.28-0.11c-1.705-0.718-2.733-1.691-3.154-2.979
			c-0.556-1.728,0.05-4.13,1.656-7.08l2.747,4.566C111.329,133.152,111.594,135.993,110.855,136.646z M118.104,131.271
			c-0.025,0.386-0.123,1.047-0.476,1.194c-0.996,0.397-3.793-1.46-5.433-2.958l-0.035,0.042l-2.498-4.161
			c3.438-0.121,5.902,0.428,7.209,1.728C117.834,128.064,118.238,129.427,118.104,131.271z"/>
		<path d="M38.69,96.117c1.012-0.277,1.973-0.821,2.888-1.637c1.382-1.229,2.67-3.098,3.887-5.598l27.737-0.518l-0.033-1.729
			l-27.832,0.325c-2.237-3.972-4.556-6.213-7.097-6.756c-1.866-0.4-3.778,0.13-5.684,1.577c-1.462,1.089-1.589,2.195-1.446,2.917
			c0.324,1.631,2.466,2.816,4.293,3.553c-1.781,0.83-3.838,2.125-4.076,3.762c-0.105,0.731,0.086,1.813,1.602,2.83
			C34.909,96.189,36.853,96.611,38.69,96.117z M32.948,84.332c-0.075-0.368,0.435-0.811,0.742-1.055
			c1.469-1.115,2.833-1.521,4.158-1.236c1.771,0.383,3.554,2.105,5.306,4.968l-5.283,0.1C35.776,86.486,33.146,85.306,32.948,84.332
			z M33.185,92.287c0.152-1.059,3.163-2.555,5.277-3.225l-0.015-0.047l4.853-0.092c-1.612,3.033-3.325,4.896-5.1,5.378
			c-1.309,0.36-2.685,0.027-4.217-1.011C33.655,93.078,33.131,92.661,33.185,92.287z"/>
		<path d="M135.316,79.884c-2.529,0.689-4.735,3.076-6.767,7.228l-27.75,0.524l0.04,1.729l27.84-0.339
			c2.229,3.982,4.549,6.225,7.088,6.769c1.863,0.397,3.776-0.131,5.688-1.577c0.118-0.092,0.235-0.189,0.342-0.279
			c1.138-1.014,1.229-1.976,1.103-2.639c-0.332-1.631-2.467-2.82-4.303-3.549c0.977-0.452,2.02-1.027,2.813-1.738
			c0.673-0.599,1.16-1.276,1.273-2.026c0.104-0.731-0.092-1.81-1.604-2.832C139.098,79.813,137.159,79.38,135.316,79.884z
			 M141.059,91.667c0.077,0.367-0.444,0.817-0.735,1.056c-1.474,1.114-2.834,1.522-4.16,1.239c-1.769-0.387-3.554-2.106-5.306-4.974
			l5.269-0.094C138.225,89.509,140.866,90.691,141.059,91.667z M140.825,83.712c-0.155,1.062-3.171,2.557-5.284,3.229l0.018,0.042
			l-4.848,0.09c1.614-3.035,3.32-4.902,5.104-5.382c1.313-0.354,2.689-0.025,4.218,1.012
			C140.348,82.92,140.88,83.339,140.825,83.712z"/>
		<path d="M80.417,100.136L78.905,99.3l-13.634,24.279c-4.563-0.062-7.692,0.858-9.398,2.758c-1.281,1.418-1.774,3.337-1.475,5.713
			c0.23,1.813,1.105,2.474,1.804,2.708c1.579,0.533,3.669-0.73,5.217-1.949c-0.172,1.961-0.077,4.393,1.226,5.416
			c0.578,0.455,1.61,0.827,3.258,0.028c0.81-0.396,1.511-0.854,2.096-1.37c0.947-0.84,1.573-1.84,1.877-2.982
			c0.671-2.534-0.294-5.637-2.876-9.469L80.417,100.136z M56.798,132.979c-0.354-0.117-0.494-0.779-0.537-1.164
			c-0.238-1.832,0.091-3.213,1.002-4.221c1.202-1.333,3.592-2.021,6.955-2.109l-2.576,4.656
			C60.06,131.654,57.73,133.293,56.798,132.979z M68.063,133.423c-0.351,1.308-1.326,2.341-2.982,3.146
			c-0.347,0.168-0.976,0.416-1.275,0.187c-0.84-0.665-0.626-4.019-0.156-6.179l-0.038-0.018l2.344-4.24
			C67.77,129.23,68.533,131.643,68.063,133.423z"/>
		<path d="M117.813,41.245c-1.58-0.532-3.672,0.725-5.222,1.942c0.168-1.959,0.075-4.389-1.229-5.413
			c-0.568-0.459-1.603-0.831-3.247-0.032c-2.146,1.038-3.485,2.514-3.98,4.36c-0.663,2.532,0.296,5.639,2.874,9.474L93.589,75.86
			l1.519,0.838l13.631-24.273c4.169,0.049,7.117-0.685,8.916-2.286c0.176-0.151,0.33-0.308,0.484-0.477
			c1.274-1.411,1.771-3.335,1.475-5.711C119.384,42.142,118.506,41.479,117.813,41.245z M105.949,42.581
			c0.34-1.313,1.309-2.339,2.979-3.152c0.342-0.168,0.979-0.418,1.275-0.186c0.836,0.668,0.628,4.02,0.158,6.186l0.033,0.012
			l-2.345,4.247C106.234,46.775,105.479,44.361,105.949,42.581z M117.751,44.188c0.229,1.837-0.103,3.214-1.01,4.217
			c-1.208,1.334-3.601,2.021-6.952,2.114l2.574-4.661c1.574-1.5,3.919-3.153,4.848-2.836
			C117.57,43.141,117.703,43.806,117.751,44.188z"/>
	</g>
</g>
<g id="Centro">
	<circle cx="87.5" cy="87.834" r="21"/>
	
		<animateTransform  type="rotate" 
		fill="remove" calcMode="linear" restart="always" 
		to="-360 87 87" from="0 87 87" additive="replace" 
		dur="6s" accumulate="none" attributeName="transform" 
		repeatCount="indefinite">
		</animateTransform>
	<g>
		<path fill="#FFFFFF" d="M90.965,77.311c6.217,0.313,12.907,5.235,11.146,14.623c-3.023,16.074-28.2,12.377-28.5-2.147
			c-0.3-14.53,12.247-19.635,16.922-12.485L90.965,77.311z"/>
		<path d="M99.473,100.48c-3.354,2.982-7.998,4.125-12.321,3.768c-7.528-0.622-15.238-5.775-15.414-14.428
			c-0.199-9.647,4.892-15.558,10.006-17.139c3.771-1.169,7.429-0.105,9.764,2.773c2.94,0.242,5.87,1.38,8.166,3.311
			c3.797,3.194,5.314,7.99,4.274,13.518C103.281,95.852,101.643,98.555,99.473,100.48z M79.769,78.049
			c-2.487,2.212-4.396,6.154-4.279,11.697c0.13,6.426,6.123,10.281,11.971,10.768c5.057,0.411,11.448-1.671,12.805-8.926
			c0.998-5.296-1.08-8.335-3.006-9.949c-1.813-1.529-4.229-2.39-6.57-2.471c-0.121,0.008-0.244,0.008-0.361-0.008
			c-1.1,0.005-2.18,0.186-3.162,0.549c-1.451,0.548-3.255,1.729-3.661,4.294c-0.711,4.558,1.093,6.59,2.853,6.945
			c1.583,0.315,3.466-0.533,4.001-2.729c0.246-0.997,1.262-1.621,2.271-1.374c1.001,0.247,1.617,1.265,1.372,2.267
			c-0.957,3.912-4.563,6.277-8.377,5.512c-3.656-0.73-6.874-4.479-5.816-11.202c0.518-3.349,2.731-5.986,6.039-7.217
			c0.055-0.02,0.112-0.044,0.175-0.063c-0.973-0.256-2.048-0.219-3.165,0.123C81.797,76.59,80.743,77.188,79.769,78.049z"/>
	</g>
</g>
</svg>
