<?xml version="1.0" encoding="utf-8"?>
<!DOCTYPE svg PUBLIC "-//W3C//DTD SVG 1.1//EN" "http://www.w3.org/Graphics/SVG/1.1/DTD/svg11.dtd">
<svg version="1.1" xmlns="http://www.w3.org/2000/svg" xmlns:xlink="http://www.w3.org/1999/xlink" x="0px" y="0px" width="120px"
	 height="120px" viewBox="0 0 120 120" enable-background="new 0 0 120 120" xml:space="preserve">
<g id="blue">
	<animateTransform  type="rotate" 
		fill="remove" calcMode="linear" restart="always" 
		to="-360 60 60" from="0 60 60" additive="replace" 
		dur="2s" accumulate="none" attributeName="transform" 
		repeatCount="indefinite">
	</animateTransform>
	<g>
		<linearGradient id="SVGID_1_" gradientUnits="userSpaceOnUse" x1="79.1406" y1="12.3789" x2="110.541" y2="58.4893">
			<stop  offset="0" style="stop-color:#AEFFFF"/>
			<stop  offset="0.9342" style="stop-color:#AEFFFF;stop-opacity:0.0658"/>
			<stop  offset="1" style="stop-color:#AEFFFF;stop-opacity:0"/>
		</linearGradient>
		<path fill="url(#SVGID_1_)" d="M116.782,60.001c0-31.315-25.477-56.792-56.792-56.792l-2.754,2.127l2.754,2.581
			c28.718,0,52.083,23.365,52.083,52.084l2.447-2.474L116.782,60.001z"/>
	</g>
</g>
<g id="red">
	<animateTransform  type="rotate" 
		fill="remove" calcMode="linear" restart="always" 
		to="360 60 60" from="0 60 60" additive="replace" 
		dur="2s" accumulate="none" attributeName="transform" 
		repeatCount="indefinite">
	</animateTransform>
	<linearGradient id="SVGID_2_" gradientUnits="userSpaceOnUse" x1="59.9907" y1="34.6318" x2="112.0732" y2="34.6318">
		<stop  offset="0" style="stop-color:#EA3700;stop-opacity:0"/>
		<stop  offset="1" style="stop-color:#EA3700"/>
	</linearGradient>
	<path fill="url(#SVGID_2_)" d="M59.991,7.917c28.718,0,52.083,23.365,52.083,52.084l-1.372,1.346l-1.462-1.346
		c0-27.156-22.093-49.25-49.249-49.25l0.782-1.314L59.991,7.917z"/>
</g>
<g id="Paola">
	<g>
		<g>
			<path fill="#FFFFFF" d="M39.411,62.558c0.065,0,0.13-0.003,0.196-0.003c5.922-0.051,10.634-2.729,13.267-7.534
				c2.704-4.937,2.566-11.376-0.346-16.021c-2.724-4.346-7.346-6.583-13.014-6.299c-7.818,0.39-14.247,6.217-16.378,14.844
				c-1.798,7.275-0.285,16.582,7.148,20.98c0.25,0.148,0.526,0.222,0.798,0.222c0.537,0,1.06-0.278,1.354-0.774
				c0.442-0.745,0.195-1.709-0.551-2.151c-6.043-3.575-7.216-11.377-5.698-17.522c1.425-5.768,5.716-12.071,13.485-12.459
				c4.481-0.225,8.1,1.491,10.192,4.828c2.326,3.712,2.428,8.874,0.253,12.845c-2.063,3.764-5.805,5.86-10.538,5.899
				c-1.133,0.013-2.139-0.081-3.016-0.267v-3.481c0-0.869-0.704-1.572-1.571-1.572c-0.868,0-1.572,0.703-1.572,1.572v1.848
				c-0.309-0.361-0.538-0.77-0.669-1.229c-0.584-2.027,0.656-4.453,2.134-5.362c0.927-0.573,1.775-0.481,2.59,0.272
				c0.636,0.59,1.63,0.553,2.22-0.085c0.59-0.638,0.552-1.63-0.084-2.222c-1.856-1.719-4.239-1.96-6.374-0.644
				c-2.845,1.753-4.417,5.747-3.506,8.909c0.365,1.27,1.303,3.071,3.689,4.24V85.1c0,0.867,0.704,1.572,1.572,1.572
				c0.867,0,1.571-0.705,1.571-1.572V62.343C37.409,62.479,38.352,62.558,39.411,62.558z"/>
			<path fill="#FFFFFF" d="M51.836,75.133h-0.914v-12.91l-1.759,0.213c-5.32,0.642-9.363,5.197-10.556,11.886
				c-1.307,7.331,1.146,16.661,9.573,20.978c0.229,0.119,0.475,0.175,0.715,0.175c0.571,0,1.123-0.313,1.4-0.858
				c0.396-0.771,0.09-1.717-0.683-2.114c-6.998-3.582-9.016-11.436-7.912-17.628c0.639-3.578,2.556-7.52,6.078-8.88v9.14h-3.117
				c-0.868,0-1.572,0.703-1.572,1.57c0,0.868,0.704,1.571,1.572,1.571h3.117v8.002c0,0.867,0.704,1.569,1.572,1.569
				c0.867,0,1.571-0.702,1.571-1.569v-8.002h0.914c0.868,0,1.572-0.703,1.572-1.571C53.408,75.836,52.704,75.133,51.836,75.133z"/>
			<path fill="#FFFFFF" d="M62.693,52.264c-5.684,0-10.308,4.623-10.308,10.31c0,5.684,4.625,10.307,10.308,10.307
				s10.308-4.623,10.308-10.307C73.001,56.887,68.377,52.264,62.693,52.264z M62.693,69.736c-3.951,0-7.165-3.212-7.165-7.163
				s3.214-7.166,7.165-7.166c3.95,0,7.164,3.215,7.164,7.166S66.644,69.736,62.693,69.736z"/>
			<path fill="#FFFFFF" d="M81.257,86.712l-0.124,0.126c-0.949,0.949-1.759,1.76-3.092,2.491V35.517
				c0-5.414-3.384-9.197-9.783-10.934c-0.839-0.227-1.701,0.268-1.929,1.105c-0.228,0.837,0.267,1.7,1.104,1.927
				c5.022,1.365,7.464,3.947,7.464,7.901v58.438l2.096-0.74c3.423-1.212,4.917-2.711,6.362-4.158l0.125-0.122
				c0.613-0.615,0.613-1.609-0.001-2.223C82.865,86.098,81.871,86.098,81.257,86.712z"/>
			<path fill="#FFFFFF" d="M87.738,35.842l-2.629-2.396v24.416h-2.741c-0.867,0-1.571,0.703-1.571,1.571
				c0,0.867,0.704,1.571,1.571,1.571h2.741v23.527c0,0.868,0.703,1.571,1.57,1.571c0.869,0,1.572-0.703,1.572-1.571V61.005h3.02
				c0.868,0,1.572-0.704,1.572-1.571c0-0.868-0.704-1.571-1.572-1.571h-3.02v-16.52c3.047,4.371,7.433,13.195,5.609,26.18
				c-0.121,0.858,0.478,1.654,1.338,1.775c0.861,0.118,1.652-0.479,1.773-1.338C99.892,47.18,88.236,36.292,87.738,35.842z"/>
		</g>
	</g>
</g>
</svg>
