<?xml version="1.0" encoding="UTF-8"?>
<svg id="web" xmlns="http://www.w3.org/2000/svg" version="1.1" viewBox="0 0 260 120">
  <!-- Generator: Adobe Illustrator 29.4.0, SVG Export Plug-In . SVG Version: 2.1.0 Build 152)  -->
  <defs>
    <style>
      .st0 {
        stroke-width: .8px;
      }

      .st0, .st1, .st2, .st3, .st4, .st5, .st6, .st7 {
        stroke-miterlimit: 10;
      }

      .st0, .st1, .st4, .st6, .st7 {
        stroke: #000;
      }

      .st0, .st8 {
        fill: #ee3f23;
      }

      .st9, .st2, .st3, .st5 {
        fill: #fff;
      }

      .st1, .st4, .st5 {
        stroke-width: .4px;
      }

      .st1, .st6 {
        fill: #97d7e3;
      }

      .st10 {
        fill: #231f20;
      }

      .st2, .st3, .st5 {
        stroke: #231f20;
      }

      .st2, .st6, .st7 {
        stroke-width: .8px;
      }

      .st3 {
        stroke-width: .8px;
      }

      .st4, .st7 {
        fill: none;
      }

      .st11 {
        font-family: TimesNewRomanPS-BoldMT, 'Times New Roman';
        font-size: 22.2px;
        font-weight: 700;
      }
    </style>
  </defs>
  <g>
    <g>
      <path class="st3" d="M201.8,43H39c-13.1,0-23.7,10.6-23.7,23.7v13.9c0,13.1,10.6,23.7,23.7,23.7h162.8c13.1,0,23.7-10.6,23.7-23.7v-13.9c0-13.1-10.6-23.7-23.7-23.7Z"/>
      <path class="st0" d="M199.7,47.4H41.2c-11.9,0-21.5,9.6-21.5,21.5v9.6c0,11.9,9.6,21.5,21.5,21.5h158.5c11.9,0,21.5-9.6,21.5-21.5v-9.6c0-11.9-9.6-21.5-21.5-21.5Z"/>
    </g>
    <g>
      <path class="st2" d="M212.1,35.8s32,16.7,29.9,36.3c-2.2,20.7-16.7,30.2-50.1,26.7l5.4-5s26.9,2.5,22-22.2c-2.6-12.8-18.1-16-18.1-16l10.9-19.8Z"/>
      <path class="st7" d="M205.2,45.5s20.6,12.4,23.4,24.5c2.3,9.9-2.6,25.4-26.9,25.8"/>
      <path class="st7" d="M218.8,50.5s11.5,6.7,14.9,20.3c3.2,12.9-10.9,28.6-33.2,25.2"/>
      <path class="st7" d="M206,52.7s16.1,6.3,18.1,21.1c1.4,10.9-3.6,19.4-21.4,20.9"/>
      <g>
        <path class="st9" d="M198.4,97.6c4.1,1.2,8.6.7,16.3-.7,36.1-6.3,37.5-47.7-.3-57.7l-.4-16.3c62.9,17,52.6,76.6,5.9,84.7-46.4,8.1-41.8-35.2-22.4-29.2,13.3,4.1,9.4,22.1.8,19.1Z"/>
        <path class="st10" d="M258.5,69.2c-.9,19.4-16.3,35-38.4,38.8-23.5,4.1-31.9-5.3-34.4-9.5-3.3-5.6-3.1-12.7.4-17.2,2.8-3.5,7-4.7,11.6-3.3,4.6,1.4,7.7,4.7,8.7,9.1.8,3.8-.2,7.7-2.5,9.8-.4.4-.9.7-1.4.9,4.6.5,7.4,1.3,12.8.4,16-2.8,26.1-14.8,26.6-28,.6-14-10.2-26-27.5-30.6-.2,0-.3-.2-.3-.4l-.4-16.3c0-.1,0-.2.1-.3.1,0,.2-.1.4,0,.6.2,1.3.4,1.9.5,32.4,9.4,43.2,29.9,42.5,46.1ZM214.8,39c17.5,4.7,28.4,17,27.8,31.3-.6,13.6-10.5,25.6-26.8,28.4-7.3,1.3-12.6.4-16.5-.4-.3,0-.7-.1-1-.2-.2,0-.3-.3-.2-.5,0-.2.3-.3.5-.3.3,0,.6.2.9.2,1.4.2,2.8-.2,3.9-1.2,2.1-1.9,3-5.6,2.3-9-.5-2.4-2.3-6.6-8.1-8.5-4.3-1.3-8.2-.2-10.8,3-3.4,4.3-3.5,11-.4,16.3,2.4,4.1,10.6,13.1,33.6,9.1,21.7-3.8,36.9-19.1,37.8-38.1.7-16.2-10.2-36.6-43.2-45.7l.4,15.5Z"/>
      </g>
      <path class="st10" d="M197.4,80.9c9.5,2.9,5.9,15.6-.7,13.5-5.9-1.8-4.4-8.8,1.2-6.7,0,0,.2.1.2.3,0,.2-.2.2-.2.2h0c-4.3-1.5-5.3,3.4-.8,4.7,5.1,1.4,4.2-6.6-.4-7.8-5.8-2.1-10.6,9.1,1.8,12,3.9.9,10.3,1.8,18.4,0,28.8-6.1,28.7-44.1-7-53.8l2.3-14.3c53,4,56.9,66.6,6.6,75.4-41.5,7.2-36.9-28.4-21.3-23.7Z"/>
      <g>
        <g>
          <path class="st2" d="M201.4,33.4c-1.2.4-4.6,11.1-4.5,20.2h0c0,4.7,1.1,8.1,3,9.8,1.2,1.1,2.8,1.6,4.8,1.4,3.9-.4,5.9-3.2,5.8-8.1-.1-9.7-7.6-23.1-9.1-23.3Z"/>
          <g>
            <path class="st10" d="M205,42.7l1.3-1.6c0,.1.1.3.2.4l-1.3,1.6c0-.1-.1-.2-.2-.4Z"/>
            <path class="st10" d="M199.9,42l-1.3-1.9c0-.2,0-.3.1-.5l1.3,1.9c0,.2-.1.3-.1.5Z"/>
            <path class="st10" d="M204.2,41.2l.9-2.3c0,.2.1.3.2.5l-.9,2.3c0-.2-.2-.3-.2-.4Z"/>
            <path class="st10" d="M199.5,43.6l-1.4-1.1v-.4c0,0,1.5,1.1,1.5,1.1,0,.1,0,.3,0,.4Z"/>
            <path class="st10" d="M199.1,45.4l-1.5-.3c0-.1,0-.2,0-.4l1.5.3c0,.1,0,.3,0,.4Z"/>
            <path class="st10" d="M198.6,48.8l-1.6,1.1c0-.2,0-.3,0-.5l1.6-1.1c0,.2,0,.3,0,.5Z"/>
            <path class="st10" d="M198.9,46.6l-1.6.2c0-.1,0-.3,0-.4l1.6-.2c0,.1,0,.3,0,.4Z"/>
            <path class="st10" d="M198.4,51.6l-1.6,1.9v-.6l1.6-2c0,.2,0,.4,0,.6Z"/>
            <path class="st10" d="M205.8,44.4l1.6-.7c0,.1.1.2.1.4l-1.6.7c0-.1-.1-.2-.2-.4Z"/>
            <path class="st10" d="M207.9,57.2l1.8,4.2c0,.2-.1.3-.2.5l-1.8-4.1c0-.2.1-.3.2-.5Z"/>
            <path class="st10" d="M200.2,58.7l-.8,4.2c-.1-.1-.2-.3-.3-.4l.8-4.2c.1.2.2.3.3.4Z"/>
            <path class="st10" d="M204.1,60.1c0,0,.1,0,.2,0l.5,4.7s0,0-.1,0c0,0-.2,0-.3,0l-.5-4.7c0,0,.1,0,.2,0Z"/>
            <path class="st10" d="M206.2,45.4l1.8-.2c0,.1,0,.2.1.4l-1.8.2c0-.1,0-.2-.1-.4Z"/>
            <path class="st10" d="M207.6,49.8l2.2,1.8c0,.2,0,.4.1.6l-2.2-1.8c0-.2,0-.4-.1-.6Z"/>
            <path class="st10" d="M206.9,47.4l2,.8c0,.2,0,.3.1.5l-2-.8c0-.2,0-.3-.2-.5Z"/>
          </g>
          <path class="st6" d="M201.8,38.1c1.8-.2,12.2,20.9,2.3,22-9.9,1.1-4.1-21.8-2.3-22Z"/>
        </g>
        <g>
          <path class="st2" d="M201.4,33.4c1.2-.4,4.6-11.1,4.5-20.2h0c0-4.7-1.1-8.1-3-9.8-1.2-1.1-2.8-1.6-4.8-1.4-3.9.4-5.9,3.2-5.8,8.1.2,9.7,7.6,23.1,9.1,23.3Z"/>
          <g>
            <path class="st10" d="M197.8,24.1l-1.3,1.6c0-.1-.1-.3-.2-.4l1.3-1.6c0,.1.1.2.2.4Z"/>
            <path class="st10" d="M202.9,24.8l1.3,1.9c0,.2,0,.3-.1.5l-1.3-1.9c0-.2,0-.3.1-.5Z"/>
            <path class="st10" d="M198.5,25.5l-.9,2.4c0-.1-.1-.3-.2-.5l.9-2.3c0,.1.2.3.2.4Z"/>
            <path class="st10" d="M203.2,23.2l1.4,1.1c0,.1,0,.3,0,.4l-1.4-1.1c0-.1,0-.3,0-.4Z"/>
            <path class="st10" d="M203.6,21.4l1.5.3c0,.1,0,.2,0,.4l-1.5-.3c0-.1,0-.2,0-.4Z"/>
            <path class="st10" d="M204.1,18l1.6-1.1c0,.2,0,.3,0,.5l-1.6,1.1c0-.2,0-.3,0-.5Z"/>
            <path class="st10" d="M203.9,20.2l1.6-.2c0,.1,0,.3,0,.4l-1.6.2c0-.1,0-.2,0-.4Z"/>
            <path class="st10" d="M204.3,15.2l1.6-1.9v.6l-1.6,1.9c0-.2,0-.4,0-.6Z"/>
            <path class="st10" d="M197,22.4l-1.6.7c0-.1-.1-.2-.1-.4l1.6-.7c0,.1.1.2.2.3Z"/>
            <path class="st10" d="M194.9,9.6l-1.8-4.2c0-.2.1-.3.2-.4l1.8,4.1c0,.1-.1.3-.2.5Z"/>
            <path class="st10" d="M202.5,8.1l.8-4.2c.1.1.2.3.3.4l-.8,4.2c0-.2-.2-.3-.3-.4Z"/>
            <path class="st10" d="M198.7,6.7c0,0-.1,0-.2,0l-.5-4.7s0,0,.1,0c0,0,.2,0,.3,0l.5,4.7c0,0-.1,0-.2,0Z"/>
            <path class="st10" d="M196.5,21.4l-1.8.2c0-.1,0-.2-.1-.4l1.8-.2c0,.1,0,.2.1.4Z"/>
            <path class="st10" d="M195.1,17l-2.2-1.8c0-.2,0-.4-.1-.6l2.2,1.8c0,.2,0,.4.1.6Z"/>
            <path class="st10" d="M195.8,19.4l-2-.8c0-.2,0-.3-.1-.5l2,.8c0,.1.1.3.2.5Z"/>
          </g>
          <path class="st6" d="M201,28.7c-1.8.2-12.2-20.9-2.3-22,9.9-1,4.1,21.8,2.3,22Z"/>
        </g>
        <g>
          <path class="st2" d="M201.4,33.4c.4,1.2,11.1,4.6,20.2,4.5h0c4.7,0,8.1-1.1,9.8-3,1.1-1.2,1.6-2.8,1.4-4.8-.4-3.9-3.1-5.9-8.1-5.8-9.7.1-23.1,7.6-23.3,9.1Z"/>
          <g>
            <path class="st10" d="M210.6,29.8l-1.6-1.3c.1,0,.3-.1.4-.2l1.6,1.3c-.1,0-.3.1-.4.2Z"/>
            <path class="st10" d="M210,34.9l-1.9,1.3c-.2,0-.3,0-.5-.1l1.9-1.3c.1,0,.3,0,.5.1Z"/>
            <path class="st10" d="M209.2,30.5l-2.4-.9c.1,0,.3-.1.5-.2l2.3.9c-.2,0-.3.2-.4.2Z"/>
            <path class="st10" d="M211.5,35.3l-1.1,1.4c-.1,0-.3,0-.4,0l1.1-1.4c.1,0,.3,0,.4.1Z"/>
            <path class="st10" d="M213.4,35.7l-.3,1.5c-.1,0-.2,0-.4,0l.3-1.5c.1,0,.2,0,.4,0Z"/>
            <path class="st10" d="M216.8,36.2l1.1,1.6c-.2,0-.3,0-.5,0l-1.1-1.6c.2,0,.3,0,.5,0Z"/>
            <path class="st10" d="M214.6,35.9l.2,1.5c-.1,0-.3,0-.4,0l-.2-1.6c.1,0,.3,0,.4,0Z"/>
            <path class="st10" d="M219.5,36.3l1.9,1.6h-.6l-1.9-1.6c.2,0,.4,0,.6,0Z"/>
            <path class="st10" d="M212.3,29l-.7-1.6c.1,0,.2-.1.4-.1l.7,1.6c-.1,0-.2.1-.3.1Z"/>
            <path class="st10" d="M225.1,26.9l4.2-1.8c.2,0,.3.1.4.2l-4.1,1.8c-.2,0-.3-.1-.5-.2Z"/>
            <path class="st10" d="M226.6,34.6l4.2.8c-.1.1-.3.2-.4.3l-4.2-.8c.1-.1.3-.2.4-.3Z"/>
            <path class="st10" d="M228,30.7c0,0,0-.1,0-.2l4.7-.5s0,0,0,.1c0,0,0,.2,0,.3l-4.7.5c0,0,0-.1,0-.2Z"/>
            <path class="st10" d="M213.4,28.6l-.2-1.8c.1,0,.2,0,.4-.1l.2,1.8c-.1,0-.2,0-.4.1Z"/>
            <path class="st10" d="M217.7,27.1l1.8-2.2c.2,0,.4,0,.6-.1l-1.8,2.2c-.2,0-.4.1-.6.1Z"/>
            <path class="st10" d="M215.3,27.9l.8-2c.2,0,.3,0,.5-.1l-.8,2c-.2,0-.3.1-.5.2Z"/>
          </g>
          <path class="st6" d="M206.1,33c-.2-1.8,20.9-12.2,21.9-2.3,1.1,9.9-21.8,4.1-21.9,2.3Z"/>
        </g>
        <g>
          <path class="st2" d="M201.4,33.4c-.4-1.2-11.1-4.6-20.2-4.5h0c-4.7,0-8.1,1.1-9.8,3-1.1,1.2-1.6,2.8-1.4,4.8.4,3.9,3.1,5.9,8.1,5.8,9.7-.2,23.1-7.6,23.3-9.1Z"/>
          <g>
            <path class="st10" d="M192.1,37l1.6,1.3c-.1,0-.3.1-.4.2l-1.6-1.3c.1,0,.2-.1.4-.2Z"/>
            <path class="st10" d="M192.7,31.9l1.9-1.3c.2,0,.3,0,.5.1l-1.9,1.3c-.2,0-.3,0-.5-.1Z"/>
            <path class="st10" d="M193.5,36.3l2.4.9c-.1,0-.3.2-.5.2l-2.3-.9c.2,0,.3-.2.4-.2Z"/>
            <path class="st10" d="M191.2,31.5l1.1-1.4c.1,0,.3,0,.4,0l-1.1,1.4c-.1,0-.3,0-.4-.1Z"/>
            <path class="st10" d="M189.4,31.1l.3-1.5c.1,0,.2,0,.4,0l-.3,1.5c-.1,0-.2,0-.4,0Z"/>
            <path class="st10" d="M185.9,30.6l-1.1-1.6c.2,0,.3,0,.5,0l1.1,1.6c-.2,0-.3,0-.5,0Z"/>
            <path class="st10" d="M188.1,30.9l-.2-1.5c.1,0,.3,0,.4,0l.2,1.6c-.1,0-.2,0-.4,0Z"/>
            <path class="st10" d="M183.2,30.5l-1.9-1.6h.6l1.9,1.6c-.2,0-.4,0-.6,0Z"/>
            <path class="st10" d="M190.4,37.8l.7,1.6c-.1,0-.2,0-.4.1l-.7-1.6c.1,0,.2,0,.3-.1Z"/>
            <path class="st10" d="M177.6,39.9l-4.2,1.8c-.2,0-.3-.2-.4-.2l4.1-1.8c.2,0,.3.1.5.2Z"/>
            <path class="st10" d="M176.1,32.2l-4.2-.8c.1-.1.3-.2.4-.3l4.2.8c-.1.1-.3.2-.4.3Z"/>
            <path class="st10" d="M174.7,36.1c0,0,0,.1,0,.2l-4.7.5s0,0,0-.1c0,0,0-.2,0-.3l4.7-.5c0,0,0,.1,0,.2Z"/>
            <path class="st10" d="M189.3,38.2l.2,1.8c-.1,0-.2,0-.4.1l-.2-1.8c.1,0,.2,0,.4-.1Z"/>
            <path class="st10" d="M185,39.6l-1.8,2.2c-.2,0-.4,0-.6.1l1.8-2.2c.2,0,.4,0,.6-.1Z"/>
            <path class="st10" d="M187.4,38.9l-.8,2c-.2,0-.3,0-.5.1l.8-2c.2,0,.3,0,.5-.2Z"/>
          </g>
          <path class="st6" d="M196.6,33.8c.2,1.8-20.9,12.2-21.9,2.3s21.8-4.1,21.9-2.3Z"/>
        </g>
        <g>
          <path class="st2" d="M201.4,33.4c-.6,1.2,4.5,11.1,11.1,17.4h0c3.4,3.3,6.5,4.9,9,4.8,1.7,0,3.1-.9,4.4-2.4,2.5-3.1,1.9-6.4-1.6-9.8-7-6.8-21.7-10.9-22.9-10Z"/>
          <g>
            <path class="st10" d="M210.5,37.4l-.2-2c.1,0,.3,0,.4.2l.2,2c-.1,0-.3-.1-.4-.1Z"/>
            <path class="st10" d="M206.4,40.5l-2.2-.4c0-.2-.2-.3-.3-.4l2.2.4c0,.1.2.3.2.4Z"/>
            <path class="st10" d="M208.9,36.9l-1-2.3c.2,0,.3.1.5.2l1,2.3c-.2,0-.3-.1-.5-.2Z"/>
            <path class="st10" d="M207.2,41.9l-1.8.2c0-.1-.1-.2-.2-.4l1.8-.2c0,.1.1.2.2.4Z"/>
            <path class="st10" d="M208.2,43.5l-1.3.9c0,0-.1-.2-.2-.3l1.3-.9c0,.1.1.2.2.3Z"/>
            <path class="st10" d="M210.3,46.3l-.4,1.9c-.1-.1-.2-.2-.3-.4l.4-1.9c.1.1.2.2.3.4Z"/>
            <path class="st10" d="M208.9,44.5l-1,1.2c0-.1-.2-.2-.2-.3l1-1.2.2.3Z"/>
            <path class="st10" d="M212.1,48.3l.3,2.5c-.1-.1-.3-.3-.4-.4l-.3-2.5c.1.2.3.3.4.5Z"/>
            <path class="st10" d="M212.2,38l.6-1.6c.1,0,.2,0,.4.2l-.6,1.6c-.1,0-.2,0-.4-.1Z"/>
            <path class="st10" d="M222.8,45.6l4.2,1.7c0,.2.1.3.2.5l-4.2-1.7c0-.2-.1-.3-.2-.5Z"/>
            <path class="st10" d="M218.4,52.1l2.4,3.6c-.2,0-.3,0-.5,0l-2.4-3.6c.2,0,.4,0,.5,0Z"/>
            <path class="st10" d="M222.1,50.3s0,0,.1-.2l3.7,3s0,0,0,0l-.2.2-3.7-3c0,0,0,0,.1-.1Z"/>
            <path class="st10" d="M213.3,38.5l1.1-1.4c.1,0,.2.1.4.2l-1.1,1.4c-.1,0-.2-.1-.4-.2Z"/>
            <path class="st10" d="M217.4,40.5l2.8-.3c.2.1.3.2.5.3l-2.8.3c-.2-.1-.4-.2-.5-.3Z"/>
            <path class="st10" d="M215.2,39.3l2-.9c.1,0,.3.2.4.2l-2,.9c-.1,0-.3-.1-.4-.2Z"/>
          </g>
          <path class="st6" d="M205,36.5c1.2-1.4,23.4,6.2,17.1,13.9-6.2,7.7-18.3-12.5-17.1-13.9Z"/>
        </g>
        <g>
          <path class="st2" d="M201.4,33.4c.6-1.2-4.5-11.1-11.1-17.4h0c-3.4-3.3-6.5-4.9-9-4.8-1.7,0-3.1.9-4.4,2.4-2.5,3.1-1.9,6.4,1.6,9.8,7,6.8,21.7,11,22.9,10Z"/>
          <g>
            <path class="st10" d="M192.2,29.4l.2,2c-.1,0-.3-.1-.4-.1l-.2-2c.1,0,.3,0,.4.1Z"/>
            <path class="st10" d="M196.3,26.2l2.2.4c0,.1.2.3.3.4l-2.2-.4c0-.1-.2-.3-.2-.4Z"/>
            <path class="st10" d="M193.8,29.9l1,2.3c-.2,0-.3-.1-.5-.2l-1-2.3c.2,0,.3.1.5.1Z"/>
            <path class="st10" d="M195.5,24.9l1.8-.2c0,.1.1.2.2.4l-1.8.2c0-.1-.1-.2-.2-.4Z"/>
            <path class="st10" d="M194.5,23.3l1.3-.9c0,.1.1.2.2.3l-1.3.9c0-.1-.1-.2-.2-.3Z"/>
            <path class="st10" d="M192.4,20.5l.4-1.9c.1.1.2.2.3.4l-.4,1.9c-.1-.1-.2-.3-.3-.4Z"/>
            <path class="st10" d="M193.8,22.3l1-1.2c0,.1.2.2.2.3l-1,1.2c0-.1-.2-.2-.2-.3Z"/>
            <path class="st10" d="M190.6,18.5l-.3-2.5c.1.1.3.3.4.4l.3,2.5c-.1-.1-.3-.3-.4-.5Z"/>
            <path class="st10" d="M190.5,28.7l-.6,1.6c-.1,0-.2-.1-.4-.1l.6-1.6c.1,0,.2,0,.4.1Z"/>
            <path class="st10" d="M180,21.2l-4.2-1.7c0-.2-.1-.3-.2-.5l4.2,1.7c0,.2.1.3.2.5Z"/>
            <path class="st10" d="M184.3,14.7l-2.4-3.6c.2,0,.3,0,.5,0l2.4,3.6c-.2,0-.3,0-.5,0Z"/>
            <path class="st10" d="M180.6,16.4s0,.1-.1.1l-3.7-3s0,0,0,0c0,0,.1-.1.2-.2l3.7,3c0,0,0,.1-.1.2Z"/>
            <path class="st10" d="M189.4,28.3l-1.1,1.4c-.1,0-.2-.1-.4-.2l1.1-1.4c.1,0,.2.1.4.2Z"/>
            <path class="st10" d="M185.4,26.2l-2.8.3c-.2-.1-.3-.2-.5-.3l2.8-.3c.2.1.3.2.5.3Z"/>
            <path class="st10" d="M187.6,27.4l-2,.9c-.1,0-.3-.1-.4-.2l2-.9c.1,0,.3.1.4.2Z"/>
          </g>
          <path class="st6" d="M197.8,30.3c-1.2,1.4-23.4-6.1-17.1-13.9,6.2-7.7,18.3,12.5,17.1,13.9Z"/>
        </g>
        <g>
          <path class="st2" d="M201.4,33.4c1.2.6,11.1-4.5,17.4-11.1h0c3.3-3.4,4.9-6.5,4.8-9,0-1.7-.9-3.1-2.4-4.4-3.1-2.5-6.4-1.9-9.8,1.6-6.8,7-10.9,21.7-10,22.9Z"/>
          <g>
            <path class="st10" d="M205.4,24.3l-2,.2c0-.1.1-.3.1-.4l2-.2c0,.1,0,.3-.1.4Z"/>
            <path class="st10" d="M208.5,28.3l-.4,2.2c-.1,0-.3.2-.4.3l.4-2.2c.1,0,.3-.2.4-.2Z"/>
            <path class="st10" d="M204.9,25.8l-2.3,1c0-.2.1-.3.2-.5l2.3-1c0,.1-.1.3-.1.5Z"/>
            <path class="st10" d="M209.9,27.5l.2,1.8c-.1,0-.2.1-.4.2l-.2-1.8c.1,0,.2-.1.4-.2Z"/>
            <path class="st10" d="M211.5,26.5l.9,1.3c-.1,0-.2.1-.3.2l-.9-1.3c.1,0,.2-.1.3-.2Z"/>
            <path class="st10" d="M214.3,24.4l1.9.4c-.1.1-.2.2-.4.3l-1.9-.4c.1-.1.2-.2.4-.3Z"/>
            <path class="st10" d="M212.5,25.8l1.2,1c-.1,0-.2.2-.3.2l-1.2-1c.1,0,.2-.2.3-.2Z"/>
            <path class="st10" d="M216.3,22.6l2.5-.3c-.1.1-.3.3-.4.4l-2.5.3c.2-.1.3-.3.4-.4Z"/>
            <path class="st10" d="M206,22.5l-1.6-.6c0-.1.1-.2.1-.4l1.6.6c0,.1,0,.2-.1.4Z"/>
            <path class="st10" d="M213.6,12l1.7-4.2c.2,0,.3-.1.5-.2l-1.7,4.2c-.2,0-.3.1-.5.2Z"/>
            <path class="st10" d="M220.1,16.3l3.6-2.4c0,.2,0,.3,0,.5l-3.6,2.4c0-.2,0-.3,0-.5Z"/>
            <path class="st10" d="M218.3,12.6c0,0-.1,0-.1-.1l3-3.7s0,0,0,0c0,0,.1.1.2.2l-3,3.7c0,0-.1,0-.2-.1Z"/>
            <path class="st10" d="M206.5,21.5l-1.4-1.1c0-.1.1-.2.2-.4l1.4,1.1c0,.1-.1.2-.2.4Z"/>
            <path class="st10" d="M208.5,17.4l-.3-2.8c.1-.2.2-.3.3-.5l.3,2.8c-.1.2-.2.4-.3.5Z"/>
            <path class="st10" d="M207.3,19.6l-.9-2c0-.1.1-.3.2-.4l.9,2c0,.1-.1.3-.2.5Z"/>
          </g>
          <path class="st6" d="M204.4,29.8c-1.4-1.2,6.1-23.4,13.9-17.1,7.7,6.2-12.5,18.3-13.9,17.1Z"/>
        </g>
        <g>
          <path class="st2" d="M201.4,33.4c-1.2-.6-11.1,4.5-17.4,11.1h0c-3.3,3.4-4.9,6.5-4.8,9,0,1.7.9,3.1,2.4,4.4,3.1,2.5,6.4,1.9,9.8-1.6,6.8-7,11-21.7,10-22.9Z"/>
          <g>
            <path class="st10" d="M197.4,42.5l2-.2c0,.1-.1.3-.1.4l-2,.2c0-.1,0-.3.1-.4Z"/>
            <path class="st10" d="M194.2,38.5l.4-2.2c.1,0,.3-.2.4-.3l-.4,2.2c-.1,0-.3.2-.4.2Z"/>
            <path class="st10" d="M197.8,41l2.3-1c0,.2-.1.3-.2.5l-2.3,1c0-.2.1-.3.1-.5Z"/>
            <path class="st10" d="M192.8,39.2l-.2-1.8c.1,0,.2-.2.4-.2l.2,1.8c-.1,0-.2.1-.4.2Z"/>
            <path class="st10" d="M191.2,40.3l-.9-1.3c.1,0,.2-.2.3-.2l.9,1.3c0,0-.2.1-.3.2Z"/>
            <path class="st10" d="M188.5,42.3l-1.9-.4c.1-.1.2-.2.4-.3l1.9.4c-.1.1-.2.2-.4.3Z"/>
            <path class="st10" d="M190.3,41l-1.2-1c.1,0,.2-.2.3-.2l1.2,1c-.1,0-.2.2-.3.2Z"/>
            <path class="st10" d="M186.4,44.2l-2.5.3c.1-.1.3-.3.4-.4l2.5-.3c-.1.2-.3.3-.4.4Z"/>
            <path class="st10" d="M196.7,44.3l1.6.6c0,.1-.1.2-.1.3l-1.6-.6c0-.1,0-.2.1-.3Z"/>
            <path class="st10" d="M189.1,54.8l-1.7,4.2c-.2,0-.3.1-.5.2l1.7-4.2c.2,0,.3-.1.5-.2Z"/>
            <path class="st10" d="M182.7,50.4l-3.6,2.4c0-.2,0-.3,0-.5l3.6-2.4c0,.2,0,.3,0,.5Z"/>
            <path class="st10" d="M184.4,54.2c0,0,.1,0,.1.1l-3,3.7h0c0-.1-.1-.2-.2-.2l3-3.7c0,0,.1,0,.2.1Z"/>
            <path class="st10" d="M196.3,45.3l1.4,1.1c0,.1-.1.2-.2.4l-1.4-1.1c0-.1,0-.2.2-.4Z"/>
            <path class="st10" d="M194.2,49.4l.3,2.8c-.1.2-.2.3-.3.5l-.3-2.8c.1-.2.2-.3.3-.5Z"/>
            <path class="st10" d="M195.4,47.2l.9,2c0,.1-.1.3-.2.4l-.9-2c0-.1.2-.3.2-.5Z"/>
          </g>
          <path class="st6" d="M198.3,37c1.4,1.2-6.1,23.4-13.9,17.1-7.7-6.2,12.5-18.3,13.9-17.1Z"/>
        </g>
      </g>
      <g>
        <path class="st8" d="M196.5,35.3c.4,2.7,2.8,5.5,6.9,4.4,7-1.9,4.4-12.9-2-12.5-6.4.4-8.2,6.1-4.9,7.9v.2Z"/>
        <path d="M203.6,40.5c-2.4.7-4.6.2-6.1-1.4-.9-.9-1.5-2.2-1.8-3.5-1.4-.9-2-2.5-1.6-4.2.5-2.3,2.9-4.8,7.2-5,3.8-.2,6.4,3,6.9,6.3.3,1.9,0,4-1.2,5.6-.8,1-1.9,1.9-3.4,2.3ZM195.8,31.7c-.1.5,0,1,0,1.4,0,0,0,0,0,0,.4-1.5,1.5-2.6,3-2.9,2.9-.7,4.7.6,5.2,2.2.5,1.7-.4,3.3-2.1,3.9-.4.1-.9,0-1.1-.5-.1-.4,0-.9.5-1,.9-.3,1.3-1.2,1.1-1.9-.2-.8-1.2-1.5-3.2-1-1.1.3-1.6,1.1-1.8,1.8-.1.5-.2.9-.1,1.4,0,0,0,.1,0,.2.1,1,.6,2.1,1.3,2.8.8.8,2.2,1.6,4.5,1,3.2-.9,3.8-3.8,3.5-6-.4-2.6-2.4-5.1-5.2-4.9-2.4.1-4.1,1.1-5,2.3-.3.5-.6,1-.7,1.4Z"/>
      </g>
    </g>
    <g>
      <path class="st5" d="M34.3,102.3s-19.9-.5-23.6-10.7c-3.9-10.8.9-19,18.3-25.4l-1.4,3.8s-13.9,5.3-5.5,16.3c4.4,5.7,12.9,3.5,12.9,3.5l-.6,12.5Z"/>
      <path class="st4" d="M35.4,95.9s-13.2-1.1-17.6-6.4c-3.6-4.4-4.9-13.2,7-19.3"/>
      <path class="st4" d="M27.4,96.7s-7.3-.5-12.3-6.4c-4.7-5.6-1.5-16.8,10.3-20.6"/>
      <path class="st4" d="M33.2,92.5s-9.5.8-14.1-6c-3.4-5-2.9-10.5,5.5-15.5"/>
      <g>
        <path class="st9" d="M26.1,68.4c-2.3.4-4.4,1.8-7.9,4.3-16.3,11.9-7,32.7,14.1,28.5l4.2,8C1.2,116.1-8.2,84.1,12.9,68.7c21-15.3,29.3,7.3,18.2,9-7.6,1.2-10.1-8.6-5.1-9.3Z"/>
        <path class="st10" d="M3.2,97.1c-4.3-9.8-.4-21.3,9.6-28.6,10.6-7.7,17.1-5.1,19.3-3.7,3,1.9,4.6,5.5,4,8.6-.5,2.4-2.3,4-5,4.5-2.6.4-5-.5-6.5-2.4-1.3-1.7-1.8-3.9-1.1-5.4.1-.3.3-.6.5-.8-2.4.8-4,1.2-6.4,2.9-7.2,5.3-9.3,13.7-6.4,20.3,3.1,7.1,11.4,10.4,21,8.5.1,0,.2,0,.2.1l4.2,8c0,0,0,.1,0,.2,0,0,0,.1-.2.1-.4,0-.7.1-1.1.2-18.3,3.2-28.6-4.3-32.2-12.5ZM32.2,101.5c-9.8,1.9-18.2-1.5-21.4-8.7-3-6.9-1-15.2,6.4-20.6,3.3-2.4,6.1-3.3,8.3-3.8.2,0,.4,0,.6-.1.1,0,.2,0,.2.2,0,.1,0,.2-.2.2-.2,0-.4,0-.5.1-.8.2-1.3.8-1.6,1.5-.6,1.4-.1,3.5,1.1,5,.8,1.1,2.7,2.7,6.1,2.2,2.5-.4,4.1-1.9,4.6-4.1.6-2.9-.9-6.3-3.8-8.2-2.2-1.4-8.4-3.9-18.9,3.6-9.8,7.2-13.6,18.4-9.4,28.1,3.6,8.2,14,15.6,32.5,12.1l-4-7.6Z"/>
      </g>
      <path class="st10" d="M30.6,76.4c-5.4.9-6.7-6.3-2.9-6.8,3.4-.5,4.3,3.3,1,3.6,0,0-.1,0-.2-.1,0-.1,0-.2,0-.2h0c2.5-.3,1.8-3-.8-2.5-2.9.5-.5,4.3,2.1,3.8,3.4-.4,3-7.1-3.8-5.5-2.2.5-5.5,1.6-9.1,4.4-12.8,10-3.5,28.8,16.5,25l2.3,7.6c-27.2,10.9-44.4-19.2-21.6-35.7,18.8-13.6,25.2,5.1,16.3,6.5Z"/>
      <g>
        <g>
          <path class="st5" d="M40.2,100.9c.5-.5-.4-6.6-2.7-11.1h0c-1.2-2.3-2.5-3.7-3.8-4.1-.9-.3-1.8,0-2.7.5-1.8,1.2-2.1,3-.9,5.4,2.4,4.8,9.4,9.6,10.1,9.3Z"/>
          <g>
            <path class="st10" d="M36.2,97.2l-.2,1.1c0,0-.1,0-.2-.2l.2-1.1c0,0,.1,0,.2.1Z"/>
            <path class="st10" d="M38.8,96.3l1.1.6c0,0,0,.2,0,.3l-1.1-.6c0,0,0-.2,0-.3Z"/>
            <path class="st10" d="M36.9,97.8v1.4c0,0,0-.1-.1-.2v-1.4c0,0,0,.1.1.2Z"/>
            <path class="st10" d="M38.7,95.5l1,.2c0,0,0,.2,0,.2l-1-.2c0,0,0-.2,0-.2Z"/>
            <path class="st10" d="M38.4,94.4l.8-.2c0,0,0,.1,0,.2l-.8.2c0,0,0-.1,0-.2Z"/>
            <path class="st10" d="M37.8,92.6l.5-.9c0,0,0,.2,0,.2l-.5.9c0,0,0-.2,0-.3Z"/>
            <path class="st10" d="M38.2,93.8l.7-.5c0,0,0,.1,0,.2l-.7.5c0,0,0-.1,0-.2Z"/>
            <path class="st10" d="M37.2,91.2l.3-1.3.2.3-.3,1.3c0-.1,0-.2-.1-.3Z"/>
            <path class="st10" d="M35.4,96.6l-.6.7c0,0,0,0-.2-.1l.6-.7s.1,0,.2.1Z"/>
            <path class="st10" d="M31.2,90.8l-1.9-1.6v-.3l1.9,1.6c0,0,0,.2,0,.3Z"/>
            <path class="st10" d="M34.7,88.2l-.6-2.3c0,0,.2,0,.2.1l.6,2.3c0,0-.2,0-.2-.1Z"/>
            <path class="st10" d="M32.4,88.4s0,0,0,0l-1.4-2.2s0,0,0,0c0,0,0,0,.1,0l1.4,2.2s0,0,0,0Z"/>
            <path class="st10" d="M34.9,96.2l-.8.5c0,0,0,0-.2-.2l.8-.5c0,0,.1.1.2.2Z"/>
            <path class="st10" d="M33.1,94.4l-1.5-.3c0,0-.1-.2-.2-.3l1.5.3c0,0,.2.2.2.3Z"/>
            <path class="st10" d="M34.1,95.4h-1.2c0,0-.1,0-.2-.1h1.2c0,0,.1,0,.2.1Z"/>
          </g>
          <path class="st1" d="M38.9,98.7c-.9.5-11.1-7.4-6.5-10.3,4.7-2.9,7.3,9.8,6.5,10.3Z"/>
        </g>
        <g>
          <path class="st5" d="M40.2,100.9c-.5.5.4,6.6,2.7,11.1h0c1.2,2.3,2.5,3.7,3.8,4.1.9.3,1.8,0,2.7-.5,1.8-1.2,2.1-3,.9-5.4-2.4-4.8-9.4-9.6-10.1-9.3Z"/>
          <g>
            <path class="st10" d="M44.2,104.7l.2-1.1c0,0,.1,0,.2.2l-.2,1.1c0,0-.1,0-.2-.1Z"/>
            <path class="st10" d="M41.6,105.6l-1.1-.6c0,0,0-.2,0-.3l1.1.6c0,0,0,.2,0,.3Z"/>
            <path class="st10" d="M43.5,104.1v-1.4c0,0,0,.1.1.2v1.4s0,0-.1-.2Z"/>
            <path class="st10" d="M41.7,106.4l-1-.2c0,0,0-.2,0-.2l1,.2c0,0,0,.2,0,.2Z"/>
            <path class="st10" d="M42,107.5l-.8.2c0,0,0-.1,0-.2l.8-.2c0,0,0,.1,0,.2Z"/>
            <path class="st10" d="M42.6,109.3l-.5.9c0,0,0-.2,0-.2l.5-.9c0,0,0,.2,0,.3Z"/>
            <path class="st10" d="M42.2,108.1l-.7.5c0,0,0-.1,0-.2l.7-.5c0,0,0,.1,0,.2Z"/>
            <path class="st10" d="M43.2,110.7l-.3,1.3-.2-.3.3-1.3c0,0,0,.2.1.3Z"/>
            <path class="st10" d="M45,105.3l.6-.7c0,0,0,0,.2.1l-.6.7s0,0-.2-.1Z"/>
            <path class="st10" d="M49.2,111.2l1.9,1.6v.3l-1.9-1.6c0,0,0-.2,0-.3Z"/>
            <path class="st10" d="M45.8,113.8l.6,2.3c0,0-.2,0-.2-.1l-.6-2.3c0,0,.2,0,.2.1Z"/>
            <path class="st10" d="M48,113.5s0,0,0,0l1.4,2.2s0,0,0,0c0,0,0,0-.1,0l-1.4-2.2s0,0,0,0Z"/>
            <path class="st10" d="M45.5,105.7l.8-.5c0,0,0,0,.2.2l-.8.5c0,0-.1,0-.2-.2Z"/>
            <path class="st10" d="M47.3,107.5l1.5.3c0,0,.1.2.2.3l-1.5-.3c0,0-.2-.2-.2-.3Z"/>
            <path class="st10" d="M46.3,106.5h1.2c0,0,.1,0,.2.1h-1.2c0,0-.1,0-.2-.1Z"/>
          </g>
          <path class="st1" d="M41.5,103.2c.9-.5,11.1,7.4,6.5,10.3-4.6,2.9-7.3-9.8-6.5-10.3Z"/>
        </g>
        <g>
          <path class="st5" d="M40.2,100.9c-.5-.5-6.6.4-11.1,2.7h0c-2.3,1.2-3.7,2.5-4.1,3.8-.3.9-.1,1.8.5,2.7,1.2,1.8,3,2.1,5.4.9,4.8-2.4,9.6-9.4,9.3-10.1Z"/>
          <g>
            <path class="st10" d="M36.5,105l1.1.2c0,0,0,.1-.2.2l-1.1-.2c0,0,.1-.1.1-.2Z"/>
            <path class="st10" d="M35.6,102.3l.6-1.1c0,0,.2,0,.3,0l-.6,1.1c0,0-.2,0-.3,0Z"/>
            <path class="st10" d="M37,104.3h1.4c0,0-.1,0-.2.1h-1.4c0,0,.1,0,.2-.1Z"/>
            <path class="st10" d="M34.7,102.5l.2-1c0,0,.2,0,.2,0l-.2,1c0,0-.2,0-.2,0Z"/>
            <path class="st10" d="M33.7,102.7l-.2-.8c0,0,.1,0,.2,0l.2.8c0,0-.1,0-.2,0Z"/>
            <path class="st10" d="M31.9,103.3l-.9-.5c0,0,.2,0,.2,0l.9.5c0,0-.2,0-.3,0Z"/>
            <path class="st10" d="M33.1,102.9l-.5-.7c0,0,.1,0,.2,0l.5.7c0,0-.1,0-.2,0Z"/>
            <path class="st10" d="M30.5,103.9l-1.3-.3c.1,0,.2,0,.3-.2l1.4.3c-.1,0-.2,0-.3.1Z"/>
            <path class="st10" d="M35.8,105.8l.7.6c0,0,0,0-.1.2l-.7-.6c0,0,0-.1.1-.2Z"/>
            <path class="st10" d="M30,109.9l-1.6,1.9h-.3l1.6-1.9c0,0,.2,0,.3,0Z"/>
            <path class="st10" d="M27.4,106.5l-2.3.6c0,0,0-.2.1-.2l2.3-.6c0,0,0,.2-.1.2Z"/>
            <path class="st10" d="M27.7,108.8s0,0,0,0l-2.2,1.4s0,0,0,0c0,0,0,0,0-.1l2.2-1.4s0,0,0,0Z"/>
            <path class="st10" d="M35.4,106.3l.5.8c0,0,0,0-.2.2l-.5-.8c0,0,.1-.1.2-.2Z"/>
            <path class="st10" d="M33.6,108l-.3,1.5c0,0-.2.1-.3.2l.3-1.5c0,0,.2-.1.3-.2Z"/>
            <path class="st10" d="M34.6,107.1v1.2c0,0,0,.1-.1.2v-1.2c0,0,0-.1.1-.2Z"/>
          </g>
          <path class="st1" d="M38,102.3c.5.9-7.4,11.1-10.3,6.5-2.9-4.6,9.8-7.3,10.3-6.5Z"/>
        </g>
        <g>
          <path class="st5" d="M40.2,100.9c.5.5,6.6-.4,11.1-2.7h0c2.3-1.2,3.7-2.5,4.1-3.8.3-.9,0-1.8-.5-2.7-1.2-1.8-3-2.1-5.4-.9-4.8,2.4-9.6,9.4-9.3,10.1Z"/>
          <g>
            <path class="st10" d="M43.9,96.9l-1.1-.2c0,0,0-.1.2-.2l1.1.2c0,0-.1.1-.1.2Z"/>
            <path class="st10" d="M44.8,99.6l-.6,1.1c0,0-.2,0-.3,0l.6-1.1c0,0,.2,0,.3,0Z"/>
            <path class="st10" d="M43.4,97.6h-1.4c0,0,.1,0,.2-.1h1.4c0,0-.1,0-.2.1Z"/>
            <path class="st10" d="M45.7,99.4l-.2,1c0,0-.2,0-.2,0l.2-1c0,0,.2,0,.2,0Z"/>
            <path class="st10" d="M46.7,99.2l.2.8c0,0-.1,0-.2,0l-.2-.8c0,0,.1,0,.2,0Z"/>
            <path class="st10" d="M48.5,98.6l.9.5c0,0-.2,0-.2,0l-.9-.5c0,0,.2,0,.3,0Z"/>
            <path class="st10" d="M47.4,99l.5.7c0,0-.1,0-.2,0l-.5-.7c0,0,.1,0,.2,0Z"/>
            <path class="st10" d="M49.9,98l1.3.3c0,0-.2,0-.3.2l-1.3-.3c0,0,.2,0,.3-.1Z"/>
            <path class="st10" d="M44.6,96.1l-.7-.6c0,0,0,0,.1-.2l.7.6c0,0,0,.1-.1.2Z"/>
            <path class="st10" d="M50.4,92l1.6-1.9h.3l-1.6,1.9c-.1,0-.2,0-.3,0Z"/>
            <path class="st10" d="M53,95.4l2.3-.6c0,0,0,.2-.1.2l-2.3.6c0,0,0-.2.1-.2Z"/>
            <path class="st10" d="M52.8,93.1h0c0,0,2.2-1.5,2.2-1.5,0,0,0,0,0,0,0,0,0,0,0,.1l-2.2,1.4s0,0,0,0Z"/>
            <path class="st10" d="M45,95.6l-.5-.8c0,0,0,0,.2-.2l.5.8c0,0-.1.1-.2.2Z"/>
            <path class="st10" d="M46.8,93.9l.3-1.5c0,0,.2-.1.3-.2l-.3,1.5c0,0-.2.1-.3.2Z"/>
            <path class="st10" d="M45.8,94.8v-1.2c0,0,0-.1.1-.2v1.2c0,0,0,.1-.1.2Z"/>
          </g>
          <path class="st1" d="M42.5,99.6c-.5-.9,7.4-11.1,10.3-6.5,2.9,4.7-9.8,7.3-10.3,6.5Z"/>
        </g>
        <g>
          <path class="st5" d="M40.2,100.9c0-.7-4.9-4.4-9.7-5.9h0c-2.5-.8-4.4-.9-5.6-.2-.8.4-1.3,1.2-1.6,2.3-.5,2.1.6,3.6,3.2,4.5,5.1,1.7,13.4.2,13.8-.6Z"/>
          <g>
            <path class="st10" d="M34.7,101.2l.6.9c0,0-.2,0-.2,0l-.6-.9c0,0,.2,0,.2,0Z"/>
            <path class="st10" d="M36,98.6l1.2-.3c0,0,.2,0,.2.2l-1.2.3c0,0-.2-.1-.2-.2Z"/>
            <path class="st10" d="M35.6,101.1l1.1.9c0,0-.2,0-.3,0l-1-.9c0,0,.2,0,.3,0Z"/>
            <path class="st10" d="M35.2,98.2l.8-.5c0,0,.1,0,.2.1l-.8.5c0,0-.1,0-.2-.1Z"/>
            <path class="st10" d="M34.3,97.6l.4-.7c0,0,.1,0,.2,0l-.4.7c0,0-.1,0-.2-.1Z"/>
            <path class="st10" d="M32.6,96.7l-.3-1c0,0,.2,0,.2.1l.3,1c0,0-.2,0-.2-.1Z"/>
            <path class="st10" d="M33.8,97.3l.2-.8c0,0,.1,0,.2,0l-.2.8c0,0-.1,0-.2,0Z"/>
            <path class="st10" d="M31.3,96.2l-.7-1.2c.1,0,.2,0,.3.1l.7,1.2c-.1,0-.2,0-.3-.1Z"/>
            <path class="st10" d="M33.7,101.3v1s0,0-.1,0v-.9s0,0,.1,0Z"/>
            <path class="st10" d="M26.6,100.1l-2.5.2c0,0-.1-.1-.2-.2l2.5-.2c0,0,.1.1.2.2Z"/>
            <path class="st10" d="M27.2,95.8l-2-1.2c0,0,.2,0,.3,0l2.1,1.2c0,0-.2,0-.3,0Z"/>
            <path class="st10" d="M25.8,97.6s0,0,0,0l-2.5-.6s0,0,0,0c0,0,0,0,0-.2l2.5.6c0,0,0,0,0,.1Z"/>
            <path class="st10" d="M33.1,101.3l-.2.9h-.2l.2-.9h.2Z"/>
            <path class="st10" d="M30.6,101.3l-1.3.8c-.1,0-.2,0-.3,0l1.3-.8c.1,0,.2,0,.4,0Z"/>
            <path class="st10" d="M31.9,101.3l-.8.9c0,0-.2,0-.3,0l.8-.9c.1,0,.2,0,.3,0Z"/>
          </g>
          <path class="st1" d="M37.7,100.3c-.2,1-13.1,2.6-11.9-2.7,1.2-5.4,12.1,1.7,11.9,2.7Z"/>
        </g>
        <g>
          <path class="st5" d="M40.2,100.9c0,.7,4.9,4.4,9.7,5.9h0c2.5.8,4.4.9,5.7.2.8-.4,1.3-1.2,1.6-2.3.5-2.1-.6-3.6-3.2-4.5-5.1-1.6-13.4-.1-13.8.6Z"/>
          <g>
            <path class="st10" d="M45.7,100.7l-.6-.9c0,0,.2,0,.2,0l.6.9c0,0-.2,0-.2,0Z"/>
            <path class="st10" d="M44.5,103.3l-1.2.3c0,0-.2,0-.2-.2l1.2-.3c0,0,.2.1.2.2Z"/>
            <path class="st10" d="M44.8,100.8l-1.1-.9c0,0,.2,0,.3,0l1,.9c0,0-.2,0-.3,0Z"/>
            <path class="st10" d="M45.2,103.8l-.8.5c0,0-.1,0-.2-.1l.8-.5c0,0,.1,0,.2.1Z"/>
            <path class="st10" d="M46.1,104.3l-.4.7c0,0-.1,0-.2,0l.4-.7c0,0,.1,0,.2.1Z"/>
            <path class="st10" d="M47.8,105.2l.3,1c0,0-.2,0-.2-.1l-.3-1c0,0,.2,0,.2.1Z"/>
            <path class="st10" d="M46.7,104.6l-.2.8c0,0-.1,0-.2,0l.2-.8c0,0,.1,0,.2,0Z"/>
            <path class="st10" d="M49.2,105.7l.7,1.2c-.1,0-.2,0-.3-.1l-.7-1.2c.1,0,.2,0,.3.1Z"/>
            <path class="st10" d="M46.7,100.6v-1s0,0,.1,0v.9s0,0-.1,0Z"/>
            <path class="st10" d="M53.8,101.8l2.5-.2c0,0,.1.1.2.2l-2.5.2c0,0-.1-.1-.2-.2Z"/>
            <path class="st10" d="M53.2,106.1l2,1.2c0,0-.2,0-.3,0l-2.1-1.2c0,0,.2,0,.3,0Z"/>
            <path class="st10" d="M54.6,104.3s0,0,0,0l2.5.6s0,0,0,0c0,0,0,0,0,.2l-2.5-.6s0,0,0-.1Z"/>
            <path class="st10" d="M47.4,100.6l.2-.9h.2l-.2.9c0,0-.2,0-.2,0Z"/>
            <path class="st10" d="M49.9,100.6l1.3-.8c.1,0,.2,0,.3,0l-1.3.8c-.1,0-.2,0-.4,0Z"/>
            <path class="st10" d="M48.5,100.6l.8-.9c0,0,.2,0,.3,0l-.8.9c-.1,0-.2,0-.3,0Z"/>
          </g>
          <path class="st1" d="M42.7,101.6c.2-1,13.1-2.6,11.9,2.7-1.2,5.4-12.1-1.7-11.9-2.7Z"/>
        </g>
        <g>
          <path class="st5" d="M40.2,100.9c-.7,0-4.4,4.9-5.9,9.7h0c-.8,2.5-.9,4.4-.2,5.7.4.8,1.2,1.3,2.3,1.6,2.1.5,3.6-.6,4.5-3.2,1.6-5.1.1-13.4-.6-13.8Z"/>
          <g>
            <path class="st10" d="M40.4,106.4l.9-.6c0,0,0,.2,0,.2l-.9.6c0,0,0-.2,0-.2Z"/>
            <path class="st10" d="M37.9,105.2l-.3-1.2c0,0,0-.2.2-.2l.3,1.2c0,0-.1.1-.2.2Z"/>
            <path class="st10" d="M40.3,105.6l.9-1.1c0,0,0,.2,0,.3l-.9,1.1c0-.1,0-.2,0-.3Z"/>
            <path class="st10" d="M37.4,105.9l-.5-.8c0,0,0-.1.1-.2l.5.8c0,0,0,.1-.1.2Z"/>
            <path class="st10" d="M36.9,106.8l-.7-.4c0,0,0-.1,0-.2l.7.4c0,0,0,.1-.1.2Z"/>
            <path class="st10" d="M36,108.5l-1,.3c0,0,0-.2.1-.2l1-.3c0,0,0,.2-.1.2Z"/>
            <path class="st10" d="M36.5,107.4l-.8-.2c0,0,0-.1,0-.2l.8.2c0,0,0,.1,0,.2Z"/>
            <path class="st10" d="M35.4,109.9l-1.2.7c0-.1,0-.2.1-.3l1.2-.7c0,.1,0,.2-.1.3Z"/>
            <path class="st10" d="M40.5,107.5h1s0,0,0,.1h-1s0,0,0-.1Z"/>
            <path class="st10" d="M39.4,114.5l.2,2.5c0,0-.1.1-.2.2l-.2-2.5c0,0,.1-.1.2-.2Z"/>
            <path class="st10" d="M35.1,113.9l-1.2,2.1c0,0,0-.2,0-.3l1.2-2.1c0,0,0,.2,0,.3Z"/>
            <path class="st10" d="M36.9,115.4s0,0,0,0l-.6,2.6s0,0,0,0c0,0,0,0-.2,0l.6-2.5s0,0,.1,0Z"/>
            <path class="st10" d="M40.6,108.1l1,.2v.2l-1-.2c0,0,0-.2,0-.2Z"/>
            <path class="st10" d="M40.5,110.6l.8,1.3c0,.1,0,.2,0,.3l-.8-1.3c0-.1,0-.2,0-.3Z"/>
            <path class="st10" d="M40.6,109.2l.9.8c0,0,0,.2,0,.3l-.9-.8v-.3Z"/>
          </g>
          <path class="st1" d="M39.6,103.5c1,.2,2.6,13.1-2.7,11.9-5.4-1.2,1.7-12.1,2.7-11.9Z"/>
        </g>
        <g>
          <path class="st5" d="M40.2,100.9c.7,0,4.4-4.9,5.9-9.7h0c.8-2.5.9-4.4.2-5.7-.4-.8-1.2-1.3-2.3-1.6-2.1-.5-3.6.6-4.5,3.2-1.6,5.1-.1,13.4.6,13.8Z"/>
          <g>
            <path class="st10" d="M40,95.5l-.9.6c0,0,0-.2,0-.2l.9-.6c0,0,0,.2,0,.2Z"/>
            <path class="st10" d="M42.5,96.7l.3,1.2c0,0,0,.2-.2.2l-.3-1.2c0,0,.1-.1.2-.2Z"/>
            <path class="st10" d="M40.1,96.3l-.9,1.1c0,0,0-.2,0-.3l.9-1.1c0,0,0,.2,0,.3Z"/>
            <path class="st10" d="M43,96l.5.8c0,0,0,.1-.1.2l-.5-.8c0,0,0-.1.1-.2Z"/>
            <path class="st10" d="M43.5,95.1l.7.4c0,0,0,.1,0,.2l-.7-.4c0,0,0-.1.1-.2Z"/>
            <path class="st10" d="M44.4,93.4l1-.3c0,0,0,.2-.1.2l-1,.3c0,0,0-.2.1-.2Z"/>
            <path class="st10" d="M43.9,94.5l.8.2c0,0,0,.1,0,.2l-.8-.2c0,0,0-.1,0-.2Z"/>
            <path class="st10" d="M45,92l1.2-.7c0,.1,0,.2-.1.3l-1.2.7c0-.1,0-.2.1-.3Z"/>
            <path class="st10" d="M39.9,94.4h-1s0,0,0-.1h1s0,0,0,.1Z"/>
            <path class="st10" d="M41.1,87.4l-.2-2.5c0,0,.1-.1.2-.2l.2,2.5c0,0-.1.1-.2.2Z"/>
            <path class="st10" d="M45.3,88l1.2-2.1c0,0,0,.2,0,.3l-1.2,2.1c0,0,0-.2,0-.3Z"/>
            <path class="st10" d="M43.6,86.6s0,0,0,0l.6-2.6s0,0,0,0c0,0,0,0,.2,0l-.6,2.5s0,0-.1,0Z"/>
            <path class="st10" d="M39.8,93.8l-1-.2v-.2l1,.2c0,0,0,.2,0,.2Z"/>
            <path class="st10" d="M39.9,91.3l-.8-1.3c0-.1,0-.2,0-.3l.8,1.3c0,.1,0,.2,0,.3Z"/>
            <path class="st10" d="M39.8,92.7l-.9-.8c0,0,0-.2,0-.3l.9.8v.3Z"/>
          </g>
          <path class="st1" d="M40.8,98.4c-1-.2-2.6-13.1,2.7-11.9,5.4,1.2-1.7,12.1-2.7,11.9Z"/>
        </g>
      </g>
      <g>
        <path class="st8" d="M42.2,98.8c-.8-1.3-2.7-2.1-4.5-.5-3,2.7.9,7.5,4,5.7,3.1-1.8,2.6-5,.5-5.1h0Z"/>
        <path d="M37.4,98c1-.9,2.2-1.2,3.4-.8.7.2,1.3.7,1.7,1.3.9.1,1.6.8,1.8,1.7.3,1.3-.3,3.1-2.3,4.2-1.8,1.1-3.9,0-5-1.4-.6-.9-1-2-.8-3.1.1-.7.5-1.4,1.2-2ZM43.4,100.4c0-.3-.2-.5-.4-.7,0,0,0,0,0,0,.2.8-.1,1.6-.8,2.2-1.3,1.1-2.5.9-3.1.2-.6-.7-.6-1.8.1-2.4.2-.2.5-.2.7,0,.2.2.2.5,0,.7-.4.4-.3.9,0,1.2.3.3,1,.4,1.8-.3.5-.4.5-.9.4-1.3,0-.2-.1-.5-.3-.7,0,0,0,0,0,0-.3-.5-.8-.9-1.3-1.1-.6-.2-1.5-.3-2.5.6-1.3,1.2-1,2.8-.3,3.8.8,1.2,2.4,1.9,3.8,1.2,1.2-.7,1.8-1.6,1.9-2.4,0-.3,0-.6,0-.9Z"/>
      </g>
    </g>
  </g>
  <text class="st11" transform="translate(94.9 69.4)"><tspan x="0" y="0">User</tspan><tspan x="-21" y="19.5">Interface</tspan></text>
</svg>