<?xml version="1.0" encoding="utf-8"?>
<!-- Generator: Adobe Illustrator 26.0.3, SVG Export Plug-In . SVG Version: 6.00 Build 0)  -->
<svg version="1.1" id="UX" xmlns="http://www.w3.org/2000/svg" xmlns:xlink="http://www.w3.org/1999/xlink" x="0px" y="0px"
	 viewBox="0 0 260 120" style="enable-background:new 0 0 260 120;" xml:space="preserve">
<style type="text/css">
	.st0{fill:#FFFFFF;stroke:#231F20;stroke-width:0.782;stroke-miterlimit:10;}
	.st1{fill:#EE3F23;stroke:#000000;stroke-width:0.8282;stroke-miterlimit:10;}
	.st2{fill:#FFFFFF;stroke:#231F20;stroke-width:0.7923;stroke-miterlimit:10;}
	.st3{fill:none;stroke:#000000;stroke-width:0.7923;stroke-miterlimit:10;}
	.st4{fill:#FFFFFF;}
	.st5{fill:#231F20;}
	.st6{fill:#97D7E3;stroke:#000000;stroke-width:0.7923;stroke-miterlimit:10;}
	.st7{fill:#EE3F23;}
	.st8{fill:#FFFFFF;stroke:#231F20;stroke-width:0.4371;stroke-miterlimit:10;}
	.st9{fill:none;stroke:#000000;stroke-width:0.4371;stroke-miterlimit:10;}
	.st10{fill:#97D7E3;stroke:#000000;stroke-width:0.4371;stroke-miterlimit:10;}
</style>
<g>
	<g>
		<g>
			<path class="st0" d="M58.16,43.01h162.81c13.11,0,23.73,10.62,23.73,23.73v13.88c0,13.11-10.62,23.73-23.73,23.73H58.16
				c-13.11,0-23.73-10.62-23.73-23.73V66.74C34.43,53.63,45.06,43.01,58.16,43.01z"/>
			<path class="st1" d="M60.33,47.4h158.48c11.88,0,21.5,9.63,21.5,21.5v9.56c0,11.88-9.63,21.5-21.5,21.5H60.33
				c-11.88,0-21.5-9.63-21.5-21.5V68.9C38.82,57.03,48.45,47.4,60.33,47.4z"/>
		</g>
		<g>
			<path class="st2" d="M47.88,35.84c0,0-32.04,16.67-29.91,36.26c2.25,20.73,16.7,30.24,50.1,26.74l-5.36-5
				c0,0-26.93,2.53-22-22.21c2.55-12.8,18.12-15.95,18.12-15.95L47.88,35.84z"/>
			<path class="st3" d="M54.84,45.47c0,0-20.62,12.38-23.43,24.5c-2.31,9.94,2.59,25.37,26.86,25.77"/>
			<path class="st3" d="M41.21,50.54c0,0-11.49,6.67-14.85,20.29c-3.18,12.89,10.93,28.59,33.25,25.23"/>
			<path class="st3" d="M54.04,52.72c0,0-16.11,6.33-18.08,21.06c-1.45,10.86,3.62,19.45,21.35,20.86"/>
			<g>
				<path class="st4" d="M61.59,97.63c-4.07,1.17-8.6,0.68-16.29-0.66C9.25,90.64,7.84,49.23,45.56,39.28l0.42-16.31
					c-62.9,16.99-52.63,76.59-5.95,84.72c46.39,8.09,41.77-35.25,22.37-29.21C49.11,82.62,52.95,100.55,61.59,97.63z"/>
				<path class="st5" d="M44.01,23.11c0.62-0.18,1.24-0.35,1.88-0.53c0.12-0.03,0.25-0.01,0.35,0.07c0.1,0.08,0.15,0.2,0.15,0.32
					l-0.42,16.31c0,0.18-0.1,0.3-0.3,0.37c-17.26,4.56-28.07,16.55-27.48,30.56c0.56,13.21,10.66,25.21,26.62,28.01
					c5.34,0.94,8.19,0.15,12.75-0.37c-0.5-0.23-0.98-0.54-1.42-0.94c-2.32-2.08-3.33-6-2.52-9.77c0.94-4.33,4.1-7.63,8.67-9.05
					c4.62-1.43,8.86-0.24,11.64,3.29c3.58,4.55,3.76,11.62,0.43,17.2c-2.52,4.22-10.91,13.59-34.4,9.49
					c-22.1-3.85-37.54-19.46-38.42-38.85C0.8,52.99,11.63,32.51,44.01,23.11z M45.58,23.49c-33,9.1-43.98,29.54-43.24,45.7
					C3.21,88.2,18.38,103.51,40.1,107.3c23.01,4.01,31.15-5.04,33.58-9.12c3.16-5.3,3.01-12.01-0.38-16.3
					c-2.57-3.26-6.5-4.37-10.78-3.02c-5.88,1.83-7.62,6.09-8.14,8.46c-0.75,3.45,0.19,7.15,2.27,9.02c1.11,0.99,2.43,1.38,3.87,1.15
					c0.32-0.07,0.63-0.15,0.95-0.24c0.21-0.06,0.42,0.06,0.49,0.26c0.06,0.21-0.05,0.42-0.25,0.49c-0.33,0.11-0.67,0.2-1,0.25
					c-3.86,0.85-9.23,1.7-16.49,0.42c-16.34-2.87-26.27-14.83-26.84-28.42c-0.6-14.31,10.3-26.55,27.79-31.28L45.58,23.49z"/>
			</g>
			<path class="st5" d="M62.55,80.95c-9.46,2.86-5.92,15.58,0.68,13.51c5.88-1.84,4.38-8.84-1.16-6.65c0,0-0.2,0.11-0.19,0.35
				c0.01,0.25,0.22,0.24,0.22,0.24l0,0.01c4.26-1.53,5.31,3.39,0.78,4.67c-5.09,1.44-4.23-6.64,0.36-7.81
				c5.8-2.1,10.58,9.05-1.78,11.98c-3.91,0.92-10.29,1.77-18.35,0.07c-28.82-6.1-28.66-44.13,7.01-53.82l-2.31-14.27
				c-53.01,3.96-56.94,66.62-6.58,75.38C82.7,111.81,78.16,76.24,62.55,80.95z"/>
			<g>
				<g>
					<g>
						<path class="st2" d="M49.56,56.65c-0.08,4.97,1.87,7.7,5.79,8.11c1.97,0.21,3.6-0.26,4.82-1.39c1.87-1.74,2.89-5.13,2.96-9.81
							l0,0c0.14-9.11-3.26-19.75-4.5-20.17C57.15,33.57,49.71,46.93,49.56,56.65z"/>
					</g>
					<g>
						<path class="st5" d="M55.02,42.67l-1.27-1.57c-0.06,0.13-0.12,0.26-0.18,0.39l1.26,1.56C54.9,42.92,54.96,42.8,55.02,42.67z"
							/>
						<path class="st5" d="M60.12,42.03l1.26-1.87c-0.04-0.17-0.09-0.33-0.13-0.49l-1.27,1.89C60.03,41.71,60.08,41.87,60.12,42.03z
							"/>
						<path class="st5" d="M55.76,41.25l-0.94-2.35c-0.08,0.15-0.15,0.3-0.23,0.46l0.93,2.33C55.6,41.54,55.68,41.39,55.76,41.25z"
							/>
						<path class="st5" d="M60.53,43.56l1.39-1.12c-0.03-0.14-0.06-0.28-0.09-0.42l-1.4,1.13C60.46,43.28,60.49,43.42,60.53,43.56z"
							/>
						<path class="st5" d="M60.93,45.41l1.51-0.29c-0.02-0.13-0.04-0.25-0.06-0.38l-1.52,0.3C60.88,45.16,60.9,45.29,60.93,45.41z"
							/>
						<path class="st5" d="M61.42,48.84l1.59,1.07c-0.01-0.16-0.03-0.33-0.04-0.49l-1.61-1.08C61.39,48.51,61.41,48.68,61.42,48.84z
							"/>
						<path class="st5" d="M61.13,46.6l1.55,0.17c-0.02-0.13-0.04-0.26-0.06-0.39l-1.56-0.17C61.09,46.34,61.11,46.47,61.13,46.6z"
							/>
						<path class="st5" d="M61.57,51.56l1.56,1.93c0-0.2,0-0.4,0-0.61l-1.57-1.95C61.57,51.14,61.57,51.35,61.57,51.56z"/>
						<path class="st5" d="M54.24,44.37l-1.6-0.69c-0.05,0.12-0.1,0.24-0.14,0.36l1.59,0.68C54.14,44.6,54.19,44.49,54.24,44.37z"/>
						<path class="st5" d="M52.13,57.17l-1.79,4.16c0.07,0.16,0.15,0.3,0.22,0.45l1.77-4.12C52.26,57.51,52.2,57.34,52.13,57.17z"/>
						<path class="st5" d="M59.8,58.67l0.82,4.22c0.11-0.13,0.21-0.26,0.31-0.4l-0.82-4.23C60.01,58.41,59.91,58.54,59.8,58.67z"/>
						<path class="st5" d="M55.94,60.07c-0.07-0.01-0.13-0.02-0.19-0.03l-0.5,4.71c0.04,0,0.07,0.01,0.11,0.02
							c0.09,0.01,0.18,0.01,0.28,0.02l0.5-4.7C56.07,60.08,56,60.07,55.94,60.07z"/>
						<path class="st5" d="M53.8,45.43l-1.76-0.19c-0.05,0.12-0.09,0.25-0.13,0.37l1.75,0.19C53.71,45.68,53.76,45.56,53.8,45.43z"
							/>
						<path class="st5" d="M52.39,49.75l-2.19,1.77c-0.04,0.2-0.08,0.39-0.12,0.59l2.17-1.75C52.29,50.16,52.34,49.95,52.39,49.75z"
							/>
						<path class="st5" d="M53.1,47.36l-2.04,0.81c-0.05,0.16-0.09,0.31-0.14,0.47l2.02-0.81C52.99,47.68,53.04,47.52,53.1,47.36z"
							/>
					</g>
					<path class="st6" d="M58.25,38.11c-1.83-0.19-12.2,20.9-2.31,21.95C65.83,61.12,60.07,38.31,58.25,38.11z"/>
				</g>
				<g>
					<g>
						<path class="st2" d="M67.71,10.13c0.08-4.97-1.87-7.7-5.79-8.11c-1.97-0.21-3.6,0.26-4.82,1.39
							c-1.87,1.74-2.89,5.13-2.96,9.81l0,0c-0.14,9.11,3.26,19.75,4.5,20.17C60.12,33.22,67.56,19.85,67.71,10.13z"/>
					</g>
					<g>
						<path class="st5" d="M62.25,24.12l1.27,1.57c0.06-0.13,0.12-0.26,0.18-0.39l-1.26-1.56C62.37,23.86,62.31,23.99,62.25,24.12z"
							/>
						<path class="st5" d="M57.15,24.75l-1.26,1.87c0.04,0.17,0.09,0.33,0.13,0.49l1.27-1.89C57.24,25.07,57.2,24.92,57.15,24.75z"
							/>
						<path class="st5" d="M61.51,25.54l0.94,2.35c0.08-0.15,0.15-0.3,0.23-0.46l-0.93-2.33C61.67,25.25,61.59,25.4,61.51,25.54z"/>
						<path class="st5" d="M56.75,23.23l-1.39,1.12c0.03,0.14,0.06,0.28,0.09,0.42l1.4-1.13C56.81,23.51,56.78,23.37,56.75,23.23z"
							/>
						<path class="st5" d="M56.35,21.38l-1.51,0.29c0.02,0.13,0.04,0.25,0.06,0.38l1.52-0.3C56.4,21.63,56.37,21.5,56.35,21.38z"/>
						<path class="st5" d="M55.85,17.95l-1.59-1.07c0.01,0.16,0.03,0.33,0.04,0.49l1.61,1.08C55.88,18.28,55.87,18.11,55.85,17.95z"
							/>
						<path class="st5" d="M56.14,20.18l-1.55-0.17c0.02,0.13,0.04,0.26,0.06,0.39l1.56,0.17C56.18,20.45,56.16,20.32,56.14,20.18z"
							/>
						<path class="st5" d="M55.7,15.23l-1.56-1.93c0,0.2,0,0.4,0,0.61l1.57,1.95C55.7,15.65,55.7,15.44,55.7,15.23z"/>
						<path class="st5" d="M63.03,22.42l1.6,0.69c0.05-0.12,0.1-0.24,0.14-0.35l-1.59-0.68C63.13,22.18,63.08,22.3,63.03,22.42z"/>
						<path class="st5" d="M65.14,9.62l1.79-4.16c-0.07-0.16-0.15-0.3-0.22-0.45l-1.77,4.12C65.01,9.28,65.08,9.45,65.14,9.62z"/>
						<path class="st5" d="M57.47,8.12L56.65,3.9c-0.11,0.13-0.21,0.26-0.31,0.4l0.82,4.23C57.26,8.38,57.36,8.24,57.47,8.12z"/>
						<path class="st5" d="M61.33,6.72c0.07,0.01,0.13,0.02,0.19,0.03l0.5-4.71c-0.04,0-0.07-0.01-0.11-0.02
							C61.83,2.01,61.74,2.01,61.65,2l-0.5,4.7C61.21,6.71,61.27,6.71,61.33,6.72z"/>
						<path class="st5" d="M63.47,21.35l1.76,0.19c0.05-0.12,0.09-0.25,0.13-0.37l-1.75-0.19C63.56,21.11,63.52,21.23,63.47,21.35z"
							/>
						<path class="st5" d="M64.88,17.04l2.19-1.77c0.04-0.2,0.08-0.39,0.12-0.59l-2.17,1.75C64.98,16.63,64.93,16.84,64.88,17.04z"
							/>
						<path class="st5" d="M64.18,19.43l2.04-0.81c0.05-0.16,0.09-0.31,0.14-0.47l-2.02,0.81C64.28,19.11,64.23,19.27,64.18,19.43z"
							/>
					</g>
					<path class="st6" d="M59.03,28.67c1.83,0.19,12.2-20.9,2.31-21.95C51.44,5.67,57.2,28.48,59.03,28.67z"/>
				</g>
				<g>
					<g>
						<path class="st2" d="M35.38,24.32c-4.97-0.08-7.7,1.87-8.11,5.79c-0.21,1.97,0.26,3.6,1.39,4.82
							c1.74,1.87,5.13,2.89,9.81,2.96l0,0c9.11,0.14,19.75-3.26,20.17-4.5C58.46,31.91,45.1,24.47,35.38,24.32z"/>
					</g>
					<g>
						<path class="st5" d="M49.36,29.78l1.57-1.27c-0.13-0.06-0.26-0.12-0.39-0.18l-1.57,1.26C49.11,29.66,49.23,29.72,49.36,29.78z
							"/>
						<path class="st5" d="M50,34.88l1.87,1.26c0.17-0.04,0.33-0.09,0.49-0.13l-1.89-1.27C50.32,34.79,50.16,34.83,50,34.88z"/>
						<path class="st5" d="M50.78,30.52l2.35-0.94c-0.15-0.08-0.3-0.15-0.46-0.23l-2.33,0.93C50.49,30.36,50.64,30.44,50.78,30.52z"
							/>
						<path class="st5" d="M48.47,35.28l1.12,1.39c0.14-0.03,0.28-0.06,0.42-0.09l-1.13-1.4C48.75,35.22,48.61,35.25,48.47,35.28z"
							/>
						<path class="st5" d="M46.62,35.68l0.29,1.51c0.13-0.02,0.25-0.04,0.38-0.06l-0.3-1.52C46.87,35.63,46.74,35.66,46.62,35.68z"
							/>
						<path class="st5" d="M43.19,36.18l-1.07,1.59c0.16-0.01,0.33-0.03,0.49-0.04l1.08-1.61C43.52,36.15,43.35,36.16,43.19,36.18z"
							/>
						<path class="st5" d="M45.43,35.89l-0.17,1.55c0.13-0.02,0.26-0.04,0.39-0.06l0.17-1.56C45.69,35.85,45.56,35.87,45.43,35.89z"
							/>
						<path class="st5" d="M40.47,36.33l-1.93,1.56c0.2,0,0.4,0,0.61,0l1.95-1.57C40.89,36.33,40.68,36.33,40.47,36.33z"/>
						<path class="st5" d="M47.66,29l0.69-1.6c-0.12-0.05-0.24-0.1-0.36-0.14l-0.68,1.59C47.43,28.9,47.54,28.95,47.66,29z"/>
						<path class="st5" d="M34.86,26.89L30.7,25.1c-0.16,0.07-0.3,0.15-0.45,0.22l4.12,1.77C34.52,27.02,34.69,26.95,34.86,26.89z"
							/>
						<path class="st5" d="M33.36,34.56l-4.22,0.82c0.13,0.11,0.26,0.21,0.4,0.31l4.23-0.82C33.62,34.77,33.49,34.67,33.36,34.56z"
							/>
						<path class="st5" d="M31.96,30.7c0.01-0.07,0.02-0.13,0.03-0.19L27.28,30c0,0.04-0.01,0.07-0.02,0.11
							c-0.01,0.09-0.01,0.18-0.02,0.28l4.7,0.5C31.95,30.82,31.96,30.76,31.96,30.7z"/>
						<path class="st5" d="M46.6,28.56l0.19-1.76c-0.12-0.05-0.25-0.09-0.37-0.13l-0.19,1.75C46.35,28.47,46.47,28.51,46.6,28.56z"
							/>
						<path class="st5" d="M42.28,27.15l-1.77-2.19c-0.2-0.04-0.39-0.08-0.59-0.12L41.67,27C41.87,27.05,42.08,27.1,42.28,27.15z"/>
						<path class="st5" d="M44.67,27.85l-0.81-2.04c-0.16-0.05-0.31-0.09-0.47-0.14l0.81,2.02C44.35,27.75,44.51,27.8,44.67,27.85z"
							/>
					</g>
					<path class="st6" d="M53.92,33c0.19-1.83-20.9-12.2-21.95-2.31C30.91,40.59,53.72,34.83,53.92,33z"/>
				</g>
				<g>
					<g>
						<path class="st2" d="M81.89,42.47c4.97,0.08,7.7-1.87,8.11-5.79c0.21-1.97-0.26-3.6-1.39-4.82c-1.74-1.87-5.13-2.89-9.81-2.97
							l0,0c-9.11-0.14-19.75,3.26-20.17,4.5C58.81,34.88,72.18,42.32,81.89,42.47z"/>
					</g>
					<g>
						<path class="st5" d="M67.91,37.01l-1.57,1.27c0.13,0.06,0.26,0.12,0.39,0.18l1.56-1.26C68.17,37.13,68.04,37.07,67.91,37.01z"
							/>
						<path class="st5" d="M67.28,31.91l-1.87-1.26c-0.17,0.04-0.33,0.09-0.49,0.13l1.89,1.27C66.96,32,67.11,31.95,67.28,31.91z"/>
						<path class="st5" d="M66.49,36.27l-2.35,0.94c0.15,0.08,0.3,0.15,0.46,0.23l2.33-0.93C66.78,36.43,66.63,36.35,66.49,36.27z"
							/>
						<path class="st5" d="M68.8,31.5l-1.12-1.39c-0.14,0.03-0.28,0.06-0.42,0.09l1.13,1.4C68.52,31.57,68.66,31.54,68.8,31.5z"/>
						<path class="st5" d="M70.65,31.1l-0.29-1.51c-0.13,0.02-0.25,0.04-0.38,0.06l0.3,1.52C70.4,31.15,70.53,31.13,70.65,31.1z"/>
						<path class="st5" d="M74.08,30.61l1.07-1.59c-0.16,0.01-0.33,0.03-0.49,0.04l-1.08,1.61C73.75,30.64,73.92,30.62,74.08,30.61z
							"/>
						<path class="st5" d="M71.85,30.9l0.17-1.55c-0.13,0.02-0.26,0.04-0.39,0.06l-0.17,1.56C71.58,30.94,71.71,30.92,71.85,30.9z"
							/>
						<path class="st5" d="M76.8,30.46l1.93-1.56c-0.2,0-0.4,0-0.61,0l-1.95,1.57C76.38,30.46,76.59,30.46,76.8,30.46z"/>
						<path class="st5" d="M69.61,37.79l-0.69,1.6c0.12,0.05,0.24,0.1,0.36,0.14l0.68-1.59C69.85,37.89,69.73,37.84,69.61,37.79z"/>
						<path class="st5" d="M82.41,39.9l4.16,1.79c0.16-0.07,0.3-0.15,0.45-0.22l-4.12-1.77C82.75,39.77,82.58,39.83,82.41,39.9z"/>
						<path class="st5" d="M83.91,32.23l4.22-0.82c-0.13-0.11-0.26-0.21-0.4-0.31l-4.23,0.82C83.65,32.02,83.79,32.12,83.91,32.23z"
							/>
						<path class="st5" d="M85.31,36.09c-0.01,0.07-0.02,0.13-0.03,0.19l4.71,0.5c0-0.04,0.01-0.07,0.02-0.11
							c0.01-0.09,0.01-0.18,0.02-0.28l-4.7-0.5C85.32,35.96,85.32,36.03,85.31,36.09z"/>
						<path class="st5" d="M70.68,38.23l-0.19,1.76c0.12,0.05,0.25,0.09,0.37,0.13l0.19-1.75C70.92,38.32,70.8,38.27,70.68,38.23z"
							/>
						<path class="st5" d="M74.99,39.64l1.77,2.19c0.2,0.04,0.39,0.08,0.59,0.12l-1.75-2.17C75.4,39.74,75.19,39.69,74.99,39.64z"/>
						<path class="st5" d="M72.6,38.93l0.81,2.04c0.16,0.05,0.31,0.09,0.47,0.14l-0.81-2.02C72.92,39.04,72.76,38.99,72.6,38.93z"/>
					</g>
					<path class="st6" d="M63.36,33.78c-0.19,1.83,20.9,12.2,21.95,2.31C86.36,26.2,63.55,31.96,63.36,33.78z"/>
				</g>
				<g>
					<g>
						<path class="st2" d="M35.77,43.42c-3.57,3.46-4.12,6.77-1.64,9.83c1.25,1.54,2.73,2.36,4.39,2.42
							c2.55,0.09,5.67-1.58,9.03-4.84l0,0c6.54-6.34,11.65-16.27,11.08-17.44C57.46,32.47,42.75,36.66,35.77,43.42z"/>
					</g>
					<g>
						<path class="st5" d="M49.52,37.4l0.22-2.01c-0.13,0.05-0.27,0.1-0.4,0.15l-0.21,2C49.26,37.49,49.39,37.44,49.52,37.4z"/>
						<path class="st5" d="M53.58,40.55l2.22-0.43c0.09-0.15,0.17-0.29,0.26-0.44l-2.24,0.44C53.74,40.26,53.66,40.41,53.58,40.55z"
							/>
						<path class="st5" d="M51.05,36.91l1-2.32c-0.16,0.05-0.32,0.11-0.49,0.16l-0.99,2.31C50.73,37.01,50.89,36.96,51.05,36.91z"/>
						<path class="st5" d="M52.79,41.92l1.78,0.19c0.08-0.12,0.15-0.24,0.23-0.36L53,41.55C52.93,41.67,52.86,41.79,52.79,41.92z"/>
						<path class="st5" d="M51.76,43.51l1.27,0.86c0.07-0.1,0.15-0.21,0.22-0.31l-1.28-0.86C51.9,43.3,51.83,43.4,51.76,43.51z"/>
						<path class="st5" d="M49.68,46.29l0.37,1.89c0.11-0.12,0.21-0.25,0.32-0.37L50,45.9C49.89,46.03,49.79,46.16,49.68,46.29z"/>
						<path class="st5" d="M51.06,44.5l0.98,1.21c0.08-0.11,0.16-0.21,0.24-0.32l-0.98-1.22C51.22,44.28,51.14,44.39,51.06,44.5z"/>
						<path class="st5" d="M47.87,48.31l-0.26,2.47c0.14-0.14,0.29-0.28,0.43-0.43l0.27-2.49C48.16,48.02,48.02,48.17,47.87,48.31z"
							/>
						<path class="st5" d="M47.77,38.05l-0.64-1.62c-0.12,0.05-0.23,0.1-0.35,0.15l0.64,1.61C47.53,38.14,47.65,38.1,47.77,38.05z"
							/>
						<path class="st5" d="M37.23,45.61l-4.21,1.68c-0.06,0.16-0.11,0.32-0.16,0.48l4.16-1.66C37.08,45.94,37.15,45.77,37.23,45.61z
							"/>
						<path class="st5" d="M41.59,52.09l-2.4,3.56c0.17-0.01,0.33-0.03,0.5-0.06l2.41-3.57C41.92,52.05,41.75,52.08,41.59,52.09z"/>
						<path class="st5" d="M37.87,50.35c-0.04-0.05-0.08-0.1-0.12-0.15l-3.69,2.97c0.02,0.03,0.04,0.06,0.06,0.09
							c0.06,0.07,0.12,0.14,0.18,0.21l3.68-2.97C37.95,50.44,37.91,50.4,37.87,50.35z"/>
						<path class="st5" d="M46.71,38.49l-1.11-1.38c-0.12,0.05-0.24,0.11-0.36,0.17l1.11,1.37C46.46,38.6,46.59,38.54,46.71,38.49z"
							/>
						<path class="st5" d="M42.65,40.54l-2.8-0.3c-0.17,0.11-0.34,0.22-0.5,0.33l2.77,0.3C42.3,40.76,42.47,40.65,42.65,40.54z"/>
						<path class="st5" d="M44.84,39.35l-2.02-0.87c-0.14,0.08-0.29,0.15-0.43,0.23l2,0.86C44.54,39.5,44.69,39.43,44.84,39.35z"/>
					</g>
					<path class="st6" d="M55.02,36.46c-1.16-1.43-23.41,6.15-17.15,13.89C44.12,58.09,56.18,37.89,55.02,36.46z"/>
				</g>
				<g>
					<g>
						<path class="st2" d="M81.5,23.36c3.57-3.46,4.12-6.77,1.64-9.83c-1.25-1.54-2.72-2.36-4.39-2.42
							c-2.55-0.09-5.67,1.58-9.03,4.84l0,0c-6.54,6.34-11.65,16.27-11.08,17.44C59.81,34.32,74.52,30.13,81.5,23.36z"/>
					</g>
					<g>
						<path class="st5" d="M67.75,29.39l-0.22,2.01c0.13-0.05,0.27-0.1,0.4-0.15l0.21-2C68.02,29.3,67.88,29.34,67.75,29.39z"/>
						<path class="st5" d="M63.69,26.23l-2.22,0.43c-0.09,0.15-0.17,0.29-0.26,0.44l2.24-0.44C63.53,26.53,63.61,26.38,63.69,26.23z
							"/>
						<path class="st5" d="M66.22,29.87l-1,2.32c0.16-0.05,0.32-0.11,0.49-0.16l0.99-2.31C66.54,29.78,66.38,29.83,66.22,29.87z"/>
						<path class="st5" d="M64.49,24.87l-1.78-0.19c-0.08,0.12-0.15,0.24-0.23,0.36l1.79,0.19C64.34,25.11,64.41,24.99,64.49,24.87z
							"/>
						<path class="st5" d="M65.52,23.28l-1.27-0.86c-0.07,0.1-0.15,0.21-0.22,0.31l1.28,0.86C65.37,23.49,65.44,23.38,65.52,23.28z"
							/>
						<path class="st5" d="M67.59,20.5l-0.37-1.89c-0.11,0.12-0.21,0.25-0.32,0.37l0.37,1.9C67.38,20.76,67.48,20.63,67.59,20.5z"/>
						<path class="st5" d="M66.21,22.29l-0.98-1.21c-0.08,0.11-0.16,0.21-0.24,0.32l0.98,1.22C66.06,22.5,66.13,22.4,66.21,22.29z"
							/>
						<path class="st5" d="M69.4,18.47L69.67,16c-0.14,0.14-0.29,0.28-0.43,0.43l-0.27,2.49C69.11,18.77,69.25,18.62,69.4,18.47z"/>
						<path class="st5" d="M69.5,28.74l0.64,1.62c0.12-0.05,0.23-0.1,0.35-0.15l-0.64-1.61C69.74,28.64,69.62,28.69,69.5,28.74z"/>
						<path class="st5" d="M80.04,21.18l4.21-1.68c0.06-0.16,0.11-0.32,0.16-0.48l-4.16,1.66C80.19,20.85,80.12,21.02,80.04,21.18z"
							/>
						<path class="st5" d="M75.69,14.7l2.4-3.56c-0.17,0.01-0.33,0.03-0.5,0.06l-2.41,3.57C75.35,14.73,75.52,14.71,75.69,14.7z"/>
						<path class="st5" d="M79.4,16.44c0.04,0.05,0.08,0.1,0.11,0.15l3.69-2.97c-0.02-0.03-0.04-0.06-0.06-0.09
							c-0.06-0.07-0.12-0.14-0.18-0.21l-3.68,2.97C79.32,16.34,79.36,16.39,79.4,16.44z"/>
						<path class="st5" d="M70.57,28.3l1.11,1.38c0.12-0.05,0.24-0.11,0.36-0.17l-1.11-1.37C70.81,28.19,70.69,28.24,70.57,28.3z"/>
						<path class="st5" d="M74.62,26.25l2.8,0.3c0.17-0.11,0.34-0.22,0.5-0.33l-2.77-0.3C74.98,26.03,74.8,26.14,74.62,26.25z"/>
						<path class="st5" d="M72.43,27.43l2.02,0.87c0.14-0.08,0.29-0.15,0.43-0.23l-2-0.86C72.73,27.29,72.58,27.36,72.43,27.43z"/>
					</g>
					<path class="st6" d="M62.25,30.33c1.16,1.43,23.41-6.15,17.15-13.89C73.15,8.7,61.1,28.9,62.25,30.33z"/>
				</g>
				<g>
					<g>
						<path class="st2" d="M48.61,10.53c-3.46-3.57-6.77-4.12-9.83-1.64c-1.54,1.25-2.36,2.73-2.42,4.39
							c-0.09,2.55,1.58,5.67,4.84,9.03l0,0c6.34,6.54,16.27,11.65,17.44,11.08C59.56,32.22,55.37,17.51,48.61,10.53z"/>
					</g>
					<g>
						<path class="st5" d="M54.63,24.28l2.01,0.22c-0.05-0.13-0.1-0.27-0.15-0.4l-2-0.21C54.54,24.01,54.58,24.15,54.63,24.28z"/>
						<path class="st5" d="M51.48,28.34l0.43,2.22c0.15,0.09,0.29,0.17,0.44,0.26l-0.44-2.24C51.77,28.5,51.62,28.42,51.48,28.34z"
							/>
						<path class="st5" d="M55.12,25.81l2.32,1c-0.05-0.16-0.11-0.32-0.16-0.48l-2.31-0.99C55.02,25.49,55.07,25.65,55.12,25.81z"/>
						<path class="st5" d="M50.11,27.54l-0.19,1.78c0.12,0.08,0.24,0.15,0.36,0.23l0.19-1.79C50.36,27.69,50.24,27.62,50.11,27.54z"
							/>
						<path class="st5" d="M48.52,26.51l-0.86,1.27c0.1,0.07,0.21,0.15,0.31,0.22l0.86-1.28C48.73,26.66,48.63,26.59,48.52,26.51z"
							/>
						<path class="st5" d="M45.74,24.44l-1.89,0.37c0.12,0.11,0.25,0.21,0.37,0.32l1.9-0.37C46,24.65,45.87,24.55,45.74,24.44z"/>
						<path class="st5" d="M47.53,25.82l-1.21,0.98c0.11,0.08,0.21,0.16,0.32,0.24l1.22-0.98C47.74,25.97,47.64,25.9,47.53,25.82z"
							/>
						<path class="st5" d="M43.72,22.63l-2.47-0.26c0.14,0.14,0.28,0.29,0.43,0.43l2.49,0.27C44.01,22.92,43.86,22.77,43.72,22.63z"
							/>
						<path class="st5" d="M53.98,22.53l1.62-0.64c-0.05-0.12-0.1-0.23-0.15-0.35l-1.61,0.64C53.89,22.29,53.93,22.41,53.98,22.53z"
							/>
						<path class="st5" d="M46.42,11.99l-1.68-4.21c-0.16-0.06-0.32-0.11-0.48-0.16l1.66,4.16C46.09,11.84,46.26,11.91,46.42,11.99z
							"/>
						<path class="st5" d="M39.94,16.34l-3.56-2.4c0.01,0.16,0.03,0.33,0.06,0.5l3.57,2.41C39.98,16.68,39.95,16.51,39.94,16.34z"/>
						<path class="st5" d="M41.68,12.63c0.05-0.04,0.1-0.08,0.15-0.11l-2.97-3.69c-0.03,0.02-0.06,0.04-0.09,0.06
							c-0.07,0.06-0.14,0.12-0.21,0.18l2.97,3.68C41.59,12.71,41.63,12.67,41.68,12.63z"/>
						<path class="st5" d="M53.54,21.46l1.38-1.11c-0.05-0.12-0.11-0.24-0.17-0.36l-1.37,1.11C53.43,21.22,53.49,21.34,53.54,21.46z
							"/>
						<path class="st5" d="M51.49,17.41l0.3-2.8c-0.11-0.17-0.22-0.34-0.33-0.5l-0.3,2.77C51.27,17.05,51.38,17.23,51.49,17.41z"/>
						<path class="st5" d="M52.68,19.6l0.87-2.02c-0.08-0.14-0.15-0.29-0.23-0.43l-0.86,2C52.53,19.3,52.6,19.45,52.68,19.6z"/>
					</g>
					<path class="st6" d="M55.57,29.78C57,28.62,49.42,6.37,41.68,12.63C33.94,18.88,54.14,30.93,55.57,29.78z"/>
				</g>
				<g>
					<g>
						<path class="st2" d="M68.67,56.26c3.46,3.57,6.76,4.12,9.83,1.64c1.54-1.25,2.36-2.72,2.42-4.39
							c0.09-2.55-1.58-5.67-4.84-9.03l0,0c-6.34-6.54-16.27-11.65-17.44-11.08C57.71,34.57,61.9,49.28,68.67,56.26z"/>
					</g>
					<g>
						<path class="st5" d="M62.64,42.51l-2.01-0.22c0.05,0.13,0.1,0.27,0.15,0.4l2,0.21C62.73,42.77,62.69,42.64,62.64,42.51z"/>
						<path class="st5" d="M65.8,38.45l-0.43-2.22c-0.15-0.09-0.29-0.17-0.44-0.26l0.44,2.24C65.5,38.29,65.65,38.37,65.8,38.45z"/>
						<path class="st5" d="M62.16,40.98l-2.32-1c0.05,0.16,0.11,0.32,0.16,0.49l2.31,0.99C62.25,41.3,62.2,41.14,62.16,40.98z"/>
						<path class="st5" d="M67.16,39.24l0.19-1.78c-0.12-0.08-0.24-0.15-0.36-0.23l-0.19,1.79C66.92,39.1,67.04,39.17,67.16,39.24z"
							/>
						<path class="st5" d="M68.75,40.27L69.61,39c-0.1-0.07-0.21-0.15-0.31-0.22l-0.86,1.28C68.54,40.13,68.65,40.2,68.75,40.27z"/>
						<path class="st5" d="M71.53,42.35l1.89-0.37c-0.12-0.11-0.25-0.21-0.37-0.32l-1.9,0.37C71.27,42.14,71.4,42.24,71.53,42.35z"
							/>
						<path class="st5" d="M69.74,40.97l1.21-0.98c-0.11-0.08-0.21-0.16-0.32-0.24l-1.22,0.98C69.53,40.81,69.63,40.89,69.74,40.97z
							"/>
						<path class="st5" d="M73.56,44.16l2.47,0.26c-0.14-0.14-0.28-0.29-0.43-0.43l-2.49-0.27C73.26,43.87,73.41,44.01,73.56,44.16z
							"/>
						<path class="st5" d="M63.29,44.26l-1.62,0.64c0.05,0.12,0.1,0.23,0.15,0.35l1.61-0.64C63.39,44.5,63.34,44.38,63.29,44.26z"/>
						<path class="st5" d="M70.85,54.8l1.68,4.21c0.16,0.06,0.32,0.11,0.48,0.16l-1.66-4.16C71.18,54.95,71.01,54.88,70.85,54.8z"/>
						<path class="st5" d="M77.33,50.44l3.56,2.4c-0.01-0.17-0.03-0.33-0.06-0.5l-3.57-2.41C77.3,50.11,77.32,50.28,77.33,50.44z"/>
						<path class="st5" d="M75.59,54.16c-0.05,0.04-0.1,0.08-0.15,0.12l2.97,3.69c0.03-0.02,0.06-0.04,0.09-0.06
							c0.07-0.06,0.14-0.12,0.21-0.18l-2.97-3.68C75.69,54.08,75.64,54.12,75.59,54.16z"/>
						<path class="st5" d="M63.73,45.32l-1.38,1.11c0.05,0.12,0.11,0.24,0.17,0.36l1.37-1.11C63.84,45.57,63.79,45.44,63.73,45.32z"
							/>
						<path class="st5" d="M65.78,49.38l-0.3,2.8c0.11,0.17,0.22,0.34,0.33,0.5l0.3-2.77C66,49.73,65.89,49.56,65.78,49.38z"/>
						<path class="st5" d="M64.6,47.19l-0.87,2.02c0.08,0.14,0.15,0.29,0.23,0.43l0.86-2C64.74,47.49,64.67,47.34,64.6,47.19z"/>
					</g>
					<path class="st6" d="M61.7,37.01c-1.43,1.16,6.15,23.41,13.89,17.15C83.33,47.91,63.13,35.85,61.7,37.01z"/>
				</g>
			</g>
			<g>
				<path class="st7" d="M63.49,35.29c-0.36,2.74-2.78,5.51-6.87,4.4c-6.99-1.92-4.45-12.91,1.98-12.51
					c6.43,0.39,8.23,6.12,4.9,7.93L63.49,35.29z"/>
				<path d="M52.94,38.21c-1.2-1.59-1.53-3.68-1.22-5.58c0.55-3.3,3.1-6.52,6.93-6.29c4.27,0.26,6.7,2.72,7.21,5.04
					c0.38,1.71-0.22,3.29-1.58,4.22c-0.21,1.29-0.82,2.54-1.76,3.49c-1.55,1.56-3.72,2.06-6.13,1.4
					C54.85,40.06,53.72,39.23,52.94,38.21z M63.57,30.31c-0.89-1.18-2.56-2.16-5.01-2.31c-2.84-0.17-4.76,2.33-5.19,4.9
					c-0.37,2.22,0.32,5.12,3.48,5.98c2.3,0.63,3.72-0.18,4.5-0.97c0.74-0.75,1.21-1.78,1.33-2.81c0-0.05,0-0.11,0.02-0.16
					c0.04-0.49,0-0.97-0.13-1.42c-0.19-0.66-0.65-1.5-1.76-1.77c-1.99-0.48-2.95,0.24-3.17,1.01c-0.2,0.69,0.11,1.55,1.06,1.87
					c0.43,0.14,0.67,0.61,0.52,1.05c-0.14,0.43-0.62,0.67-1.05,0.52c-1.69-0.57-2.61-2.24-2.13-3.9c0.46-1.59,2.23-2.88,5.16-2.16
					c1.46,0.35,2.54,1.42,2.97,2.93c0.01,0.03,0.02,0.05,0.02,0.08c0.15-0.42,0.17-0.9,0.06-1.4
					C64.14,31.26,63.91,30.77,63.57,30.31z"/>
			</g>
		</g>
		<g>
			<path class="st8" d="M225.71,102.35c0,0,19.92-0.47,23.62-10.69c3.92-10.81-0.92-19.03-18.31-25.41l1.44,3.78
				c0,0,13.95,5.29,5.5,16.34c-4.37,5.72-12.85,3.49-12.85,3.49L225.71,102.35z"/>
			<path class="st9" d="M224.6,95.9c0,0,13.22-1.12,17.56-6.44c3.56-4.36,4.88-13.19-7.04-19.29"/>
			<path class="st9" d="M232.58,96.69c0,0,7.31-0.51,12.29-6.44c4.71-5.61,1.53-16.81-10.34-20.57"/>
			<path class="st9" d="M226.76,92.5c0,0,9.52,0.78,14.07-6.04c3.36-5.03,2.94-10.51-5.51-15.52"/>
			<g>
				<path class="st4" d="M233.93,68.43c2.3,0.41,4.43,1.75,7.9,4.29c16.32,11.89,6.96,32.74-14.14,28.5l-4.17,7.98
					c35.28,6.86,44.67-25.14,23.53-40.51c-21.01-15.27-29.25,7.31-18.18,9.03C236.46,78.89,238.92,69.08,233.93,68.43z"/>
				<path class="st5" d="M224.53,109.6c-0.35-0.06-0.7-0.13-1.06-0.2c-0.07-0.01-0.12-0.06-0.15-0.12c-0.03-0.06-0.03-0.13,0-0.2
					l4.17-7.98c0.04-0.09,0.12-0.13,0.24-0.11c9.65,1.94,17.92-1.38,21.03-8.46c2.93-6.67,0.84-15.07-6.38-20.34
					c-2.42-1.76-4.02-2.06-6.41-2.92c0.19,0.24,0.35,0.51,0.48,0.81c0.65,1.59,0.19,3.78-1.13,5.45c-1.52,1.92-3.88,2.78-6.49,2.38
					c-2.63-0.41-4.45-2.03-4.97-4.46c-0.67-3.12,0.96-6.67,3.96-8.62c2.27-1.48,8.7-4.08,19.34,3.66
					c10.01,7.27,13.86,18.76,9.59,28.57C253.19,105.3,242.86,112.81,224.53,109.6z M223.85,109.03
					c18.55,3.51,28.96-3.94,32.52-12.13c4.19-9.62,0.39-20.89-9.45-28.05c-10.42-7.58-16.65-5.07-18.85-3.64
					c-2.86,1.86-4.41,5.22-3.77,8.16c0.48,2.24,2.15,3.74,4.61,4.12c3.36,0.52,5.25-1.16,6.08-2.21c1.21-1.52,1.65-3.59,1.07-5.02
					c-0.31-0.76-0.87-1.28-1.64-1.51c-0.18-0.04-0.35-0.08-0.53-0.11c-0.12-0.02-0.2-0.13-0.18-0.25c0.02-0.12,0.13-0.2,0.24-0.18
					c0.19,0.02,0.38,0.06,0.56,0.12c2.12,0.52,4.98,1.4,8.27,3.8c7.4,5.39,9.41,13.73,6.39,20.6c-3.18,7.24-11.55,10.65-21.36,8.74
					L223.85,109.03z"/>
			</g>
			<path class="st5" d="M229.4,76.45c5.38,0.88,6.72-6.28,2.94-6.85c-3.36-0.52-4.32,3.31-1.04,3.57c0,0,0.12,0,0.18-0.13
				c0.05-0.13-0.05-0.17-0.05-0.17l0,0c-2.48-0.28-1.8-2.97,0.75-2.5c2.87,0.52,0.48,4.31-2.08,3.78c-3.38-0.37-3.04-7.06,3.79-5.5
				c2.16,0.49,5.53,1.62,9.1,4.42c12.79,10.02,3.47,28.81-16.55,24.95l-2.32,7.63c27.22,10.92,44.38-19.16,21.57-35.73
				C226.92,56.27,220.53,75,229.4,76.45z"/>
			<g>
				<g>
					<g>
						<path class="st8" d="M229.93,91.64c1.24-2.44,0.94-4.27-0.9-5.42c-0.93-0.58-1.84-0.75-2.72-0.48
							c-1.35,0.41-2.68,1.84-3.85,4.14l0,0c-2.28,4.48-3.18,10.57-2.67,11.08C220.57,101.23,227.5,96.42,229.93,91.64z"/>
					</g>
					<g>
						<path class="st5" d="M223.83,97.24l0.25,1.09c0.06-0.05,0.12-0.1,0.18-0.15l-0.24-1.08
							C223.95,97.14,223.89,97.19,223.83,97.24z"/>
						<path class="st5" d="M221.15,96.31l-1.08,0.62c-0.02,0.09-0.04,0.18-0.06,0.28l1.09-0.63
							C221.12,96.5,221.14,96.41,221.15,96.31z"/>
						<path class="st5" d="M223.12,97.76l-0.11,1.39c0.07-0.06,0.15-0.11,0.22-0.17l0.11-1.38
							C223.27,97.66,223.2,97.71,223.12,97.76z"/>
						<path class="st5" d="M221.32,95.46l-0.96,0.22c-0.02,0.08-0.04,0.15-0.06,0.23l0.97-0.22
							C221.29,95.61,221.31,95.54,221.32,95.46z"/>
						<path class="st5" d="M221.58,94.45l-0.82-0.22c-0.02,0.07-0.04,0.14-0.06,0.2l0.82,0.22
							C221.54,94.58,221.56,94.51,221.58,94.45z"/>
						<path class="st5" d="M222.16,92.63l-0.53-0.92c-0.03,0.08-0.07,0.17-0.1,0.25l0.53,0.93C222.1,92.8,222.13,92.71,222.16,92.63
							z"/>
						<path class="st5" d="M221.76,93.81l-0.73-0.46c-0.02,0.07-0.05,0.14-0.07,0.21l0.73,0.46
							C221.72,93.95,221.74,93.88,221.76,93.81z"/>
						<path class="st5" d="M222.75,91.25l-0.3-1.34c-0.05,0.1-0.1,0.2-0.15,0.3l0.31,1.35C222.65,91.45,222.7,91.35,222.75,91.25z"
							/>
						<path class="st5" d="M224.63,96.58l0.62,0.73c0.05-0.05,0.1-0.09,0.16-0.14l-0.62-0.73
							C224.74,96.49,224.68,96.54,224.63,96.58z"/>
						<path class="st5" d="M228.78,90.76l1.9-1.63c0-0.09,0-0.19,0-0.28l-1.88,1.61C228.8,90.56,228.8,90.66,228.78,90.76z"/>
						<path class="st5" d="M225.35,88.15l0.62-2.29c-0.08,0.04-0.17,0.08-0.25,0.12l-0.62,2.29
							C225.18,88.23,225.27,88.19,225.35,88.15z"/>
						<path class="st5" d="M227.61,88.4c0.03,0.02,0.06,0.04,0.09,0.06l1.39-2.21c-0.02-0.01-0.03-0.02-0.05-0.03
							c-0.04-0.03-0.09-0.05-0.13-0.08l-1.39,2.21C227.54,88.36,227.57,88.38,227.61,88.4z"/>
						<path class="st5" d="M225.11,96.17l0.83,0.52c0.05-0.05,0.1-0.1,0.16-0.15l-0.82-0.52C225.21,96.07,225.16,96.12,225.11,96.17
							z"/>
						<path class="st5" d="M226.86,94.37l1.52-0.34c0.07-0.09,0.14-0.17,0.2-0.26l-1.5,0.34C227,94.2,226.93,94.28,226.86,94.37z"/>
						<path class="st5" d="M225.93,95.38l1.21,0.09c0.06-0.07,0.12-0.13,0.18-0.2l-1.2-0.09C226.05,95.25,225.99,95.32,225.93,95.38
							z"/>
					</g>
					<path class="st10" d="M221.13,98.71c0.86,0.54,11.12-7.39,6.48-10.31C222.96,85.47,220.27,98.17,221.13,98.71z"/>
				</g>
				<g>
					<g>
						<path class="st8" d="M209.64,110.27c-1.24,2.44-0.94,4.27,0.9,5.42c0.93,0.58,1.84,0.75,2.72,0.48
							c1.35-0.41,2.68-1.84,3.85-4.14l0,0c2.28-4.48,3.18-10.57,2.67-11.08C219.01,100.68,212.08,105.49,209.64,110.27z"/>
					</g>
					<g>
						<path class="st5" d="M215.75,104.67l-0.25-1.09c-0.06,0.05-0.12,0.1-0.18,0.15l0.24,1.08
							C215.62,104.77,215.69,104.72,215.75,104.67z"/>
						<path class="st5" d="M218.43,105.59l1.08-0.62c0.02-0.09,0.04-0.18,0.06-0.28l-1.09,0.63
							C218.46,105.41,218.44,105.5,218.43,105.59z"/>
						<path class="st5" d="M216.46,104.14l0.11-1.39c-0.07,0.06-0.15,0.11-0.22,0.17l-0.11,1.38
							C216.31,104.25,216.38,104.2,216.46,104.14z"/>
						<path class="st5" d="M218.26,106.45l0.96-0.22c0.02-0.08,0.04-0.15,0.06-0.23l-0.97,0.22
							C218.29,106.29,218.27,106.37,218.26,106.45z"/>
						<path class="st5" d="M218,107.46l0.82,0.22c0.02-0.07,0.04-0.13,0.06-0.2l-0.82-0.22C218.04,107.33,218.02,107.39,218,107.46z
							"/>
						<path class="st5" d="M217.42,109.28l0.53,0.92c0.03-0.08,0.07-0.17,0.1-0.25l-0.53-0.93
							C217.48,109.11,217.45,109.2,217.42,109.28z"/>
						<path class="st5" d="M217.82,108.1l0.73,0.46c0.02-0.07,0.05-0.14,0.07-0.21l-0.73-0.46
							C217.86,107.96,217.84,108.03,217.82,108.1z"/>
						<path class="st5" d="M216.83,110.66l0.3,1.34c0.05-0.1,0.1-0.2,0.15-0.3l-0.31-1.35
							C216.93,110.45,216.88,110.56,216.83,110.66z"/>
						<path class="st5" d="M214.95,105.32l-0.62-0.73c-0.05,0.05-0.1,0.09-0.16,0.14l0.62,0.73
							C214.84,105.41,214.89,105.37,214.95,105.32z"/>
						<path class="st5" d="M210.79,111.15l-1.9,1.63c0,0.09,0,0.19,0,0.28l1.88-1.61C210.77,111.35,210.78,111.25,210.79,111.15z"/>
						<path class="st5" d="M214.23,113.76l-0.62,2.29c0.08-0.04,0.17-0.08,0.25-0.12l0.62-2.29
							C214.4,113.68,214.31,113.72,214.23,113.76z"/>
						<path class="st5" d="M211.97,113.51c-0.03-0.02-0.06-0.04-0.09-0.06l-1.39,2.21c0.02,0.01,0.03,0.02,0.05,0.03
							c0.04,0.03,0.09,0.05,0.13,0.08l1.39-2.21C212.03,113.54,212,113.53,211.97,113.51z"/>
						<path class="st5" d="M214.47,105.74l-0.83-0.52c-0.05,0.05-0.1,0.1-0.16,0.15l0.82,0.52
							C214.36,105.84,214.42,105.79,214.47,105.74z"/>
						<path class="st5" d="M212.72,107.54l-1.52,0.34c-0.07,0.09-0.14,0.17-0.2,0.26l1.5-0.34
							C212.57,107.71,212.65,107.62,212.72,107.54z"/>
						<path class="st5" d="M213.65,106.53l-1.21-0.09c-0.06,0.07-0.12,0.13-0.18,0.2l1.2,0.09
							C213.52,106.66,213.59,106.59,213.65,106.53z"/>
					</g>
					<path class="st10" d="M218.45,103.2c-0.86-0.54-11.12,7.39-6.48,10.31C216.62,116.43,219.31,103.74,218.45,103.2z"/>
				</g>
				<g>
					<g>
						<path class="st8" d="M229.1,111.1c2.44,1.24,4.27,0.94,5.42-0.9c0.58-0.93,0.75-1.84,0.48-2.72
							c-0.41-1.35-1.84-2.68-4.14-3.85l0,0c-4.48-2.28-10.57-3.18-11.08-2.67C219.51,101.73,224.33,108.66,229.1,111.1z"/>
					</g>
					<g>
						<path class="st5" d="M223.51,105l-1.09,0.25c0.05,0.06,0.1,0.12,0.15,0.18l1.08-0.24C223.6,105.12,223.55,105.06,223.51,105z"
							/>
						<path class="st5" d="M224.43,102.32l-0.62-1.08c-0.09-0.02-0.18-0.04-0.28-0.06l0.63,1.09
							C224.25,102.29,224.34,102.3,224.43,102.32z"/>
						<path class="st5" d="M222.98,104.29l-1.39-0.11c0.06,0.07,0.11,0.15,0.17,0.22l1.38,0.11
							C223.08,104.43,223.03,104.36,222.98,104.29z"/>
						<path class="st5" d="M225.28,102.49l-0.22-0.96c-0.08-0.02-0.15-0.04-0.23-0.06l0.22,0.97
							C225.13,102.45,225.2,102.47,225.28,102.49z"/>
						<path class="st5" d="M226.3,102.74l0.22-0.82c-0.07-0.02-0.13-0.04-0.2-0.06l-0.22,0.82
							C226.16,102.7,226.23,102.72,226.3,102.74z"/>
						<path class="st5" d="M228.12,103.33l0.92-0.53c-0.08-0.03-0.17-0.07-0.25-0.1l-0.93,0.53
							C227.94,103.26,228.03,103.29,228.12,103.33z"/>
						<path class="st5" d="M226.94,102.93l0.46-0.73c-0.07-0.02-0.14-0.05-0.21-0.07l-0.46,0.73
							C226.8,102.88,226.87,102.9,226.94,102.93z"/>
						<path class="st5" d="M229.5,103.91l1.34-0.3c-0.1-0.05-0.2-0.1-0.3-0.15l-1.35,0.31C229.29,103.81,229.39,103.86,229.5,103.91
							z"/>
						<path class="st5" d="M224.16,105.8l-0.73,0.62c0.05,0.05,0.09,0.1,0.14,0.16l0.73-0.62
							C224.25,105.9,224.2,105.85,224.16,105.8z"/>
						<path class="st5" d="M229.98,109.95l1.63,1.9c0.09,0,0.19,0,0.28,0l-1.61-1.88C230.18,109.97,230.08,109.96,229.98,109.95z"/>
						<path class="st5" d="M232.59,106.52l2.29,0.62c-0.04-0.08-0.08-0.17-0.12-0.25l-2.29-0.62
							C232.51,106.35,232.55,106.43,232.59,106.52z"/>
						<path class="st5" d="M232.34,108.77c-0.02,0.03-0.04,0.06-0.06,0.09l2.21,1.39c0.01-0.02,0.02-0.03,0.03-0.05
							c0.03-0.04,0.05-0.09,0.08-0.13l-2.21-1.39C232.38,108.71,232.36,108.74,232.34,108.77z"/>
						<path class="st5" d="M224.58,106.27l-0.52,0.83c0.05,0.05,0.1,0.1,0.15,0.16l0.52-0.82
							C224.68,106.38,224.63,106.33,224.58,106.27z"/>
						<path class="st5" d="M226.37,108.02l0.34,1.52c0.09,0.07,0.17,0.14,0.26,0.2l-0.34-1.5
							C226.55,108.17,226.46,108.1,226.37,108.02z"/>
						<path class="st5" d="M225.36,107.09l-0.09,1.21c0.07,0.06,0.13,0.12,0.2,0.18l0.09-1.2
							C225.49,107.22,225.43,107.16,225.36,107.09z"/>
					</g>
					<path class="st10" d="M222.03,102.29c-0.54,0.86,7.39,11.12,10.31,6.48C235.27,104.13,222.57,101.44,222.03,102.29z"/>
				</g>
				<g>
					<g>
						<path class="st8" d="M210.48,90.81c-2.44-1.24-4.27-0.94-5.42,0.9c-0.58,0.93-0.75,1.84-0.48,2.72
							c0.41,1.35,1.84,2.68,4.14,3.85l0,0c4.48,2.28,10.57,3.18,11.08,2.67C220.06,100.18,215.25,93.24,210.48,90.81z"/>
					</g>
					<g>
						<path class="st5" d="M216.07,96.91l1.09-0.25c-0.05-0.06-0.1-0.12-0.15-0.18l-1.08,0.24
							C215.98,96.79,216.03,96.85,216.07,96.91z"/>
						<path class="st5" d="M215.15,99.59l0.62,1.08c0.09,0.02,0.18,0.04,0.28,0.06l-0.63-1.09
							C215.33,99.62,215.24,99.61,215.15,99.59z"/>
						<path class="st5" d="M216.6,97.62l1.39,0.11c-0.06-0.07-0.11-0.15-0.17-0.22l-1.38-0.11
							C216.49,97.47,216.55,97.55,216.6,97.62z"/>
						<path class="st5" d="M214.3,99.42l0.22,0.96c0.08,0.02,0.15,0.04,0.23,0.06l-0.22-0.97C214.45,99.45,214.37,99.44,214.3,99.42
							z"/>
						<path class="st5" d="M213.28,99.17l-0.22,0.82c0.07,0.02,0.14,0.04,0.2,0.06l0.22-0.82C213.42,99.2,213.35,99.19,213.28,99.17
							z"/>
						<path class="st5" d="M211.46,98.58l-0.92,0.53c0.08,0.03,0.17,0.07,0.25,0.1l0.93-0.53
							C211.63,98.65,211.55,98.61,211.46,98.58z"/>
						<path class="st5" d="M212.64,98.98l-0.46,0.73c0.07,0.02,0.14,0.05,0.21,0.07l0.46-0.73C212.78,99.02,212.71,99,212.64,98.98z
							"/>
						<path class="st5" d="M210.08,98l-1.34,0.3c0.1,0.05,0.2,0.1,0.3,0.15l1.35-0.31C210.29,98.1,210.18,98.05,210.08,98z"/>
						<path class="st5" d="M215.42,96.11l0.73-0.62c-0.05-0.05-0.09-0.1-0.14-0.16l-0.73,0.62
							C215.33,96.01,215.37,96.06,215.42,96.11z"/>
						<path class="st5" d="M209.6,91.96l-1.63-1.9c-0.09,0-0.19,0-0.28,0l1.61,1.88C209.4,91.94,209.5,91.95,209.6,91.96z"/>
						<path class="st5" d="M206.99,95.39l-2.29-0.62c0.04,0.08,0.08,0.17,0.12,0.25l2.29,0.62
							C207.07,95.56,207.03,95.48,206.99,95.39z"/>
						<path class="st5" d="M207.24,93.14c0.02-0.03,0.04-0.06,0.06-0.09l-2.21-1.39c-0.01,0.02-0.02,0.03-0.03,0.05
							c-0.03,0.04-0.05,0.09-0.08,0.13l2.21,1.39C207.2,93.2,207.22,93.17,207.24,93.14z"/>
						<path class="st5" d="M215,95.64l0.52-0.83c-0.05-0.05-0.1-0.1-0.15-0.16l-0.52,0.82C214.9,95.53,214.95,95.58,215,95.64z"/>
						<path class="st5" d="M213.21,93.89l-0.34-1.52c-0.09-0.07-0.17-0.14-0.26-0.2l0.34,1.5
							C213.03,93.74,213.12,93.81,213.21,93.89z"/>
						<path class="st5" d="M214.22,94.82l0.09-1.21c-0.07-0.06-0.13-0.12-0.2-0.18l-0.09,1.2
							C214.09,94.69,214.15,94.75,214.22,94.82z"/>
					</g>
					<path class="st10" d="M217.55,99.61c0.54-0.86-7.39-11.12-10.31-6.48C204.31,97.78,217.01,100.47,217.55,99.61z"/>
				</g>
				<g>
					<g>
						<path class="st8" d="M233.55,101.54c2.61-0.85,3.68-2.35,3.2-4.47c-0.24-1.07-0.78-1.83-1.59-2.27
							c-1.24-0.67-3.19-0.59-5.65,0.2h0c-4.78,1.55-9.72,5.23-9.72,5.94C220.15,101.7,228.45,103.2,233.55,101.54z"/>
					</g>
					<g>
						<path class="st5" d="M225.28,101.18l-0.59,0.94c0.08,0.01,0.16,0.02,0.23,0.02l0.59-0.94
							C225.43,101.2,225.35,101.19,225.28,101.18z"/>
						<path class="st5" d="M224.03,98.64l-1.2-0.32c-0.08,0.05-0.16,0.1-0.23,0.16l1.21,0.33
							C223.88,98.74,223.96,98.69,224.03,98.64z"/>
						<path class="st5" d="M224.4,101.05l-1.06,0.91c0.09,0.01,0.19,0.03,0.28,0.04l1.05-0.9
							C224.58,101.08,224.49,101.07,224.4,101.05z"/>
						<path class="st5" d="M224.76,98.16l-0.84-0.53c-0.07,0.04-0.13,0.08-0.2,0.12l0.84,0.53
							C224.63,98.24,224.69,98.2,224.76,98.16z"/>
						<path class="st5" d="M225.65,97.62l-0.42-0.73c-0.06,0.03-0.12,0.07-0.19,0.1l0.42,0.74
							C225.53,97.69,225.59,97.65,225.65,97.62z"/>
						<path class="st5" d="M227.36,96.74l0.28-1.02c-0.08,0.04-0.17,0.07-0.25,0.11l-0.28,1.03
							C227.19,96.82,227.27,96.78,227.36,96.74z"/>
						<path class="st5" d="M226.24,97.29l-0.19-0.84c-0.06,0.03-0.13,0.07-0.19,0.1l0.19,0.84
							C226.11,97.36,226.17,97.33,226.24,97.29z"/>
						<path class="st5" d="M228.74,96.18l0.73-1.16c-0.11,0.03-0.21,0.07-0.32,0.11l-0.74,1.17
							C228.53,96.26,228.64,96.22,228.74,96.18z"/>
						<path class="st5" d="M226.3,101.29l-0.07,0.96c0.07,0,0.14,0.01,0.21,0.01l0.07-0.95C226.44,101.3,226.37,101.29,226.3,101.29
							z"/>
						<path class="st5" d="M233.36,100.11l2.49,0.19c0.07-0.06,0.13-0.13,0.19-0.2l-2.46-0.19
							C233.51,99.98,233.44,100.04,233.36,100.11z"/>
						<path class="st5" d="M232.78,95.84l2.05-1.18c-0.08-0.03-0.17-0.06-0.26-0.09l-2.06,1.18
							C232.6,95.77,232.69,95.8,232.78,95.84z"/>
						<path class="st5" d="M234.19,97.6c0.01,0.04,0.01,0.07,0.02,0.1l2.55-0.58c0-0.02-0.01-0.04-0.01-0.06
							c-0.01-0.05-0.03-0.1-0.04-0.15l-2.54,0.58C234.18,97.54,234.19,97.57,234.19,97.6z"/>
						<path class="st5" d="M226.94,101.33l0.22,0.95c0.07,0,0.14,0,0.22,0l-0.21-0.95C227.08,101.33,227.01,101.33,226.94,101.33z"
							/>
						<path class="st5" d="M229.44,101.3l1.32,0.83c0.11-0.01,0.22-0.03,0.33-0.04l-1.3-0.82
							C229.67,101.28,229.56,101.29,229.44,101.3z"/>
						<path class="st5" d="M228.07,101.35l0.79,0.92c0.09,0,0.18-0.01,0.27-0.01l-0.78-0.91
							C228.25,101.35,228.16,101.35,228.07,101.35z"/>
					</g>
					<path class="st10" d="M222.32,100.32c0.22,0.99,13.09,2.64,11.87-2.71C232.98,92.25,222.1,99.33,222.32,100.32z"/>
				</g>
				<g>
					<g>
						<path class="st8" d="M206.03,100.37c-2.61,0.85-3.68,2.35-3.2,4.47c0.24,1.07,0.78,1.83,1.59,2.27
							c1.24,0.67,3.19,0.59,5.65-0.2l0,0c4.78-1.55,9.72-5.23,9.72-5.94C219.43,100.21,211.13,98.71,206.03,100.37z"/>
					</g>
					<g>
						<path class="st5" d="M214.3,100.72l0.59-0.94c-0.08-0.01-0.16-0.02-0.23-0.02l-0.59,0.94
							C214.15,100.7,214.23,100.71,214.3,100.72z"/>
						<path class="st5" d="M215.55,103.27l1.2,0.32c0.08-0.05,0.16-0.1,0.23-0.16l-1.21-0.33
							C215.7,103.16,215.62,103.22,215.55,103.27z"/>
						<path class="st5" d="M215.18,100.85l1.06-0.91c-0.09-0.01-0.19-0.03-0.28-0.04l-1.05,0.9
							C215,100.82,215.09,100.84,215.18,100.85z"/>
						<path class="st5" d="M214.82,103.75l0.84,0.53c0.07-0.04,0.13-0.08,0.2-0.12l-0.84-0.53
							C214.95,103.67,214.89,103.71,214.82,103.75z"/>
						<path class="st5" d="M213.92,104.29l0.42,0.73c0.06-0.03,0.12-0.07,0.19-0.1l-0.42-0.74
							C214.05,104.22,213.99,104.26,213.92,104.29z"/>
						<path class="st5" d="M212.22,105.16l-0.28,1.02c0.08-0.04,0.17-0.07,0.25-0.11l0.28-1.03
							C212.39,105.09,212.31,105.13,212.22,105.16z"/>
						<path class="st5" d="M213.34,104.61l0.19,0.84c0.07-0.03,0.13-0.07,0.19-0.1l-0.19-0.84
							C213.47,104.54,213.4,104.58,213.34,104.61z"/>
						<path class="st5" d="M210.83,105.73l-0.73,1.16c0.11-0.03,0.21-0.07,0.32-0.11l0.74-1.17
							C211.05,105.65,210.94,105.69,210.83,105.73z"/>
						<path class="st5" d="M213.28,100.62l0.07-0.96c-0.07,0-0.14-0.01-0.21-0.01l-0.07,0.95
							C213.14,100.61,213.21,100.61,213.28,100.62z"/>
						<path class="st5" d="M206.22,101.8l-2.49-0.19c-0.07,0.06-0.13,0.13-0.19,0.2L206,102
							C206.07,101.93,206.14,101.86,206.22,101.8z"/>
						<path class="st5" d="M206.8,106.07l-2.05,1.18c0.08,0.03,0.17,0.06,0.26,0.09l2.06-1.18
							C206.98,106.14,206.89,106.11,206.8,106.07z"/>
						<path class="st5" d="M205.39,104.3c-0.01-0.04-0.01-0.07-0.02-0.1l-2.55,0.58c0,0.02,0.01,0.04,0.01,0.06
							c0.01,0.05,0.03,0.1,0.04,0.15l2.54-0.58C205.4,104.37,205.39,104.34,205.39,104.3z"/>
						<path class="st5" d="M212.64,100.58l-0.22-0.95c-0.07,0-0.14,0-0.22,0l0.21,0.95C212.5,100.57,212.57,100.58,212.64,100.58z"
							/>
						<path class="st5" d="M210.14,100.61l-1.32-0.83c-0.11,0.01-0.22,0.03-0.33,0.04l1.3,0.82
							C209.91,100.63,210.02,100.62,210.14,100.61z"/>
						<path class="st5" d="M211.51,100.55l-0.79-0.92c-0.09,0-0.18,0.01-0.27,0.01l0.78,0.91
							C211.33,100.56,211.42,100.55,211.51,100.55z"/>
					</g>
					<path class="st10" d="M217.26,101.59c-0.22-0.99-13.09-2.64-11.87,2.71C206.6,109.66,217.48,102.58,217.26,101.59z"/>
				</g>
				<g>
					<g>
						<path class="st8" d="M219.2,114.71c0.85,2.61,2.35,3.68,4.47,3.2c1.07-0.24,1.83-0.78,2.27-1.59c0.67-1.24,0.59-3.19-0.2-5.65
							v0c-1.55-4.78-5.23-9.72-5.94-9.72C219.05,101.31,217.55,109.61,219.2,114.71z"/>
					</g>
					<g>
						<path class="st5" d="M219.56,106.44l-0.94-0.59c-0.01,0.08-0.02,0.16-0.02,0.23l0.94,0.59
							C219.54,106.59,219.55,106.52,219.56,106.44z"/>
						<path class="st5" d="M222.11,105.2l0.32-1.2c-0.05-0.08-0.1-0.16-0.16-0.23l-0.33,1.21C222,105.05,222.05,105.12,222.11,105.2
							z"/>
						<path class="st5" d="M219.69,105.57l-0.91-1.06c-0.01,0.09-0.03,0.19-0.04,0.28l0.9,1.05
							C219.66,105.74,219.67,105.65,219.69,105.57z"/>
						<path class="st5" d="M222.59,105.92l0.53-0.84c-0.04-0.07-0.08-0.13-0.12-0.2l-0.53,0.84
							C222.5,105.79,222.55,105.86,222.59,105.92z"/>
						<path class="st5" d="M223.13,106.82l0.73-0.42c-0.03-0.06-0.07-0.12-0.1-0.19l-0.74,0.42
							C223.06,106.7,223.09,106.76,223.13,106.82z"/>
						<path class="st5" d="M224,108.52l1.02,0.28c-0.04-0.08-0.07-0.17-0.11-0.25l-1.03-0.28
							C223.92,108.35,223.96,108.44,224,108.52z"/>
						<path class="st5" d="M223.45,107.4l0.84-0.19c-0.03-0.07-0.07-0.13-0.1-0.19l-0.84,0.19
							C223.38,107.27,223.41,107.34,223.45,107.4z"/>
						<path class="st5" d="M224.56,109.91l1.16,0.73c-0.03-0.11-0.07-0.21-0.11-0.32l-1.17-0.74
							C224.49,109.69,224.53,109.8,224.56,109.91z"/>
						<path class="st5" d="M219.46,107.47l-0.96-0.07c0,0.07-0.01,0.14-0.01,0.21l0.95,0.07
							C219.44,107.61,219.45,107.54,219.46,107.47z"/>
						<path class="st5" d="M220.64,114.52l-0.19,2.49c0.06,0.07,0.13,0.13,0.2,0.19l0.19-2.46
							C220.76,114.68,220.7,114.6,220.64,114.52z"/>
						<path class="st5" d="M224.91,113.94l1.18,2.05c0.03-0.08,0.06-0.17,0.09-0.26l-1.18-2.06
							C224.97,113.76,224.94,113.85,224.91,113.94z"/>
						<path class="st5" d="M223.14,115.36c-0.04,0.01-0.07,0.01-0.1,0.02l0.58,2.55c0.02,0,0.04-0.01,0.06-0.01
							c0.05-0.01,0.1-0.03,0.15-0.04l-0.58-2.54C223.21,115.34,223.18,115.35,223.14,115.36z"/>
						<path class="st5" d="M219.42,108.1l-0.95,0.22c0,0.07,0,0.14,0,0.22l0.95-0.21C219.41,108.25,219.41,108.17,219.42,108.1z"/>
						<path class="st5" d="M219.45,110.6l-0.83,1.32c0.01,0.11,0.03,0.22,0.04,0.33l0.82-1.3
							C219.47,110.84,219.46,110.72,219.45,110.6z"/>
						<path class="st5" d="M219.39,109.23l-0.92,0.79c0,0.09,0.01,0.18,0.01,0.27l0.91-0.78
							C219.39,109.42,219.39,109.32,219.39,109.23z"/>
					</g>
					<path class="st10" d="M220.43,103.49c-0.99,0.22-2.64,13.09,2.71,11.87C228.49,114.14,221.42,103.26,220.43,103.49z"/>
				</g>
				<g>
					<g>
						<path class="st8" d="M220.38,87.19c-0.85-2.61-2.35-3.68-4.47-3.2c-1.07,0.24-1.83,0.78-2.27,1.59
							c-0.67,1.24-0.59,3.19,0.2,5.65v0c1.55,4.78,5.23,9.72,5.94,9.72C220.53,100.6,222.03,92.29,220.38,87.19z"/>
					</g>
					<g>
						<path class="st5" d="M220.02,95.47l0.94,0.59c0.01-0.08,0.02-0.16,0.02-0.23l-0.94-0.59
							C220.04,95.31,220.03,95.39,220.02,95.47z"/>
						<path class="st5" d="M217.47,96.71l-0.32,1.2c0.05,0.08,0.1,0.16,0.16,0.23l0.33-1.21C217.58,96.86,217.53,96.79,217.47,96.71
							z"/>
						<path class="st5" d="M219.89,96.34l0.91,1.06c0.01-0.09,0.03-0.19,0.04-0.28l-0.9-1.05
							C219.92,96.16,219.91,96.25,219.89,96.34z"/>
						<path class="st5" d="M216.99,95.99l-0.53,0.84c0.04,0.07,0.08,0.13,0.12,0.2l0.53-0.84
							C217.07,96.12,217.03,96.05,216.99,95.99z"/>
						<path class="st5" d="M216.45,95.09l-0.73,0.42c0.03,0.06,0.07,0.12,0.1,0.19l0.74-0.42
							C216.52,95.21,216.49,95.15,216.45,95.09z"/>
						<path class="st5" d="M215.58,93.39l-1.02-0.28c0.04,0.08,0.07,0.17,0.11,0.25l1.03,0.28
							C215.66,93.56,215.62,93.47,215.58,93.39z"/>
						<path class="st5" d="M216.13,94.5l-0.84,0.19c0.03,0.07,0.07,0.13,0.1,0.19l0.84-0.19C216.2,94.63,216.16,94.57,216.13,94.5z"
							/>
						<path class="st5" d="M215.02,92l-1.16-0.73c0.03,0.11,0.07,0.21,0.11,0.32l1.17,0.74C215.09,92.21,215.05,92.11,215.02,92z"/>
						<path class="st5" d="M220.12,94.44l0.96,0.07c0-0.07,0.01-0.14,0.01-0.21l-0.95-0.07C220.13,94.3,220.13,94.37,220.12,94.44z"
							/>
						<path class="st5" d="M218.94,87.39l0.19-2.49c-0.06-0.07-0.13-0.13-0.2-0.19l-0.19,2.46
							C218.82,87.23,218.88,87.31,218.94,87.39z"/>
						<path class="st5" d="M214.67,87.97l-1.18-2.05c-0.03,0.08-0.06,0.17-0.09,0.26l1.18,2.06
							C214.61,88.14,214.64,88.05,214.67,87.97z"/>
						<path class="st5" d="M216.44,86.55c0.04-0.01,0.07-0.01,0.1-0.02l-0.58-2.55c-0.02,0-0.04,0.01-0.06,0.01
							c-0.05,0.01-0.1,0.03-0.15,0.04l0.58,2.54C216.37,86.57,216.4,86.56,216.44,86.55z"/>
						<path class="st5" d="M220.16,93.81l0.95-0.22c0-0.07,0-0.14,0-0.22l-0.95,0.21C220.17,93.66,220.17,93.74,220.16,93.81z"/>
						<path class="st5" d="M220.13,91.3l0.83-1.32c-0.01-0.11-0.03-0.22-0.04-0.33l-0.82,1.3C220.11,91.07,220.12,91.19,220.13,91.3
							z"/>
						<path class="st5" d="M220.19,92.68l0.92-0.79c0-0.09-0.01-0.18-0.01-0.27l-0.91,0.78C220.19,92.49,220.19,92.58,220.19,92.68z
							"/>
					</g>
					<path class="st10" d="M219.15,98.42c0.99-0.22,2.64-13.09-2.71-11.87C211.09,87.77,218.16,98.64,219.15,98.42z"/>
				</g>
			</g>
			<g>
				<path class="st7" d="M217.85,98.84c0.85-1.27,2.72-2.06,4.47-0.51c3,2.65-0.93,7.47-4.02,5.72c-3.09-1.76-2.59-5.03-0.5-5.12
					L217.85,98.84z"/>
				<path d="M223.78,99.95c0.21,1.08-0.14,2.2-0.75,3.06c-1.07,1.5-3.12,2.48-4.96,1.43c-2.05-1.17-2.65-2.98-2.35-4.25
					c0.23-0.94,0.91-1.57,1.81-1.7c0.42-0.59,1.02-1.06,1.72-1.3c1.15-0.4,2.34-0.11,3.37,0.8
					C223.28,98.57,223.65,99.26,223.78,99.95z M216.6,101.28c0.15,0.8,0.74,1.69,1.92,2.36c1.37,0.78,2.93,0,3.76-1.16
					c0.72-1.01,1.08-2.61-0.27-3.81c-0.99-0.87-1.89-0.82-2.47-0.62c-0.55,0.19-1.03,0.59-1.34,1.07c-0.01,0.03-0.03,0.05-0.05,0.08
					c-0.14,0.23-0.23,0.48-0.28,0.73c-0.07,0.37-0.04,0.9,0.44,1.31c0.87,0.72,1.52,0.6,1.82,0.27c0.27-0.29,0.32-0.79-0.07-1.18
					c-0.18-0.18-0.18-0.47,0-0.65c0.18-0.18,0.47-0.18,0.65,0c0.7,0.69,0.75,1.74,0.11,2.45c-0.61,0.68-1.8,0.88-3.08-0.18
					c-0.64-0.53-0.91-1.32-0.76-2.17c0-0.01,0-0.03,0.01-0.04c-0.18,0.17-0.3,0.4-0.37,0.68
					C216.55,100.67,216.54,100.97,216.6,101.28z"/>
			</g>
		</g>
	</g>
	<g>
		<path d="M121.14,54.31h7.71v0.41h-0.39c-0.58,0-0.98,0.06-1.2,0.18c-0.22,0.12-0.37,0.29-0.46,0.5c-0.09,0.21-0.14,0.75-0.14,1.6
			v7.32c0,1.34,0.1,2.22,0.3,2.66c0.2,0.43,0.53,0.79,1,1.08c0.46,0.29,1.05,0.43,1.75,0.43c0.81,0,1.5-0.18,2.07-0.55
			c0.57-0.36,1-0.86,1.28-1.5c0.28-0.64,0.42-1.75,0.42-3.34v-6.09c0-0.67-0.07-1.15-0.21-1.43c-0.14-0.29-0.32-0.48-0.53-0.6
			c-0.33-0.17-0.8-0.25-1.4-0.25v-0.41h5.17v0.41h-0.31c-0.42,0-0.77,0.08-1.05,0.25c-0.28,0.17-0.48,0.42-0.61,0.76
			c-0.1,0.24-0.14,0.66-0.14,1.27v5.67c0,1.76-0.12,3.02-0.35,3.8c-0.23,0.78-0.8,1.5-1.69,2.15c-0.9,0.65-2.12,0.98-3.67,0.98
			c-1.29,0-2.29-0.17-3-0.52c-0.96-0.47-1.64-1.07-2.04-1.81c-0.4-0.73-0.6-1.72-0.6-2.96v-7.32c0-0.86-0.05-1.39-0.14-1.6
			c-0.1-0.21-0.26-0.38-0.5-0.5c-0.24-0.12-0.67-0.18-1.3-0.18V54.31z"/>
		<path d="M144.18,58.66l0.17,3.52h-0.37c-0.45-1.04-0.91-1.76-1.39-2.14c-0.48-0.38-0.96-0.57-1.44-0.57c-0.3,0-0.56,0.1-0.77,0.3
			c-0.21,0.2-0.32,0.44-0.32,0.7c0,0.2,0.07,0.39,0.22,0.57c0.23,0.3,0.89,0.82,1.97,1.55c1.08,0.73,1.79,1.35,2.13,1.86
			c0.34,0.51,0.51,1.08,0.51,1.71c0,0.57-0.14,1.14-0.43,1.69c-0.29,0.55-0.69,0.97-1.21,1.27c-0.52,0.29-1.1,0.44-1.73,0.44
			c-0.49,0-1.15-0.15-1.97-0.46c-0.22-0.08-0.37-0.12-0.45-0.12c-0.24,0-0.44,0.18-0.61,0.55h-0.36l-0.18-3.7h0.38
			c0.33,0.97,0.78,1.7,1.36,2.18c0.58,0.48,1.12,0.73,1.64,0.73c0.35,0,0.64-0.11,0.86-0.32c0.22-0.22,0.34-0.48,0.34-0.79
			c0-0.35-0.11-0.66-0.33-0.91c-0.22-0.26-0.71-0.65-1.48-1.17c-1.12-0.78-1.85-1.37-2.18-1.79c-0.48-0.6-0.73-1.27-0.73-1.99
			c0-0.79,0.27-1.51,0.82-2.15c0.55-0.64,1.34-0.96,2.37-0.96c0.56,0,1.1,0.14,1.62,0.41c0.2,0.11,0.36,0.17,0.48,0.17
			c0.13,0,0.24-0.03,0.32-0.08c0.08-0.06,0.21-0.21,0.39-0.47H144.18z"/>
		<path d="M155.18,63.73h-5.65c0.07,1.37,0.43,2.45,1.09,3.24c0.51,0.61,1.12,0.91,1.83,0.91c0.44,0,0.84-0.12,1.2-0.37
			c0.36-0.25,0.75-0.69,1.16-1.33l0.37,0.24c-0.56,1.14-1.18,1.94-1.85,2.42c-0.68,0.47-1.46,0.71-2.35,0.71
			c-1.53,0-2.69-0.59-3.47-1.76c-0.63-0.95-0.95-2.12-0.95-3.53c0-1.72,0.46-3.09,1.39-4.11c0.93-1.02,2.02-1.53,3.27-1.53
			c1.04,0,1.95,0.43,2.72,1.28C154.71,60.78,155.12,62.05,155.18,63.73z M152.47,62.99c0-1.18-0.06-1.99-0.19-2.44
			c-0.13-0.44-0.33-0.78-0.6-1c-0.15-0.13-0.36-0.2-0.62-0.2c-0.38,0-0.69,0.19-0.94,0.56c-0.43,0.65-0.65,1.55-0.65,2.69v0.39
			H152.47z"/>
		<path d="M160.74,58.95v2.34c0.68-1.06,1.28-1.77,1.8-2.12c0.51-0.35,1.01-0.52,1.49-0.52c0.41,0,0.74,0.13,0.99,0.38
			c0.25,0.25,0.37,0.61,0.37,1.07c0,0.49-0.12,0.87-0.36,1.15c-0.24,0.27-0.53,0.41-0.87,0.41c-0.39,0-0.73-0.12-1.01-0.38
			c-0.29-0.25-0.46-0.39-0.51-0.42c-0.07-0.04-0.16-0.07-0.25-0.07c-0.21,0-0.41,0.08-0.61,0.24c-0.3,0.25-0.53,0.61-0.68,1.07
			c-0.23,0.71-0.35,1.5-0.35,2.36v2.37l0.01,0.62c0,0.42,0.03,0.69,0.08,0.8c0.09,0.2,0.22,0.34,0.39,0.44
			c0.17,0.09,0.46,0.15,0.88,0.17v0.4h-5.56v-0.4c0.45-0.04,0.75-0.16,0.91-0.37c0.16-0.21,0.24-0.76,0.24-1.66v-5.7
			c0-0.59-0.03-0.96-0.09-1.12c-0.07-0.21-0.18-0.36-0.32-0.45c-0.14-0.1-0.39-0.16-0.74-0.2v-0.41H160.74z"/>
		<path d="M95.22,74.6v6.08h0.3c0.95,0,1.63-0.3,2.06-0.89c0.43-0.59,0.7-1.47,0.82-2.63h0.42v7.82h-0.42
			c-0.09-0.85-0.27-1.55-0.56-2.09c-0.28-0.54-0.61-0.91-0.99-1.1c-0.37-0.19-0.92-0.28-1.63-0.28v4.21c0,0.82,0.04,1.33,0.1,1.51
			c0.07,0.18,0.2,0.33,0.39,0.45c0.19,0.12,0.5,0.18,0.93,0.18h0.89c1.4,0,2.51-0.32,3.35-0.97c0.84-0.65,1.45-1.63,1.81-2.95h0.41
			l-0.67,4.75H89.52v-0.41h0.5c0.43,0,0.78-0.08,1.05-0.23c0.19-0.1,0.34-0.28,0.44-0.53c0.08-0.18,0.12-0.64,0.12-1.39V76.3
			c0-0.68-0.02-1.09-0.06-1.25c-0.07-0.26-0.21-0.46-0.41-0.59c-0.28-0.21-0.66-0.31-1.15-0.31h-0.5v-0.41h12.51v4.42h-0.42
			c-0.21-1.08-0.51-1.85-0.9-2.32c-0.39-0.47-0.93-0.82-1.64-1.04c-0.41-0.13-1.18-0.2-2.31-0.2H95.22z"/>
		<path d="M110.98,82.37l1.79,3.39c0.62,1.18,1.11,1.93,1.47,2.25c0.2,0.17,0.47,0.26,0.82,0.28v0.4h-5.74v-0.4
			c0.45-0.04,0.73-0.1,0.83-0.18c0.11-0.08,0.16-0.19,0.16-0.33c0-0.21-0.12-0.53-0.35-0.97l-0.89-1.68l-0.76,1.11
			c-0.35,0.51-0.54,0.81-0.58,0.9c-0.06,0.14-0.09,0.26-0.09,0.37c0,0.17,0.03,0.31,0.1,0.42c0.07,0.11,0.17,0.2,0.29,0.25
			c0.12,0.06,0.34,0.08,0.67,0.08v0.4h-4.03v-0.4c0.5,0,0.96-0.14,1.37-0.41c0.42-0.28,1.02-1,1.81-2.17l0.85-1.26l-1.77-3.28
			c-0.58-1.07-1.01-1.73-1.3-1.97c-0.29-0.24-0.61-0.38-0.96-0.41v-0.41h5.71v0.41l-0.3,0.01l-0.57,0.2
			c-0.06,0.05-0.09,0.14-0.09,0.25c0,0.11,0.02,0.22,0.06,0.34c0.02,0.05,0.12,0.25,0.31,0.6l0.8,1.5l0.42-0.6
			c0.59-0.81,0.88-1.37,0.88-1.7c0-0.15-0.06-0.28-0.19-0.39c-0.13-0.11-0.36-0.18-0.69-0.21v-0.41h3.65v0.41
			c-0.45,0.01-0.87,0.15-1.26,0.41c-0.39,0.26-0.83,0.77-1.31,1.52L110.98,82.37z"/>
		<path d="M120.15,87.63v3.83c0,0.53,0.04,0.89,0.13,1.08c0.08,0.19,0.21,0.33,0.39,0.42c0.18,0.09,0.52,0.13,1.04,0.13v0.41h-5.87
			V93.1c0.46-0.01,0.79-0.14,1.01-0.39c0.15-0.17,0.22-0.61,0.22-1.31V80.53c0-0.73-0.08-1.19-0.25-1.39
			c-0.17-0.2-0.5-0.32-0.98-0.35v-0.41h4.32v1.36c0.36-0.53,0.73-0.91,1.1-1.15c0.54-0.35,1.12-0.52,1.75-0.52
			c0.76,0,1.45,0.24,2.07,0.72c0.62,0.48,1.09,1.14,1.42,1.98c0.32,0.84,0.48,1.75,0.48,2.72c0,1.04-0.17,2-0.5,2.86
			c-0.33,0.86-0.82,1.52-1.45,1.97c-0.64,0.45-1.34,0.68-2.12,0.68c-0.57,0-1.09-0.12-1.59-0.37
			C120.94,88.42,120.56,88.1,120.15,87.63z M120.15,86.52c0.63,0.9,1.31,1.34,2.03,1.34c0.4,0,0.72-0.21,0.98-0.63
			c0.38-0.62,0.57-1.79,0.57-3.53c0-1.78-0.21-2.99-0.63-3.65c-0.28-0.43-0.65-0.65-1.12-0.65c-0.74,0-1.35,0.54-1.83,1.61V86.52z"
			/>
		<path d="M137.44,83.16h-5.65c0.07,1.37,0.43,2.45,1.09,3.24c0.51,0.61,1.12,0.91,1.83,0.91c0.44,0,0.84-0.12,1.2-0.37
			c0.36-0.25,0.75-0.69,1.16-1.33l0.37,0.24c-0.56,1.14-1.18,1.94-1.85,2.42c-0.68,0.47-1.46,0.71-2.35,0.71
			c-1.53,0-2.68-0.59-3.47-1.76c-0.63-0.95-0.95-2.12-0.95-3.53c0-1.72,0.46-3.09,1.39-4.11c0.93-1.02,2.02-1.53,3.27-1.53
			c1.04,0,1.95,0.43,2.72,1.28C136.97,80.21,137.38,81.48,137.44,83.16z M134.73,82.42c0-1.18-0.06-1.99-0.19-2.44
			c-0.13-0.44-0.33-0.78-0.6-1c-0.15-0.13-0.36-0.2-0.62-0.2c-0.38,0-0.69,0.19-0.94,0.56c-0.43,0.65-0.65,1.55-0.65,2.69v0.39
			H134.73z"/>
		<path d="M143.01,78.38v2.34c0.68-1.06,1.28-1.77,1.8-2.12c0.51-0.35,1.01-0.52,1.49-0.52c0.41,0,0.74,0.13,0.99,0.38
			c0.25,0.25,0.37,0.61,0.37,1.07c0,0.49-0.12,0.87-0.36,1.15c-0.24,0.27-0.53,0.41-0.87,0.41c-0.39,0-0.73-0.12-1.01-0.38
			c-0.29-0.25-0.46-0.39-0.51-0.42c-0.07-0.04-0.16-0.07-0.25-0.07c-0.21,0-0.42,0.08-0.61,0.24c-0.3,0.25-0.53,0.61-0.68,1.07
			c-0.23,0.71-0.35,1.5-0.35,2.36v2.37l0.01,0.62c0,0.42,0.03,0.69,0.08,0.8c0.09,0.2,0.22,0.34,0.39,0.44
			c0.17,0.09,0.46,0.15,0.88,0.17v0.4h-5.56v-0.4c0.45-0.04,0.75-0.16,0.91-0.37c0.16-0.21,0.24-0.76,0.24-1.66v-5.7
			c0-0.59-0.03-0.96-0.09-1.12c-0.07-0.21-0.18-0.36-0.32-0.45c-0.14-0.1-0.39-0.16-0.74-0.2v-0.41H143.01z"/>
		<path d="M152.77,78.38v8.17c0,0.73,0.08,1.19,0.25,1.39c0.17,0.2,0.5,0.32,0.99,0.35v0.4h-5.56v-0.4c0.46-0.01,0.79-0.15,1.01-0.4
			c0.15-0.17,0.22-0.62,0.22-1.34v-6.02c0-0.73-0.08-1.19-0.25-1.39c-0.17-0.2-0.5-0.32-0.98-0.35v-0.41H152.77z M151.23,73.39
			c0.48,0,0.88,0.17,1.21,0.5c0.33,0.33,0.5,0.74,0.5,1.21s-0.17,0.87-0.5,1.2c-0.33,0.33-0.74,0.5-1.21,0.5
			c-0.47,0-0.87-0.17-1.2-0.5c-0.33-0.33-0.5-0.73-0.5-1.2s0.17-0.87,0.5-1.21C150.36,73.55,150.76,73.39,151.23,73.39z"/>
		<path d="M163.75,83.16h-5.65c0.07,1.37,0.43,2.45,1.09,3.24c0.51,0.61,1.12,0.91,1.83,0.91c0.44,0,0.84-0.12,1.2-0.37
			c0.36-0.25,0.75-0.69,1.16-1.33l0.37,0.24c-0.56,1.14-1.18,1.94-1.85,2.42c-0.68,0.47-1.46,0.71-2.35,0.71
			c-1.53,0-2.68-0.59-3.47-1.76c-0.63-0.95-0.95-2.12-0.95-3.53c0-1.72,0.46-3.09,1.39-4.11c0.93-1.02,2.02-1.53,3.27-1.53
			c1.04,0,1.95,0.43,2.72,1.28C163.27,80.21,163.69,81.48,163.75,83.16z M161.04,82.42c0-1.18-0.06-1.99-0.19-2.44
			c-0.13-0.44-0.33-0.78-0.6-1c-0.15-0.13-0.36-0.2-0.62-0.2c-0.38,0-0.69,0.19-0.94,0.56c-0.43,0.65-0.65,1.55-0.65,2.69v0.39
			H161.04z"/>
		<path d="M169.24,78.38v1.33c0.53-0.57,1.04-0.99,1.52-1.25c0.48-0.26,1.01-0.39,1.57-0.39c0.67,0,1.22,0.19,1.66,0.56
			c0.44,0.37,0.73,0.83,0.88,1.38c0.12,0.42,0.18,1.22,0.18,2.41v4.01c0,0.79,0.07,1.29,0.21,1.48c0.14,0.19,0.44,0.32,0.9,0.37v0.4
			h-5.21v-0.4c0.39-0.05,0.67-0.21,0.84-0.48c0.12-0.18,0.18-0.64,0.18-1.37v-4.58c0-0.84-0.03-1.38-0.1-1.6
			c-0.07-0.22-0.18-0.39-0.34-0.51c-0.16-0.12-0.33-0.18-0.52-0.18c-0.63,0-1.22,0.45-1.76,1.36v5.52c0,0.77,0.07,1.26,0.21,1.47
			c0.14,0.21,0.41,0.33,0.8,0.39v0.4h-5.21v-0.4c0.43-0.04,0.74-0.18,0.93-0.42c0.12-0.16,0.19-0.64,0.19-1.43v-5.82
			c0-0.78-0.07-1.26-0.21-1.45c-0.14-0.19-0.44-0.32-0.9-0.37v-0.41H169.24z"/>
		<path d="M185.99,86.02l0.34,0.26c-0.48,0.91-1.09,1.59-1.81,2.03c-0.72,0.44-1.49,0.67-2.31,0.67c-1.37,0-2.47-0.52-3.29-1.55
			c-0.82-1.04-1.23-2.28-1.23-3.74c0-1.4,0.38-2.64,1.12-3.7c0.9-1.29,2.15-1.93,3.74-1.93c1.07,0,1.91,0.27,2.54,0.8
			c0.63,0.54,0.94,1.14,0.94,1.8c0,0.42-0.13,0.75-0.38,1c-0.25,0.25-0.59,0.38-1,0.38c-0.43,0-0.79-0.14-1.07-0.43
			c-0.28-0.29-0.46-0.8-0.52-1.53c-0.04-0.46-0.15-0.79-0.32-0.97c-0.17-0.18-0.37-0.28-0.6-0.28c-0.35,0-0.65,0.19-0.9,0.56
			c-0.38,0.57-0.57,1.43-0.57,2.6c0,0.97,0.15,1.9,0.46,2.78c0.31,0.89,0.73,1.54,1.27,1.98c0.4,0.32,0.88,0.47,1.43,0.47
			c0.36,0,0.7-0.08,1.02-0.25C185.17,86.81,185.55,86.5,185.99,86.02z"/>
		<path d="M196.33,83.16h-5.65c0.07,1.37,0.43,2.45,1.09,3.24c0.51,0.61,1.12,0.91,1.83,0.91c0.44,0,0.84-0.12,1.2-0.37
			c0.36-0.25,0.75-0.69,1.16-1.33l0.37,0.24c-0.56,1.14-1.18,1.94-1.85,2.42c-0.68,0.47-1.46,0.71-2.35,0.71
			c-1.53,0-2.68-0.59-3.47-1.76c-0.63-0.95-0.95-2.12-0.95-3.53c0-1.72,0.46-3.09,1.39-4.11c0.93-1.02,2.02-1.53,3.27-1.53
			c1.04,0,1.95,0.43,2.72,1.28C195.86,80.21,196.27,81.48,196.33,83.16z M193.62,82.42c0-1.18-0.06-1.99-0.19-2.44
			c-0.13-0.44-0.33-0.78-0.6-1c-0.15-0.13-0.36-0.2-0.62-0.2c-0.38,0-0.69,0.19-0.94,0.56c-0.43,0.65-0.65,1.55-0.65,2.69v0.39
			H193.62z"/>
	</g>
</g>
</svg>
