<?xml version="1.0" encoding="utf-8"?>
<!-- Generator: Adobe Illustrator 26.0.3, SVG Export Plug-In . SVG Version: 6.00 Build 0)  -->
<svg version="1.1" id="Layer_1" xmlns="http://www.w3.org/2000/svg" xmlns:xlink="http://www.w3.org/1999/xlink" x="0px" y="0px"
	 viewBox="0 0 25 31" style="enable-background:new 0 0 25 31;" xml:space="preserve">
<style type="text/css">
	.st0{fill:#FFFFFF;}
</style>
<g>
	<rect x="0.03" y="4.94" class="st0" width="8.2" height="21.12"/>
	<g>
		<path class="st0" d="M22.3,22.2c0,0.61-0.51,1.2-1.52,1.75c-1.76,0.97-3.5,0.98-5.17,0.05c-2.78-1.54-4.55-5.24-4.55-6.66
			c0-0.24,0.06-0.32,0.08-0.34c0.52-0.28,5.4,0.78,8.68,2.6C21.45,20.51,22.3,21.4,22.3,22.2z"/>
		<path class="st0" d="M22.58,13.15c1.65,0.29,2.46,1.06,2.46,2.35s-0.8,2.06-2.46,2.35c-3.92,0.7-10.76-1.63-11.22-2.35
			C11.82,14.78,18.65,12.45,22.58,13.15z"/>
		<path class="st0" d="M15.61,7c1.68-0.93,3.42-0.91,5.17,0.05C21.79,7.61,22.3,8.2,22.3,8.8c0,0.79-0.86,1.69-2.49,2.59
			c-3.28,1.82-8.16,2.88-8.68,2.6c-0.02-0.01-0.08-0.1-0.08-0.34C11.06,12.24,12.83,8.54,15.61,7z"/>
		<path class="st0" d="M10.82,0.51c2.34,0.13,3.53,1.13,3.53,2.96c0,2.83-2.77,6.76-4.33,8.16C9.4,12.19,9.16,12.2,9.14,12.2
			c-0.7-0.04-2.86-4.06-2.86-7.49c0-1.48,0.4-2.59,1.18-3.3C8.21,0.73,9.34,0.43,10.82,0.51z"/>
		<path class="st0" d="M14.34,27.52c0,1.83-1.19,2.83-3.53,2.96c-1.47,0.09-2.6-0.22-3.36-0.9c-0.79-0.71-1.18-1.82-1.18-3.3l0,0
			c0-3.43,2.17-7.45,2.86-7.49c0.03,0,0.26,0,0.88,0.57C11.57,20.76,14.34,24.68,14.34,27.52z"/>
		<path class="st0" d="M5.85,10.12c3.2,0,5.81,2.41,5.81,5.38s-2.6,5.38-5.81,5.38c-3.2,0-5.81-2.41-5.81-5.38
			C0.04,12.53,2.65,10.12,5.85,10.12z"/>
	</g>
</g>
</svg>
