<?xml version="1.0" encoding="utf-8"?>
<!DOCTYPE svg PUBLIC "-//W3C//DTD SVG 1.1//EN" "http://www.w3.org/Graphics/SVG/1.1/DTD/svg11.dtd">
<svg version="1.1" id="Capa_1" xmlns="http://www.w3.org/2000/svg" xmlns:xlink="http://www.w3.org/1999/xlink" x="0px" y="0px"
	 width="310px" height="80px" viewBox="0 0 310 80" enable-background="new 0 0 310 80" xml:space="preserve">
<g>
	<g>
		<g>
			<g>
				<path fill="#FFFFFF" d="M150.836,40.755c2.669-3.079-14.893-41.763-29.35-25.095C107.03,32.332,148.17,43.835,150.836,40.755z"
					/>
				<path fill="#010002" d="M148.704,41.959c0,0,0,0-0.002,0c-6.711,0-25.48-5.853-30.012-15.079
					c-1.895-3.852-1.142-7.779,2.229-11.666c2.539-2.927,5.351-4.409,8.365-4.409c7.47,0,14.731,9.362,19.035,18.124
					c1.844,3.754,4.57,10.566,3.083,12.277C150.958,41.717,150.099,41.959,148.704,41.959z M129.284,12.211
					c-2.556,0-4.986,1.312-7.232,3.901c-2.977,3.432-3.66,6.854-2.032,10.17c4.215,8.582,22.43,14.271,28.682,14.271
					c0.002,0,0.002,0,0.002,0c1.304,0,1.565-0.245,1.57-0.247c0.5-0.663-0.537-5.721-4.23-12.617
					C144.101,24.06,137.148,12.211,129.284,12.211z"/>
			</g>
			<g>
				<path fill="#FFFFFF" d="M156.075,39.339c-4.092,0-22.155-33.896,0-33.896S160.163,39.339,156.075,39.339z"/>
				<path fill="#010002" d="M156.075,40.037c-3.439,0-11.556-14.395-11.556-24.325c0-3.29,0.858-5.899,2.558-7.75
					c1.954-2.141,4.985-3.223,8.998-3.223c4.014,0,7.039,1.082,9.001,3.223c1.692,1.851,2.554,4.46,2.554,7.746
					C167.629,25.643,159.516,40.037,156.075,40.037z M156.075,6.145c-6.602,0-9.996,3.138-10.085,9.326
					c-0.14,9.99,8.288,23.117,10.085,23.165c1.799-0.048,10.226-13.176,10.08-23.172C166.067,9.28,162.675,6.145,156.075,6.145z"/>
			</g>
			<g>
				<path fill="#FFFFFF" d="M161.312,40.755c-2.673-3.079,14.896-41.763,29.349-25.095
					C205.115,32.332,163.985,43.835,161.312,40.755z"/>
				<path fill="#010002" d="M163.446,41.959c-1.398,0-2.257-0.242-2.699-0.753c-1.484-1.711,1.243-8.523,3.086-12.277
					c4.303-8.762,11.562-18.124,19.034-18.124c3.011,0,5.823,1.482,8.357,4.409c3.373,3.887,4.127,7.814,2.234,11.667
					C188.927,36.106,170.159,41.959,163.446,41.959z M161.882,40.309c0,0,0.263,0.245,1.563,0.245
					c6.252,0,24.466-5.686,28.678-14.271c1.63-3.316,0.947-6.738-2.03-10.17c-2.241-2.59-4.674-3.901-7.228-3.901
					c-7.861,0-14.819,11.849-16.762,15.479C162.415,34.586,161.376,39.644,161.882,40.309L161.882,40.309z"/>
			</g>
			<g>
				<path fill="#FFFFFF" d="M168.326,45.587c-0.365-4.045,46.627-26.259,48.614-4.35C218.93,63.146,168.692,49.636,168.326,45.587z"
					/>
				<path fill="#010002" d="M199.212,54.13c-13.316,0-31.337-5.334-31.619-8.479c-0.045-0.515,0.22-1.055,0.848-1.708
					c3.698-3.855,22.253-12.927,35.724-12.927c8.234,0,12.903,3.513,13.509,10.161c0.306,3.377-0.565,6.159-2.587,8.271
					C212.113,52.555,206.767,54.13,199.212,54.13z M204.165,32.424c-14.588,0-34.817,10.855-35.106,13.124
					c0.597,1.816,16.478,7.172,30.153,7.172c7.027,0,12.147-1.46,14.794-4.224c1.729-1.808,2.471-4.229,2.2-7.196
					C215.676,35.408,211.624,32.424,204.165,32.424z"/>
			</g>
			<g>
				<path fill="#FFFFFF" d="M143.823,45.587c0.367-4.045-46.626-26.259-48.614-4.35C93.217,63.146,143.456,49.636,143.823,45.587z"
					/>
				<path fill="#010002" d="M112.936,54.13c-0.001,0-0.001,0-0.001,0c-7.557,0-12.898-1.575-15.875-4.683
					c-2.021-2.111-2.892-4.894-2.584-8.271c0.607-6.648,5.272-10.161,13.507-10.161c13.478,0,32.028,9.074,35.729,12.927
					c0.623,0.653,0.889,1.193,0.845,1.708C144.269,48.796,126.253,54.13,112.936,54.13z M107.981,32.424
					c-7.456,0-11.507,2.984-12.041,8.876c-0.27,2.967,0.472,5.389,2.203,7.196c2.65,2.764,7.764,4.224,14.791,4.224h0.001
					c13.675,0,29.557-5.355,30.159-7.215C142.8,43.279,122.569,32.424,107.981,32.424z"/>
			</g>
			<g>
				<path fill="#EA3700" stroke="#000000" stroke-miterlimit="10" d="M175.282,54.082c0,10.531-8.603,19.072-19.207,19.072
					c-10.606,0-19.206-8.541-19.206-19.072c0-10.533,8.6-19.063,19.206-19.063C166.679,35.02,175.282,43.549,175.282,54.082z"/>
				<path fill="#010002" d="M156.075,75.261c-11.807,0-21.413-9.5-21.413-21.179c0-11.677,9.606-21.176,21.413-21.176
					c11.806,0,21.412,9.499,21.412,21.176C177.487,65.761,167.88,75.261,156.075,75.261z M156.075,37.125
					c-9.373,0-17.001,7.605-17.001,16.957c0,9.35,7.628,16.956,17.001,16.956c9.371,0,16.998-7.606,16.998-16.956
					C173.073,44.73,165.446,37.125,156.075,37.125z"/>
			</g>
			<ellipse fill="#010002" cx="156.074" cy="54.082" rx="11.62" ry="11.538"/>
		</g>
	</g>
	<g>
		<path fill="#434142" d="M242.844,43.811c26.727-19.829,51.297-18.677,60.044-9.443c8.794,9.29,4.589,27.184-5.093,35.857
			c-15.851,14.185-23.352-14.815-9.432-13.832c-10.408,0.044-8.214,19.664,5.348,11.558c9.42-5.643,9.966-21.202,1.437-29.313
			c-7.896-7.524-28.236-5.071-40.98,4.008c-36.325,25.881-57.592,34.502-72.823,16.972
			C200.023,75.423,223.451,58.198,242.844,43.811z"/>
	</g>
	<g>
		<path fill="#434142" d="M67.156,43.811C40.431,23.981,15.86,25.134,7.112,34.367c-8.794,9.29-4.589,27.184,5.093,35.857
			c15.851,14.185,23.352-14.815,9.432-13.832c10.408,0.044,8.214,19.664-5.347,11.558c-9.42-5.643-9.966-21.202-1.437-29.313
			c7.896-7.524,28.236-5.071,40.979,4.008c36.326,25.881,57.593,34.502,72.824,16.972C109.977,75.423,86.549,58.198,67.156,43.811z"
			/>
	</g>
</g>
</svg>
