<?xml version="1.0" encoding="UTF-8"?>
<svg id="Capa_1" xmlns="http://www.w3.org/2000/svg" version="1.1" xmlns:xlink="http://www.w3.org/1999/xlink" viewBox="0 0 24 24">
  <!-- Generator: Adobe Illustrator 29.3.1, SVG Export Plug-In . SVG Version: 2.1.0 Build 151)  -->
  <defs>
    <style>
      .st0 {
        fill: #aeffff;
      }

      .st1 {
        fill-rule: evenodd;
      }
    </style>
  </defs>
  <g id="Page-1">
    <g id="Dribbble-Light-Preview">
      <g id="icons">
        <path id="github-_x5B__x23_142_x5D_" class="st1" d="M12,0C18.6,0,24,5.5,24,12.3s-3.4,10-8.2,11.7c-.6.1-.8-.3-.8-.6s0-1.7,0-3.4-.4-1.9-.8-2.3c2.7-.3,5.5-1.3,5.5-6.1s-.5-2.4-1.2-3.3c.1-.3.5-1.6-.1-3.3,0,0-1-.3-3.3,1.3-1-.3-2-.4-3-.4-1,0-2,.1-3,.4-2.3-1.6-3.3-1.3-3.3-1.3-.7,1.7-.2,2.9-.1,3.3-.8.9-1.2,2-1.2,3.3,0,4.7,2.8,5.8,5.5,6.1-.3.3-.7.8-.8,1.6-.7.3-2.4.9-3.5-1,0,0-.6-1.2-1.8-1.3,0,0-1.2,0,0,.7,0,0,.8.4,1.3,1.8,0,0,.7,2.2,4,1.5,0,1,0,2,0,2.3s-.2.7-.8.6C3.4,22.4,0,17.8,0,12.3S5.4,0,12,0"/>
      </g>
    </g>
    <g id="Dribbble-Light-Preview1" data-name="Dribbble-Light-Preview">
      <g id="icons1" data-name="icons">
        <path id="github-_x5B__x23_142_x5D_1" data-name="github-_x5B__x23_142_x5D_" class="st0" d="M12,0C18.6,0,24,5.5,24,12.3s-3.4,10-8.2,11.7c-.6.1-.8-.3-.8-.6s0-1.7,0-3.4-.4-1.9-.8-2.3c2.7-.3,5.5-1.3,5.5-6.1s-.5-2.4-1.2-3.3c.1-.3.5-1.6-.1-3.3,0,0-1-.3-3.3,1.3-1-.3-2-.4-3-.4-1,0-2,.1-3,.4-2.3-1.6-3.3-1.3-3.3-1.3-.7,1.7-.2,2.9-.1,3.3-.8.9-1.2,2-1.2,3.3,0,4.7,2.8,5.8,5.5,6.1-.3.3-.7.8-.8,1.6-.7.3-2.4.9-3.5-1,0,0-.6-1.2-1.8-1.3,0,0-1.2,0,0,.7,0,0,.8.4,1.3,1.8,0,0,.7,2.2,4,1.5,0,1,0,2,0,2.3s-.2.7-.8.6C3.4,22.4,0,17.8,0,12.3S5.4,0,12,0"/>
      </g>
    </g>
  </g>
</svg>