<?xml version="1.0" encoding="UTF-8"?>
<svg id="Capa_1" xmlns="http://www.w3.org/2000/svg" version="1.1" xmlns:xlink="http://www.w3.org/1999/xlink" viewBox="0 0 24 24">
  <!-- Generator: Adobe Illustrator 29.3.1, SVG Export Plug-In . SVG Version: 2.1.0 Build 151)  -->
  <defs>
    <style>
      .st0 {
        fill: #aeffff;
      }

      .st0, .st1 {
        fill-rule: evenodd;
      }
    </style>
  </defs>
  <g id="Page-1">
    <g id="Dribbble-Light-Preview">
      <g id="icons">
        <path id="linkedin-_x5B__x23_161_x5D_" class="st1" d="M24,24.1h-4.8v-8.4c0-2.3-1-3.6-2.8-3.6s-3.2,1.3-3.2,3.6v8.4h-4.8v-15.6h4.8v1.8s1.5-2.6,4.9-2.6,5.9,2.1,5.9,6.4v10.1h0ZM2.9,6C1.3,6,0,4.6,0,3S1.3,0,2.9,0s2.9,1.3,2.9,3c0,1.6-1.3,3-2.9,3h0ZM0,24.1h6v-15.6H0v15.6Z"/>
      </g>
    </g>
    <g id="Dribbble-Light-Preview1" data-name="Dribbble-Light-Preview">
      <g id="icons1" data-name="icons">
        <path id="linkedin-_x5B__x23_161_x5D_1" data-name="linkedin-_x5B__x23_161_x5D_" class="st0" d="M24,24.1h-4.8v-8.4c0-2.3-1-3.6-2.8-3.6s-3.2,1.3-3.2,3.6v8.4h-4.8v-15.6h4.8v1.8s1.5-2.6,4.9-2.6,5.9,2.1,5.9,6.4v10.1h0ZM2.9,6C1.3,6,0,4.6,0,3S1.3,0,2.9,0s2.9,1.3,2.9,3c0,1.6-1.3,3-2.9,3h0ZM0,24.1h6v-15.6H0v15.6Z"/>
      </g>
    </g>
  </g>
</svg>