<?xml version="1.0" encoding="utf-8"?>
<!DOCTYPE svg PUBLIC "-//W3C//DTD SVG 1.1//EN" "http://www.w3.org/Graphics/SVG/1.1/DTD/svg11.dtd">
<svg version="1.1" xmlns="http://www.w3.org/2000/svg" xmlns:xlink="http://www.w3.org/1999/xlink" x="0px" y="0px" width="175px"
	 height="165px" viewBox="0 0 175 165" enable-background="new 0 0 175 165" xml:space="preserve">
<g id="Flor">
	<animateTransform  type="rotate" 
		fill="remove" calcMode="linear" restart="always" 
		to="-360 87 87" from="0 87 87" additive="replace" 
		dur="120s" accumulate="none" attributeName="transform" 
		repeatCount="indefinite">
	</animateTransform>
	<g>
		<g>
			<g>
				<g>
					<path fill="#FF0033" d="M156.071,64.757c-5.934-18.262-28.042-19.624-38.099-19.666c-3.15-9.554-11.281-30.15-30.473-30.15
						c-19.208,0-27.321,20.596-30.473,30.15c-10.073,0.042-32.165,1.404-38.099,19.666s11.146,32.361,19.259,38.313
						c-3.067,9.57-8.598,31.01,6.939,42.307c15.521,11.279,34.211-0.604,42.374-6.487c8.163,5.884,26.853,17.767,42.374,6.487
						c15.537-11.297,10.005-32.736,6.938-42.307C144.926,97.118,162.007,83.019,156.071,64.757z"/>
					<path fill="#A01537" d="M115.408,150.304L115.408,150.304c-8.363,0-17.482-3.62-27.908-11.096
						c-10.426,7.476-19.562,11.096-27.908,11.096c-5.365,0-10.292-1.592-14.616-4.727c-11.097-8.063-13.477-22.326-7.091-42.424
						C20.906,90.657,14.453,77.718,18.677,64.677c4.24-13.032,17.08-19.711,38.166-19.842C63.48,24.827,73.789,14.681,87.5,14.681
						c13.694,0,24.02,10.146,30.658,30.154c21.068,0.13,33.925,6.81,38.148,19.842c4.241,13.041-2.213,25.98-19.191,38.476
						c6.387,20.098,4.005,34.361-7.09,42.424C125.699,148.712,120.787,150.304,115.408,150.304z M87.5,138.587l0.15,0.101
						c10.242,7.376,19.578,11.114,27.758,11.114l0,0c5.263,0,10.074-1.56,14.314-4.627c10.93-7.945,13.242-22.074,6.855-42.038
						l-0.051-0.168l0.135-0.117c16.896-12.386,23.349-25.172,19.158-38.015c-4.158-12.843-16.896-19.402-37.848-19.502h-0.168
						l-0.066-0.172c-6.555-19.888-16.745-29.978-30.238-29.978s-23.684,10.09-30.238,29.978l-0.05,0.172h-0.185
						c-20.952,0.1-33.691,6.659-37.864,19.502c-4.174,12.843,2.279,25.629,19.175,38.015l0.151,0.117l-0.067,0.168
						c-6.386,19.964-4.072,34.093,6.84,42.038c4.24,3.067,9.067,4.627,14.331,4.627c8.163,0,17.499-3.738,27.756-11.114
						L87.5,138.587z"/>
				</g>
				<path fill="#A01537" d="M150.826,66.11c-5.465-16.867-25.881-18.124-35.167-18.169c-2.916-8.825-10.425-27.85-28.159-27.85
					c-17.734,0-25.243,19.025-28.143,27.85c-9.303,0.046-29.718,1.303-35.2,18.169c-5.48,16.87,10.292,29.885,17.785,35.383
					c-2.833,8.851-7.928,28.664,6.42,39.072c14.348,10.426,31.595-0.554,39.138-5.967c7.543,5.413,24.807,16.393,39.156,5.967
					c14.346-10.408,9.218-30.222,6.385-39.072C140.534,95.995,156.324,82.98,150.826,66.11z"/>
				<g>
					<g>
						<path fill="#FF0033" d="M85.707,34.909c0.905-1.111-5.13-14.998-10.091-9.009C70.671,31.883,84.784,36.011,85.707,34.909z"/>
						<path fill="#A01537" d="M84.969,35.34L84.969,35.34c-2.313,0-8.749-2.107-10.309-5.418c-0.636-1.378-0.385-2.791,0.771-4.186
							c0.872-1.052,1.827-1.584,2.866-1.584c2.564,0,5.062,3.36,6.537,6.503c0.638,1.35,1.576,3.796,1.056,4.412
							C85.74,35.252,85.455,35.34,84.969,35.34z M78.298,24.659c-0.872,0-1.71,0.47-2.481,1.399
							c-1.022,1.233-1.257,2.46-0.704,3.646c1.458,3.084,7.71,5.129,9.855,5.129l0,0c0.453,0,0.537-0.083,0.537-0.092
							c0.167-0.235-0.185-2.053-1.458-4.53C83.376,28.912,80.997,24.659,78.298,24.659z"/>
					</g>
					<g>
						<path fill="#FF0033" d="M87.5,34.397c-1.408,0-7.609-12.169,0-12.169C95.11,22.229,88.908,34.397,87.5,34.397z"/>
						<path fill="#A01537" d="M87.5,34.649c-1.19,0-3.972-5.171-3.972-8.732c0-1.182,0.301-2.121,0.872-2.788
							c0.687-0.763,1.726-1.152,3.101-1.152s2.415,0.389,3.084,1.152c0.586,0.667,0.872,1.605,0.872,2.788
							C91.456,29.478,88.673,34.649,87.5,34.649z M87.5,22.484c-2.263,0-3.436,1.119-3.469,3.34
							c-0.051,3.591,2.849,8.301,3.469,8.317c0.62-0.017,3.502-4.731,3.452-8.317C90.919,23.603,89.762,22.484,87.5,22.484z"/>
					</g>
					<g>
						<path fill="#FF0033" d="M89.293,34.909c-0.921-1.111,5.113-14.998,10.074-9.009C104.346,31.883,90.216,36.011,89.293,34.909z"
							/>
						<path fill="#A01537" d="M90.031,35.34c-0.485,0-0.789-0.088-0.922-0.273c-0.52-0.616,0.419-3.063,1.057-4.412
							c1.475-3.143,3.972-6.503,6.536-6.503c1.022,0,1.995,0.532,2.866,1.584c1.156,1.395,1.425,2.808,0.771,4.186
							C98.781,33.236,92.328,35.34,90.031,35.34z M89.496,34.75c0,0,0.083,0.083,0.536,0.083c2.146,0,8.396-2.045,9.838-5.129
							c0.555-1.186,0.32-2.413-0.686-3.646c-0.771-0.93-1.609-1.399-2.481-1.399c-2.698,0-5.095,4.253-5.767,5.552
							C89.679,32.688,89.31,34.506,89.496,34.75L89.496,34.75z"/>
					</g>
					<g>
						<path fill="#FF0033" d="M91.707,36.639c-0.135-1.454,16.008-9.428,16.678-1.559C109.072,42.945,91.825,38.093,91.707,36.639z"
							/>
						<path fill="#A01537" d="M102.301,39.702c-4.56,0-10.744-1.911-10.845-3.042c-0.017-0.18,0.067-0.377,0.286-0.611
							c1.273-1.388,7.642-4.644,12.268-4.644c2.833,0,4.425,1.266,4.627,3.65c0.117,1.214-0.185,2.212-0.889,2.971
							C106.742,39.141,104.898,39.702,102.301,39.702z M104.01,31.912c-5.012,0-11.951,3.901-12.051,4.714
							c0.201,0.65,5.648,2.569,10.342,2.569c2.414,0,4.19-0.524,5.078-1.513c0.604-0.649,0.855-1.517,0.771-2.585
							C107.967,32.985,106.574,31.912,104.01,31.912z"/>
					</g>
					<g>
						<path fill="#FF0033" d="M83.292,36.639c0.134-1.454-16.007-9.428-16.694-1.559C65.911,42.945,83.176,38.093,83.292,36.639z"/>
						<path fill="#A01537" d="M72.683,39.702L72.683,39.702c-2.582,0-4.425-0.566-5.448-1.676c-0.687-0.758-0.989-1.756-0.888-2.971
							c0.217-2.385,1.81-3.65,4.643-3.65c4.626,0,10.995,3.256,12.27,4.644c0.218,0.234,0.302,0.432,0.285,0.611
							C83.443,37.792,77.258,39.702,72.683,39.702z M70.99,31.912c-2.564,0-3.956,1.073-4.141,3.185
							c-0.083,1.068,0.168,1.936,0.755,2.585c0.921,0.989,2.666,1.513,5.079,1.513c0,0,0,0,0.017,0
							c4.677,0,10.141-1.919,10.342-2.585C82.941,35.81,76.001,31.912,70.99,31.912z"/>
					</g>
					<g>
						<path fill="#FF0033" d="M94.088,39.689c0,3.78-2.951,6.843-6.588,6.843c-3.637,0-6.588-3.063-6.588-6.843
							c0-3.784,2.951-6.847,6.588-6.847C91.137,32.843,94.088,35.905,94.088,39.689z"/>
						<path fill="#A01537" d="M87.5,47.291c-4.057,0-7.358-3.411-7.358-7.602c0-4.19,3.301-7.605,7.358-7.605
							c4.057,0,7.342,3.415,7.342,7.605C94.842,43.88,91.557,47.291,87.5,47.291z M87.5,33.601c-3.219,0-5.833,2.732-5.833,6.088
							c0,3.353,2.615,6.089,5.833,6.089s5.834-2.737,5.834-6.089C93.334,36.333,90.719,33.601,87.5,33.601z"/>
					</g>
					<path fill="#A01537" d="M91.489,39.689c0,2.289-1.793,4.141-3.989,4.141c-2.212,0-3.989-1.852-3.989-4.141
						c0-2.292,1.776-4.14,3.989-4.14C89.696,35.549,91.489,37.397,91.489,39.689z"/>
				</g>
				<g>
					<g>
						<path fill="#FF0033" d="M37.769,72.341c-0.771-1.207-15.841,0.234-11.684,6.806C30.242,85.717,38.523,73.557,37.769,72.341z"
							/>
						<path fill="#A01537" d="M29.136,81.334L29.136,81.334c-1.308,0-2.396-0.691-3.268-2.053c-0.873-1.378-0.989-2.645-0.386-3.763
							c1.458-2.631,6.873-3.817,10.242-3.817c1.29,0,2.045,0.172,2.246,0.511c0.234,0.348,0.017,1.098-0.604,2.234
							C35.791,77.303,32.203,81.334,29.136,81.334z M35.724,72.208c-3.152,0-8.466,1.127-9.789,3.549
							c-0.52,0.952-0.403,2.045,0.368,3.256c0.754,1.208,1.709,1.814,2.833,1.814c2.783,0,6.018-3.679,7.526-6.147
							c0.821-1.374,0.955-2.078,0.888-2.2C37.5,72.409,37.047,72.208,35.724,72.208z"/>
					</g>
					<g>
						<path fill="#FF0033" d="M37.835,70.481C37.4,71.814,23.907,73.95,26.27,66.722C28.616,59.486,38.271,69.144,37.835,70.481z"/>
						<path fill="#A01537" d="M31.969,72.094c-1.592,0-4.425-0.251-5.649-1.932c-0.653-0.91-0.754-2.091-0.301-3.521
							c0.771-2.351,2.263-2.836,3.369-2.836c3.017,0,6.755,3.411,8.079,5.238c0.754,1.043,0.637,1.399,0.604,1.513
							C37.785,71.424,34.549,72.094,31.969,72.094z M29.387,64.304c-1.375,0-2.346,0.838-2.883,2.493
							c-0.419,1.27-0.335,2.296,0.218,3.067c1.089,1.504,3.754,1.727,5.246,1.727c2.95,0,5.481-0.796,5.631-1.19
							c0.017-0.067-0.05-0.407-0.603-1.148C35.438,67.179,31.935,64.304,29.387,64.304z"/>
					</g>
					<g>
						<path fill="#FF0033" d="M38.875,68.926c-1.325,0.532-12.671-9.496-5.448-12.366C40.651,53.686,40.199,68.398,38.875,68.926z"
							/>
						<path fill="#A01537" d="M38.757,69.198c-1.441,0-7.14-4.881-7.895-8.787c-0.368-1.894,0.487-3.302,2.465-4.085
							c0.653-0.26,1.274-0.391,1.844-0.391c2.178,0,3.754,1.912,4.424,5.393c0.621,3.29,0.285,7.463-0.62,7.833
							C38.908,69.186,38.824,69.198,38.757,69.198z M35.17,56.443c-0.503,0-1.073,0.117-1.659,0.352
							c-1.744,0.696-2.465,1.878-2.163,3.516c0.738,3.772,6.386,8.385,7.408,8.385c0.017,0,0.034,0,0.034,0
							c0.486-0.248,1.022-4.274,0.184-7.835C38.506,58.844,37.466,56.443,35.17,56.443z"/>
					</g>
					<g>
						<path fill="#FF0033" d="M41.271,67.17c-1.425-0.327-4.022-18.136,3.67-16.355C52.636,52.596,42.696,67.498,41.271,67.17z"/>
						<path fill="#A01537" d="M41.322,67.43l-0.118-0.012c-1.073-0.251-2.163-6.416-1.643-10.962c0.52-4.5,2.431-6.583,5.448-5.887
							c2.28,0.532,3.336,2.254,3.017,4.986C47.473,60.424,42.679,67.43,41.322,67.43z M43.903,50.945c-1.794,0-3,1.354-3.587,4.044
							c-1.073,4.832,0.335,11.578,1.006,11.935c0.855-0.042,5.649-6.616,6.202-11.432c0.285-2.473-0.604-3.964-2.632-4.429
							C44.54,50.983,44.221,50.945,43.903,50.945z"/>
					</g>
					<g>
						<path fill="#FF0033" d="M38.673,75.17c-1.341-0.566-13.912,12.315-6.638,15.396C39.293,93.649,40.015,75.744,38.673,75.17z"/>
						<path fill="#A01537" d="M33.628,91.169L33.628,91.169c-0.537,0-1.106-0.127-1.693-0.369c-1.944-0.821-2.732-2.428-2.279-4.635
							c0.972-4.823,7.526-11.263,8.917-11.263c0.066,0,0.133,0.013,0.2,0.042c0.956,0.403,0.873,5.33,0.134,8.937
							C38.354,86.604,36.93,91.169,33.628,91.169z M38.573,75.4c-1.073,0.004-7.459,6.126-8.432,10.866
							c-0.402,1.969,0.269,3.343,1.978,4.063c0.537,0.219,1.039,0.335,1.508,0.335c2.263,0,3.554-2.568,4.241-4.725
							C39.277,81.515,39.126,75.794,38.573,75.4z"/>
					</g>
					<g>
						<path fill="#FF0033" d="M44.908,65.846c3.587,1.165,5.599,4.92,4.476,8.381c-1.123,3.466-4.961,5.327-8.548,4.157
							c-3.604-1.165-5.599-4.919-4.476-8.384C37.483,66.538,41.304,64.677,44.908,65.846z"/>
						<path fill="#A01537" d="M43.032,79.49c-0.821,0-1.643-0.13-2.431-0.386c-1.927-0.624-3.503-1.935-4.442-3.691
							c-0.938-1.768-1.123-3.771-0.52-5.648c0.973-3.004,3.822-5.029,7.073-5.029c0.821,0,1.643,0.13,2.431,0.39
							c3.989,1.295,6.201,5.485,4.961,9.336C49.132,77.471,46.283,79.49,43.032,79.49z M42.712,66.252
							c-2.598,0-4.86,1.597-5.632,3.981c-0.485,1.475-0.335,3.059,0.419,4.462c0.754,1.404,2.011,2.465,3.57,2.967
							c0.637,0.21,1.291,0.314,1.961,0.314c2.581,0,4.86-1.604,5.632-3.985c0.989-3.055-0.788-6.391-3.99-7.43
							C44.037,66.357,43.383,66.252,42.712,66.252z"/>
					</g>
					<path fill="#A01537" d="M44.104,68.319c2.179,0.708,3.386,2.984,2.699,5.079c-0.67,2.096-2.984,3.214-5.162,2.506
						c-2.179-0.7-3.386-2.975-2.716-5.07C39.611,68.738,41.925,67.61,44.104,68.319z"/>
				</g>
				<g>
					<g>
						<path fill="#FF0033" d="M58.553,129.502c-1.391,0.369-4.677,15.136,2.866,13.226C68.945,140.8,59.961,129.15,58.553,129.502z"
							/>
						<path fill="#A01537" d="M60.162,143.146L60.162,143.146c-2.063,0-3.319-1.475-3.671-4.273
							c-0.47-3.721,0.872-9.319,2.012-9.604c0.033-0.018,0.083-0.018,0.133-0.018c1.274,0,5.465,5.18,5.95,9.135
							c0.302,2.398-0.771,3.99-3.101,4.576C61.017,143.079,60.564,143.146,60.162,143.146z M58.636,129.755
							c-0.604,0.184-2.229,5.463-1.609,9.387c0.386,2.328,1.426,3.502,3.135,3.502l0,0c0.352,0,0.771-0.051,1.19-0.167
							c2.095-0.537,3-1.894,2.732-4.024C63.598,134.497,59.474,129.755,58.636,129.755z"/>
					</g>
					<g>
						<path fill="#FF0033" d="M56.81,128.866c1.14,0.82-1.006,14.313-7.157,9.838C43.5,134.229,55.67,128.027,56.81,128.866z"/>
						<path fill="#A01537" d="M52.033,139.86c-0.805,0-1.66-0.318-2.531-0.955c-1.994-1.441-1.994-3-1.66-4.072
							c1.056-3.236,6.855-6.287,8.632-6.287c0.218,0,0.369,0.034,0.47,0.119c0.755,0.536,0.386,3.82-0.418,6.285
							C55.92,136.794,54.547,139.86,52.033,139.86z M56.474,129.05c-1.425,0-7.124,2.8-8.146,5.951
							c-0.419,1.291,0.068,2.479,1.476,3.502c0.788,0.569,1.542,0.855,2.229,0.855c2.145,0,3.385-2.732,3.939-4.357
							c1.005-2.967,1.005-5.683,0.687-5.934C56.658,129.067,56.625,129.05,56.474,129.05z"/>
					</g>
					<g>
						<path fill="#FF0033" d="M55.653,127.391c0.083,1.425-12.958,9.118-13.443,1.375C41.707,121.004,55.552,125.966,55.653,127.391
							z"/>
						<path fill="#A01537" d="M45.796,132.419c-2.363,0-3.688-1.258-3.838-3.637c-0.101-1.342,0.235-2.396,0.939-3.152
							c0.854-0.904,2.229-1.374,4.09-1.374c3.671,0,8.85,1.995,8.917,3.118c0.017,0.234-0.117,0.486-0.418,0.805
							C54.111,129.636,49.267,132.419,45.796,132.419z M46.987,124.759c-1.709,0-2.967,0.402-3.722,1.207
							c-0.62,0.653-0.888,1.593-0.804,2.783c0.133,2.094,1.257,3.168,3.334,3.168c4.007,0,9.588-3.822,9.605-4.51
							C55.317,126.854,50.926,124.759,46.987,124.759z"/>
					</g>
					<g>
						<path fill="#FF0033" d="M54.714,124.575c-0.737,1.258-18.489-1.777-14.415-8.549
							C44.372,109.254,55.469,123.317,54.714,124.575z"/>
						<path fill="#A01537" d="M53.407,125.095c-2.884,0-11.382-1.66-13.493-5.398c-0.688-1.206-0.621-2.479,0.167-3.805
							c0.788-1.289,1.861-1.943,3.219-1.943c4.241,0,9.721,6.503,11.179,9.085c0.638,1.122,0.57,1.491,0.453,1.677
							C54.832,124.894,54.547,125.095,53.407,125.095z M43.3,114.45c-1.158,0-2.096,0.57-2.783,1.71
							c-0.688,1.157-0.754,2.263-0.168,3.285c1.928,3.403,10.024,5.146,13.058,5.146c0.938,0,1.105-0.15,1.105-0.15
							c0.034-0.1-0.134-0.82-1.34-2.497C51.026,118.942,46.618,114.45,43.3,114.45z"/>
					</g>
					<g>
						<path fill="#FF0033" d="M61.536,129.519c-0.972,1.106,7.409,17.031,12.588,11.08
							C79.287,134.632,62.475,128.412,61.536,129.519z"/>
						<path fill="#A01537" d="M71.493,142.175L71.493,142.175c-3.654,0-7.744-5.968-9.471-9.739
							c-0.754-1.692-0.988-2.732-0.687-3.084c0.134-0.15,0.352-0.201,0.687-0.201c2.348,0,11.08,3.368,12.957,7.493
							c0.671,1.441,0.437,2.832-0.67,4.123C73.487,141.704,72.532,142.175,71.493,142.175z M62.022,129.636
							c-0.251,0-0.302,0.051-0.302,0.051c-0.15,0.268,0.403,2.163,2.028,4.945c2.012,3.402,5.096,7.039,7.744,7.039l0,0
							c0.905,0,1.71-0.419,2.431-1.24c0.972-1.122,1.173-2.33,0.603-3.586C72.766,132.972,64.218,129.636,62.022,129.636z"/>
					</g>
					<g>
						<path fill="#FF0033" d="M54.58,120.702c2.229-3.067,6.42-3.804,9.353-1.659c2.95,2.146,3.537,6.353,1.324,9.403
							c-2.229,3.067-6.42,3.805-9.37,1.676C52.938,127.978,52.368,123.77,54.58,120.702z"/>
						<path fill="#A01537" d="M59.676,132.101c-1.542,0-3.001-0.47-4.224-1.375c-3.286-2.381-3.939-7.072-1.475-10.459
							c1.441-2.012,3.771-3.201,6.185-3.201c1.525,0,3,0.469,4.224,1.375c1.592,1.139,2.631,2.881,2.899,4.859
							c0.268,1.979-0.235,3.957-1.425,5.6C64.403,130.894,62.106,132.101,59.676,132.101z M60.162,118.575
							c-1.945,0-3.789,0.971-4.962,2.58c-1.978,2.715-1.458,6.453,1.14,8.347c0.972,0.704,2.129,1.09,3.335,1.09
							c1.928,0,3.788-0.972,4.962-2.581c0.955-1.324,1.374-2.916,1.14-4.492c-0.218-1.575-1.023-2.949-2.281-3.871
							C62.525,118.942,61.369,118.575,60.162,118.575z"/>
					</g>
					<path fill="#A01537" d="M56.692,122.228c1.341-1.844,3.872-2.296,5.665-1.006c1.777,1.309,2.129,3.855,0.788,5.699
						c-1.341,1.861-3.889,2.297-5.666,1.006C55.704,126.636,55.351,124.088,56.692,122.228z"/>
				</g>
				<g>
					<g>
						<path fill="#FF0033" d="M119.348,127.391c-0.102,1.425,12.939,9.118,13.46,1.375
							C133.293,121.004,119.432,125.966,119.348,127.391z"/>
						<path fill="#A01537" d="M129.202,132.419L129.202,132.419c-3.485,0-8.313-2.783-9.671-4.24
							c-0.318-0.318-0.453-0.57-0.437-0.805c0.067-1.123,5.231-3.118,8.901-3.118c1.878,0,3.252,0.47,4.106,1.374
							c0.705,0.756,1.022,1.811,0.938,3.152C132.891,131.161,131.566,132.419,129.202,132.419z M127.996,124.759
							c-3.939,0-8.314,2.096-8.397,2.648c0,0.688,5.598,4.51,9.604,4.51l0,0c2.079,0,3.202-1.074,3.337-3.168
							c0.084-1.19-0.201-2.13-0.805-2.783C130.979,125.161,129.723,124.759,127.996,124.759z"/>
					</g>
					<g>
						<path fill="#FF0033" d="M118.191,128.866c1.141-0.839,13.309,5.362,7.156,9.838S117.051,129.687,118.191,128.866z"/>
						<path fill="#A01537" d="M122.967,139.86c-2.514,0-3.905-3.066-4.492-4.91c-0.804-2.465-1.173-5.749-0.435-6.285
							c0.118-0.085,0.269-0.119,0.469-0.119c1.811,0,7.594,3.051,8.649,6.287c0.334,1.072,0.334,2.631-1.676,4.072
							C124.609,139.542,123.773,139.86,122.967,139.86z M118.509,129.05c-0.134,0-0.167,0.018-0.167,0.018
							c-0.318,0.251-0.335,2.983,0.67,5.934c0.553,1.625,1.811,4.357,3.955,4.357c0.705,0,1.443-0.286,2.229-0.855
							c1.409-1.022,1.896-2.211,1.477-3.502C125.65,131.85,119.951,129.05,118.509,129.05z"/>
					</g>
					<g>
						<path fill="#FF0033" d="M116.447,129.502c1.375,0.369,4.66,15.136-2.865,13.226C106.056,140.8,115.057,129.15,116.447,129.502
							z"/>
						<path fill="#A01537" d="M114.84,143.146c-0.404,0-0.856-0.066-1.325-0.184c-2.331-0.586-3.403-2.178-3.117-4.576
							c0.519-3.955,4.692-9.135,5.967-9.135c0.05,0,0.083,0,0.134,0.018c1.123,0.284,2.48,5.883,2.011,9.604
							C118.158,141.671,116.884,143.146,114.84,143.146z M116.364,129.755c-0.839,0-4.962,4.742-5.448,8.697
							c-0.285,2.131,0.637,3.487,2.732,4.024c2.396,0.62,3.871-0.52,4.308-3.335C118.594,135.218,116.967,129.938,116.364,129.755z"
							/>
					</g>
					<g>
						<path fill="#FF0033" d="M113.464,129.519c0.955,1.106-7.392,17.031-12.571,11.08
							C95.715,134.632,112.508,128.412,113.464,129.519z"/>
						<path fill="#A01537" d="M103.508,142.175c-1.056,0-1.994-0.471-2.816-1.408c-1.106-1.291-1.342-2.682-0.688-4.123
							c1.895-4.125,10.627-7.493,12.957-7.493c0.353,0,0.57,0.051,0.705,0.201c0.301,0.352,0.066,1.408-0.705,3.101
							C111.234,136.207,107.161,142.175,103.508,142.175z M112.961,129.636c-2.179,0-10.729,3.336-12.487,7.209
							c-0.587,1.256-0.368,2.464,0.603,3.586c0.722,0.821,1.543,1.24,2.432,1.24c2.648,0,5.732-3.619,7.727-7.021
							c1.643-2.783,2.195-4.695,2.045-4.963C113.279,129.687,113.213,129.636,112.961,129.636z"/>
					</g>
					<g>
						<path fill="#FF0033" d="M120.27,124.575c0.754,1.258,18.487-1.777,14.432-8.549
							C130.628,109.254,119.531,123.317,120.27,124.575z"/>
						<path fill="#A01537" d="M121.594,125.095L121.594,125.095c-1.141,0-1.426-0.201-1.543-0.385
							c-0.1-0.186-0.166-0.555,0.453-1.677c1.475-2.582,6.939-9.085,11.197-9.085c1.357,0,2.43,0.654,3.201,1.943
							c0.805,1.325,0.871,2.599,0.184,3.805C132.975,123.435,124.46,125.095,121.594,125.095z M120.504,124.457
							c0,0,0.184,0.134,1.09,0.134c3.033,0,11.129-1.742,13.057-5.146c0.57-1.022,0.52-2.128-0.166-3.285
							c-0.689-1.14-1.627-1.71-2.783-1.71c-3.318,0-7.728,4.477-9.891,7.493C120.621,123.62,120.453,124.341,120.504,124.457
							L120.504,124.457z"/>
					</g>
					<g>
						<path fill="#FF0033" d="M109.743,128.446c-2.229-3.051-1.626-7.258,1.308-9.403c2.949-2.145,7.141-1.392,9.354,1.659
							c2.229,3.067,1.641,7.275-1.293,9.42C116.162,132.251,111.973,131.514,109.743,128.446z"/>
						<path fill="#A01537" d="M115.324,132.101c-2.414,0-4.743-1.207-6.185-3.201c-2.464-3.387-1.811-8.096,1.475-10.459
							c1.225-0.906,2.682-1.375,4.226-1.375c2.412,0,4.725,1.189,6.184,3.201c1.189,1.627,1.693,3.62,1.424,5.6
							c-0.268,1.977-1.307,3.703-2.898,4.859C118.309,131.631,116.866,132.101,115.324,132.101z M114.84,118.575
							c-1.225,0-2.365,0.367-3.337,1.072c-2.599,1.894-3.118,5.648-1.157,8.363c1.174,1.609,3.035,2.581,4.979,2.581
							c1.225,0,2.363-0.386,3.336-1.09c1.258-0.905,2.078-2.28,2.279-3.854c0.219-1.576-0.186-3.185-1.14-4.492
							C118.643,119.546,116.783,118.575,114.84,118.575z"/>
					</g>
					<path fill="#A01537" d="M111.854,126.921c-1.341-1.844-0.987-4.391,0.788-5.699c1.793-1.29,4.324-0.838,5.666,1.006
						c1.34,1.86,0.989,4.408-0.789,5.699C115.727,129.218,113.195,128.782,111.854,126.921z"/>
				</g>
				<g>
					<g>
						<path fill="#FF0033" d="M136.109,68.926c1.357,0.532,12.688-9.496,5.463-12.366C134.35,53.686,134.784,68.398,136.109,68.926z
							"/>
						<path fill="#A01537" d="M136.243,69.198L136.243,69.198c-0.083,0-0.151-0.012-0.218-0.037
							c-0.922-0.369-1.258-4.542-0.621-7.833c0.671-3.481,2.246-5.393,4.425-5.393c0.57,0,1.19,0.13,1.828,0.391
							c1.994,0.783,2.833,2.2,2.48,4.085C143.383,64.317,137.685,69.198,136.243,69.198z M139.829,56.443
							c-2.296,0-3.335,2.401-3.82,4.417c-0.821,3.561-0.285,7.588,0.201,7.835h0.033c1.022,0,6.672-4.604,7.392-8.385
							c0.318-1.638-0.402-2.819-2.162-3.516C140.902,56.56,140.333,56.443,139.829,56.443z"/>
					</g>
					<g>
						<path fill="#FF0033" d="M137.165,70.481c-0.436-1.337,9.22-10.996,11.565-3.759C151.076,73.95,137.6,71.814,137.165,70.481z"
							/>
						<path fill="#A01537" d="M143.049,72.094c-2.615,0-5.85-0.67-6.136-1.538c-0.034-0.113-0.15-0.469,0.62-1.513
							c1.324-1.827,5.045-5.238,8.079-5.238c1.124,0,2.599,0.486,3.353,2.836c0.469,1.43,0.369,2.611-0.285,3.521
							C147.457,71.843,144.625,72.094,143.049,72.094z M145.612,64.304c-2.563,0-6.05,2.875-7.609,4.949
							c-0.553,0.742-0.62,1.082-0.603,1.148c0.15,0.394,2.682,1.19,5.648,1.19c1.475,0,4.139-0.222,5.212-1.727
							c0.569-0.771,0.655-1.798,0.235-3.067C147.96,65.142,146.986,64.304,145.612,64.304z"/>
					</g>
					<g>
						<path fill="#FF0033" d="M137.232,72.341c0.771-1.207,15.84,0.234,11.684,6.806C144.758,85.717,136.461,73.561,137.232,72.341z
							"/>
						<path fill="#A01537" d="M145.865,81.334c-3.068,0-6.656-4.023-8.231-6.885c-0.638-1.131-0.838-1.885-0.62-2.238
							c0.219-0.339,0.973-0.511,2.263-0.511c3.368,0,8.784,1.186,10.241,3.817c0.62,1.119,0.469,2.389-0.385,3.763
							C148.261,80.643,147.171,81.334,145.865,81.334z M139.276,72.208c-1.341,0-1.776,0.201-1.826,0.272
							c-0.067,0.122,0.05,0.826,0.888,2.191c1.491,2.477,4.728,6.155,7.527,6.155c1.121,0,2.078-0.607,2.831-1.814
							c0.772-1.21,0.889-2.304,0.37-3.256C147.725,73.343,142.428,72.208,139.276,72.208z"/>
					</g>
					<g>
						<path fill="#FF0033" d="M136.326,75.17c1.342-0.566,13.914,12.315,6.639,15.396C135.69,93.649,134.985,75.744,136.326,75.17z"
							/>
						<path fill="#A01537" d="M141.371,91.169c-3.301,0-4.742-4.564-5.279-7.289c-0.738-3.606-0.821-8.534,0.135-8.937
							c0.066-0.028,0.134-0.042,0.2-0.042c1.375,0,7.945,6.44,8.917,11.263c0.454,2.207-0.334,3.813-2.278,4.635
							C142.479,91.042,141.908,91.169,141.371,91.169z M136.427,75.405c-0.553,0.39-0.703,6.11,0.705,10.539
							c0.688,2.153,1.978,4.722,4.239,4.722c0.471,0,0.974-0.116,1.494-0.335c1.727-0.721,2.379-2.095,1.993-4.063
							C143.887,81.527,137.5,75.405,136.427,75.405z"/>
					</g>
					<g>
						<path fill="#FF0033" d="M133.729,67.17c1.425-0.327,4.006-18.136-3.67-16.355C122.364,52.596,132.305,67.498,133.729,67.17z"
							/>
						<path fill="#A01537" d="M133.678,67.43c-1.357,0-6.151-7.006-6.704-11.884c-0.317-2.724,0.738-4.446,3.034-4.978
							c2.983-0.696,4.911,1.387,5.432,5.892c0.518,4.551-0.588,10.707-1.66,10.958L133.678,67.43z M131.082,50.945
							c-0.304,0-0.622,0.038-0.974,0.118c-2.029,0.474-2.916,1.957-2.632,4.429c0.535,4.819,5.348,11.411,6.201,11.432
							c0.654-0.327,2.08-7.09,1.006-11.93C134.098,52.308,132.875,50.945,131.082,50.945z"/>
					</g>
					<g>
						<path fill="#FF0033" d="M134.164,78.384c-3.604,1.17-7.424-0.691-8.548-4.157c-1.123-3.461,0.888-7.216,4.476-8.381
							c3.586-1.169,7.408,0.691,8.549,4.153C139.762,73.465,137.752,77.219,134.164,78.384z"/>
						<path fill="#A01537" d="M131.969,79.49c-3.252,0-6.102-2.02-7.073-5.028c-1.257-3.851,0.972-8.041,4.962-9.336
							c0.787-0.26,1.592-0.39,2.43-0.39c3.252,0,6.102,2.024,7.074,5.029c1.258,3.854-0.973,8.045-4.962,9.34
							C133.611,79.36,132.808,79.49,131.969,79.49z M132.287,66.252c-0.67,0-1.324,0.105-1.961,0.311
							c-3.201,1.039-4.979,4.375-3.99,7.43c0.789,2.38,3.034,3.985,5.633,3.985c0.671,0,1.324-0.104,1.962-0.31
							c3.201-1.043,4.978-4.375,3.989-7.434C137.132,67.849,134.885,66.252,132.287,66.252z"/>
					</g>
					<path fill="#A01537" d="M133.36,75.912c-2.179,0.7-4.492-0.418-5.163-2.514c-0.688-2.095,0.52-4.371,2.697-5.074
						c2.18-0.713,4.492,0.415,5.164,2.51C136.746,72.928,135.539,75.203,133.36,75.912z"/>
				</g>
				<g>
					<path fill="#FF0033" d="M135.59,86.618c0,26.559-21.523,48.098-48.09,48.098c-26.567,0-48.089-21.539-48.089-48.098
						c0-26.563,21.521-48.098,48.089-48.098C114.066,38.521,135.59,60.056,135.59,86.618z"/>
					<path fill="#A01537" d="M87.5,134.967c-26.651,0-48.357-21.689-48.357-48.349c0-26.664,21.707-48.353,48.357-48.353
						c26.668,0,48.341,21.689,48.341,48.353C135.841,113.277,114.168,134.967,87.5,134.967z M87.5,38.772
						c-26.383,0-47.854,21.459-47.854,47.846c0,26.375,21.471,47.846,47.854,47.846s47.837-21.471,47.837-47.846
						C135.337,60.231,113.883,38.772,87.5,38.772z"/>
				</g>
				<g>
					<g>
						<polygon fill="#A01537" points="81.047,15.733 80.678,11.673 81.197,11.622 81.55,15.691 						"/>
					</g>
					<g>
						
							<rect x="72.87" y="15.721" transform="matrix(0.174 0.9847 -0.9847 0.174 77.7151 -60.6966)" fill="#A01537" width="4.336" height="0.511"/>
					</g>
					<g>
						
							<rect x="33.454" y="129.484" transform="matrix(0.6375 0.7705 -0.7705 0.6375 113.7313 21.7964)" fill="#A01537" width="0.499" height="4.545"/>
					</g>
					<g>
						
							<rect x="32.405" y="115.543" transform="matrix(0.5007 0.8656 -0.8656 0.5007 118.6881 30.7864)" fill="#A01537" width="0.503" height="5.475"/>
					</g>
					<g>
						<polygon fill="#A01537" points="30.695,126.702 30.394,126.284 34.533,123.401 34.817,123.804 						"/>
					</g>
					<g>
						<polygon fill="#A01537" points="31.013,113.243 30.795,112.774 36.008,110.344 36.226,110.796 						"/>
					</g>
					<g>
						<polygon fill="#A01537" points="32.253,106.991 32.086,106.522 37.567,104.528 37.735,104.996 						"/>
					</g>
					<g>
						<polygon fill="#A01537" points="43.987,149.196 43.568,148.913 45.746,145.794 46.166,146.097 						"/>
					</g>
					<g>
						
							<rect x="50.389" y="148.509" transform="matrix(0.8652 0.5013 -0.5013 0.8652 82.2488 -5.1157)" fill="#A01537" width="0.505" height="3.874"/>
					</g>
					<g>
						<polygon fill="#A01537" points="56.407,153.891 55.955,153.672 57.715,149.901 58.167,150.103 						"/>
					</g>
					<g>
						<polygon fill="#A01537" points="34.852,139.609 34.5,139.258 37.417,136.342 37.785,136.693 						"/>
					</g>
					<g>
						<polygon fill="#A01537" points="38.891,144.94 38.506,144.604 40.986,141.655 41.373,141.973 						"/>
					</g>
					<g>
						<polygon fill="#A01537" points="29.672,102.366 29.539,101.879 34.986,100.421 35.12,100.925 						"/>
					</g>
					<g>
						<polygon fill="#A01537" points="19.9,62.277 16.196,60.927 16.364,60.454 20.068,61.802 						"/>
					</g>
					<g>
						<polygon fill="#A01537" points="18.04,68.264 14.235,67.246 14.369,66.76 18.174,67.774 						"/>
					</g>
					<g>
						<polygon fill="#A01537" points="17.739,74.575 13.731,73.867 13.816,73.364 17.839,74.077 						"/>
					</g>
					<g>
						<polygon fill="#A01537" points="63.229,154.042 62.76,153.857 64.334,149.55 64.805,149.717 						"/>
					</g>
					<g>
						<polygon fill="#A01537" points="23.219,56.92 19.481,55.173 19.682,54.717 23.437,56.468 						"/>
					</g>
					<g>
						<polygon fill="#A01537" points="25.046,97.89 24.945,97.387 30.377,96.433 30.477,96.935 						"/>
					</g>
					<g>
						<polygon fill="#A01537" points="27.962,52.534 24.041,50.271 24.292,49.835 28.214,52.089 						"/>
					</g>
					<g>
						<polygon fill="#A01537" points="19.146,80.89 14.771,80.504 14.804,80.002 19.196,80.387 						"/>
					</g>
					<g>
						<polygon fill="#A01537" points="20.789,92.711 20.738,92.208 25.952,91.737 25.985,92.259 						"/>
					</g>
					<g>
						<rect x="17.235" y="86.362" fill="#A01537" width="4.811" height="0.508"/>
					</g>
					<g>
						<polygon fill="#A01537" points="144.305,126.702 140.166,123.819 140.467,123.401 144.592,126.284 						"/>
					</g>
					<g>
						<polygon fill="#A01537" points="142.882,133.407 139.395,130.491 139.713,130.106 143.199,133.022 						"/>
					</g>
					<g>
						<polygon fill="#A01537" points="143.987,113.243 138.757,110.796 138.992,110.344 144.205,112.774 						"/>
					</g>
					<g>
						
							<rect x="139.607" y="118.028" transform="matrix(0.8666 0.4989 -0.4989 0.8666 77.9985 -55.2477)" fill="#A01537" width="5.476" height="0.504"/>
					</g>
					<g>
						<polygon fill="#A01537" points="136.109,144.94 133.627,141.99 134.014,141.655 136.494,144.604 						"/>
					</g>
					<g>
						<polygon fill="#A01537" points="131.013,149.196 128.835,146.097 129.254,145.794 131.416,148.913 						"/>
					</g>
					<g>
						
							<rect x="136.802" y="137.727" transform="matrix(0.7052 0.709 -0.709 0.7052 138.76 -57.7766)" fill="#A01537" width="4.113" height="0.497"/>
					</g>
					<g>
						
							<rect x="137.158" y="105.512" transform="matrix(0.94 0.3412 -0.3412 0.94 44.4945 -41.4511)" fill="#A01537" width="5.847" height="0.496"/>
					</g>
					<g>
						<polygon fill="#A01537" points="149.953,97.89 144.523,96.935 144.607,96.433 150.037,97.387 						"/>
					</g>
					<g>
						<polygon fill="#A01537" points="70.018,152.853 69.532,152.718 70.839,147.839 71.325,147.974 						"/>
					</g>
					<g>
						<polygon fill="#A01537" points="145.328,102.366 139.879,100.925 140.015,100.421 145.461,101.879 						"/>
					</g>
					<g>
						<polygon fill="#A01537" points="82.405,147.806 81.885,147.756 82.388,142.158 82.891,142.191 						"/>
					</g>
					<g>
						<rect x="87.249" y="138.889" fill="#A01537" width="0.503" height="5.649"/>
					</g>
					<g>
						<polygon fill="#A01537" points="92.596,147.806 92.109,142.191 92.611,142.158 93.099,147.756 						"/>
					</g>
					<g>
						
							<rect x="76.434" y="145.242" transform="matrix(0.9854 0.17 -0.17 0.9854 26.2684 -10.8825)" fill="#A01537" width="0.494" height="5.412"/>
					</g>
					<g>
						<polygon fill="#A01537" points="125.113,152.248 123.152,148.896 123.604,148.645 125.533,151.995 						"/>
					</g>
					<g>
						<polygon fill="#A01537" points="98.53,150.655 97.591,145.325 98.094,145.241 99.032,150.571 						"/>
					</g>
					<g>
						<polygon fill="#A01537" points="104.982,152.853 103.676,147.974 104.162,147.839 105.469,152.718 						"/>
					</g>
					<g>
						<polygon fill="#A01537" points="118.594,153.891 116.816,150.103 117.285,149.901 119.045,153.672 						"/>
					</g>
					<g>
						<polygon fill="#A01537" points="111.77,154.042 110.195,149.717 110.682,149.55 112.24,153.857 						"/>
					</g>
					<g>
						<polygon fill="#A01537" points="157.262,74.575 157.161,74.077 161.184,73.364 161.269,73.867 						"/>
					</g>
					<g>
						<polygon fill="#A01537" points="155.854,80.886 155.82,80.387 160.195,80.002 160.229,80.504 						"/>
					</g>
					<g>
						<rect x="152.954" y="86.362" fill="#A01537" width="4.812" height="0.508"/>
					</g>
					<g>
						<polygon fill="#A01537" points="154.211,92.711 149.016,92.259 149.066,91.737 154.262,92.208 						"/>
					</g>
					<g>
						
							<rect x="148.611" y="48.927" transform="matrix(0.497 0.8678 -0.8678 0.497 119.2977 -103.4335)" fill="#A01537" width="0.507" height="4.51"/>
					</g>
					<g>
						<polygon fill="#A01537" points="151.765,56.92 151.563,56.468 155.301,54.717 155.519,55.173 						"/>
					</g>
					<g>
						<polygon fill="#A01537" points="33.746,49.286 29.656,46.428 29.957,46.013 34.031,48.875 						"/>
					</g>
					<g>
						<polygon fill="#A01537" points="40.064,47.149 35.891,43.645 36.226,43.264 40.399,46.759 						"/>
					</g>
					<g>
						<polygon fill="#A01537" points="156.961,68.264 156.844,67.774 160.614,66.76 160.749,67.246 						"/>
					</g>
					<g>
						<polygon fill="#A01537" points="155.1,62.277 154.932,61.802 158.637,60.454 158.804,60.927 						"/>
					</g>
					<g>
						<polygon fill="#A01537" points="141.238,49.286 140.953,48.875 145.043,46.013 145.328,46.428 						"/>
					</g>
					<g>
						<rect x="87.249" y="10.939" fill="#A01537" width="0.503" height="4.001"/>
					</g>
					<g>
						
							<rect x="67.217" y="19.477" transform="matrix(0.2588 0.9659 -0.9659 0.2588 70.6341 -52.5878)" fill="#A01537" width="4.729" height="0.503"/>
					</g>
					<g>
						
							<rect x="62.334" y="24.332" transform="matrix(0.3433 0.9392 -0.9392 0.3433 65.7236 -44.8337)" fill="#A01537" width="5.175" height="0.499"/>
					</g>
					<g>
						<polygon fill="#A01537" points="62.072,32.683 59.726,27.659 60.195,27.446 62.525,32.465 						"/>
					</g>
					<g>
						
							<rect x="55.251" y="35.497" transform="matrix(0.5003 0.8659 -0.8659 0.5003 60.0047 -32.4712)" fill="#A01537" width="5.764" height="0.503"/>
					</g>
					<g>
						<polygon fill="#A01537" points="57.262,43.88 53.942,39.125 54.346,38.835 57.681,43.591 						"/>
					</g>
					<g>
						<polygon fill="#A01537" points="134.919,47.149 134.601,46.759 138.757,43.26 139.093,43.645 						"/>
					</g>
					<g>
						<polygon fill="#A01537" points="46.451,45.921 42.361,41.835 42.712,41.479 46.803,45.564 						"/>
					</g>
					<g>
						<polygon fill="#A01537" points="52.553,45.359 48.73,40.817 49.132,40.49 52.938,45.033 						"/>
					</g>
					<g>
						
							<rect x="116.615" y="32.867" transform="matrix(0.8656 0.5007 -0.5007 0.8656 33.607 -53.7139)" fill="#A01537" width="0.503" height="5.763"/>
					</g>
					<g>
						
							<rect x="113.625" y="27.29" transform="matrix(0.9074 0.4204 -0.4204 0.9074 23.186 -45.0837)" fill="#A01537" width="0.498" height="5.541"/>
					</g>
					<g>
						<polygon fill="#A01537" points="122.447,45.359 122.063,45.033 125.867,40.49 126.253,40.817 						"/>
					</g>
					<g>
						<polygon fill="#A01537" points="117.723,43.88 117.318,43.591 120.637,38.835 121.058,39.125 						"/>
					</g>
					<g>
						<polygon fill="#A01537" points="93.953,15.733 93.451,15.691 93.802,11.622 94.305,11.673 						"/>
					</g>
					<g>
						<polygon fill="#A01537" points="128.549,45.921 128.197,45.564 132.271,41.479 132.623,41.835 						"/>
					</g>
					<g>
						<polygon fill="#A01537" points="99.82,18.155 99.334,18.063 100.072,13.797 100.574,13.885 						"/>
					</g>
					<g>
						
							<rect x="109.819" y="21.996" transform="matrix(0.9394 0.3428 -0.3428 0.9394 15.0933 -36.2385)" fill="#A01537" width="0.5" height="5.17"/>
					</g>
					<g>
						
							<rect x="105.167" y="17.365" transform="matrix(0.9659 0.259 -0.259 0.9659 8.7067 -26.6296)" fill="#A01537" width="0.501" height="4.728"/>
					</g>
				</g>
				<g>
					<g>
						<polygon fill="#A01537" points="104.665,50.388 104.211,50.174 107.598,42.908 108.067,43.122 						"/>
					</g>
					<g>
						
							<rect x="109.298" y="44.42" transform="matrix(0.8665 0.4992 -0.4992 0.8665 38.7969 -48.2189)" fill="#A01537" width="0.504" height="8.013"/>
					</g>
					<g>
						<polygon fill="#A01537" points="50.825,117.718 50.49,117.333 56.642,112.188 56.96,112.573 						"/>
					</g>
					<g>
						<polygon fill="#A01537" points="53.675,120.804 53.306,120.451 58.971,114.769 59.341,115.138 						"/>
					</g>
					<g>
						<polygon fill="#A01537" points="48.244,114.417 47.959,113.998 54.513,109.388 54.815,109.824 						"/>
					</g>
					<g>
						
							<rect x="49.057" y="104.652" transform="matrix(0.5007 0.8656 -0.8656 0.5007 118.6737 11.5681)" fill="#A01537" width="0.503" height="8.014"/>
					</g>
					<g>
						<polygon fill="#A01537" points="44.003,107.176 43.786,106.724 51.06,103.337 51.278,103.79 						"/>
					</g>
					<g>
						<polygon fill="#A01537" points="42.377,103.304 42.21,102.835 49.736,100.086 49.92,100.571 						"/>
					</g>
					<g>
						<polygon fill="#A01537" points="54.513,63.831 47.959,59.234 48.244,58.819 54.815,63.42 						"/>
					</g>
					<g>
						
							<rect x="45.302" y="64.316" transform="matrix(0.8661 0.4999 -0.4999 0.8661 38.8822 -16.0029)" fill="#A01537" width="8.013" height="0.504"/>
					</g>
					<g>
						
							<rect x="65.199" y="120.794" transform="matrix(0.8673 0.4978 -0.4978 0.8673 70.8135 -16.0189)" fill="#A01537" width="0.502" height="8.013"/>
					</g>
					<g>
						<polygon fill="#A01537" points="67.402,130.325 66.95,130.106 70.336,122.849 70.788,123.05 						"/>
					</g>
					<g>
						<polygon fill="#A01537" points="60.111,126.167 59.709,125.866 64.301,119.312 64.721,119.596 						"/>
					</g>
					<g>
						<polygon fill="#A01537" points="56.776,123.62 56.39,123.3 61.536,117.149 61.938,117.485 						"/>
					</g>
					<g>
						<polygon fill="#A01537" points="51.06,69.903 43.786,66.513 44.003,66.056 51.278,69.446 						"/>
					</g>
					<g>
						<polygon fill="#A01537" points="48.713,76.486 40.969,74.407 41.104,73.922 48.848,75.996 						"/>
					</g>
					<g>
						<polygon fill="#A01537" points="47.976,79.905 40.081,78.51 40.165,78.011 48.061,79.407 						"/>
					</g>
					<g>
						<polygon fill="#A01537" points="49.736,73.142 42.21,70.393 42.377,69.928 49.92,72.664 						"/>
					</g>
					<g>
						<polygon fill="#A01537" points="40.165,95.208 40.081,94.723 47.976,93.331 48.061,93.834 						"/>
					</g>
					<g>
						<polygon fill="#A01537" points="41.104,99.315 40.969,98.828 48.713,96.751 48.848,97.236 						"/>
					</g>
					<g>
						<polygon fill="#A01537" points="71.274,131.917 70.805,131.731 73.554,124.206 74.024,124.374 						"/>
					</g>
					<g>
						<polygon fill="#A01537" points="47.541,83.374 39.562,82.671 39.611,82.172 47.591,82.867 						"/>
					</g>
					<g>
						<polygon fill="#A01537" points="39.611,91.06 39.562,90.549 47.541,89.86 47.591,90.355 						"/>
					</g>
					<g>
						<rect x="39.411" y="86.362" fill="#A01537" width="8.012" height="0.508"/>
					</g>
					<g>
						<polygon fill="#A01537" points="124.191,117.718 118.04,112.573 118.358,112.188 124.51,117.333 						"/>
					</g>
					<g>
						<polygon fill="#A01537" points="126.74,114.417 120.185,109.824 120.471,109.388 127.041,113.998 						"/>
					</g>
					<g>
						<polygon fill="#A01537" points="129.035,110.88 122.098,106.874 122.331,106.438 129.287,110.444 						"/>
					</g>
					<g>
						<polygon fill="#A01537" points="118.225,123.62 113.061,117.485 113.447,117.149 118.594,123.3 						"/>
					</g>
					<g>
						<polygon fill="#A01537" points="121.324,120.804 115.659,115.138 116.028,114.769 121.678,120.451 						"/>
					</g>
					<g>
						<polygon fill="#A01537" points="130.979,107.176 123.722,103.79 123.94,103.337 131.198,106.724 						"/>
					</g>
					<g>
						<polygon fill="#A01537" points="132.623,103.304 125.08,100.571 125.247,100.086 132.791,102.835 						"/>
					</g>
					<g>
						<polygon fill="#A01537" points="133.896,99.315 126.152,97.236 126.286,96.751 134.031,98.828 						"/>
					</g>
					<g>
						<polygon fill="#A01537" points="134.818,95.208 126.939,93.834 127.024,93.331 134.919,94.723 						"/>
					</g>
					<g>
						<polygon fill="#A01537" points="135.387,91.06 127.393,90.355 127.443,89.86 135.439,90.549 						"/>
					</g>
					<g>
						<polygon fill="#A01537" points="114.873,126.167 110.279,119.596 110.697,119.312 115.291,125.866 						"/>
					</g>
					<g>
						<polygon fill="#A01537" points="83.561,134.547 83.058,134.497 83.746,126.519 84.265,126.569 						"/>
					</g>
					<g>
						<rect x="87.249" y="126.702" fill="#A01537" width="0.503" height="8.014"/>
					</g>
					<g>
						<polygon fill="#A01537" points="75.297,133.157 74.812,133.005 76.873,125.278 77.376,125.396 						"/>
					</g>
					<g>
						<polygon fill="#A01537" points="91.439,134.547 90.735,126.569 91.238,126.519 91.941,134.497 						"/>
					</g>
					<g>
						
							<rect x="79.593" y="126.03" transform="matrix(0.9857 0.1682 -0.1682 0.9857 23.0171 -11.5792)" fill="#A01537" width="0.493" height="8.016"/>
					</g>
					<g>
						<polygon fill="#A01537" points="95.597,134.045 94.205,126.134 94.708,126.05 96.1,133.944 						"/>
					</g>
					<g>
						
							<rect x="105.545" y="124.548" transform="matrix(0.5 0.866 -0.866 0.5 162.847 -32.476)" fill="#A01537" width="8.011" height="0.505"/>
					</g>
					<g>
						<polygon fill="#A01537" points="99.703,133.157 97.624,125.396 98.11,125.278 100.189,133.005 						"/>
					</g>
					<g>
						<polygon fill="#A01537" points="107.598,130.325 104.211,123.05 104.665,122.849 108.067,130.106 						"/>
					</g>
					<g>
						<polygon fill="#A01537" points="103.709,131.917 100.977,124.374 101.445,124.206 104.195,131.731 						"/>
					</g>
					<g>
						<polygon fill="#A01537" points="127.443,83.374 127.393,82.867 135.387,82.172 135.439,82.671 						"/>
					</g>
					<g>
						<polygon fill="#A01537" points="127.024,79.905 126.939,79.407 134.818,78.011 134.919,78.51 						"/>
					</g>
					<g>
						<rect x="127.577" y="86.362" fill="#A01537" width="8.013" height="0.508"/>
					</g>
					<g>
						<polygon fill="#A01537" points="126.286,76.486 126.152,75.996 133.896,73.922 134.031,74.407 						"/>
					</g>
					<g>
						<polygon fill="#A01537" points="125.247,73.142 125.08,72.664 132.623,69.919 132.791,70.393 						"/>
					</g>
					<g>
						<polygon fill="#A01537" points="122.331,66.789 122.098,66.354 129.035,62.347 129.287,62.779 						"/>
					</g>
					<g>
						<polygon fill="#A01537" points="120.471,63.831 120.185,63.42 126.74,58.819 127.041,59.234 						"/>
					</g>
					<g>
						<polygon fill="#A01537" points="123.94,69.903 123.722,69.446 130.979,66.056 131.198,66.513 						"/>
					</g>
					<g>
						<polygon fill="#A01537" points="56.642,61.044 50.49,55.894 50.825,55.504 56.96,60.659 						"/>
					</g>
					<g>
						<polygon fill="#A01537" points="67.235,52.031 63.229,45.083 63.665,44.831 67.67,51.771 						"/>
					</g>
					<g>
						
							<rect x="64.861" y="46.398" transform="matrix(0.4224 0.9064 -0.9064 0.4224 82.0624 -35.4797)" fill="#A01537" width="8.017" height="0.5"/>
					</g>
					<g>
						<polygon fill="#A01537" points="73.554,49.026 70.805,41.492 71.274,41.315 74.024,48.854 						"/>
					</g>
					<g>
						<polygon fill="#A01537" points="83.746,46.709 83.058,38.722 83.561,38.68 84.265,46.667 						"/>
					</g>
					<g>
						<rect x="87.249" y="38.521" fill="#A01537" width="0.503" height="8.012"/>
					</g>
					<g>
						<polygon fill="#A01537" points="80.292,47.187 78.901,39.283 79.387,39.195 80.779,47.094 						"/>
					</g>
					<g>
						<polygon fill="#A01537" points="76.873,47.962 74.812,40.214 75.297,40.084 77.376,47.828 						"/>
					</g>
					<g>
						<polygon fill="#A01537" points="58.971,58.45 53.306,52.781 53.675,52.424 59.341,58.094 						"/>
					</g>
					<g>
						<polygon fill="#A01537" points="61.536,56.07 56.39,49.935 56.776,49.612 61.938,55.751 						"/>
					</g>
					<g>
						<polygon fill="#A01537" points="118.358,61.044 118.04,60.659 124.191,55.504 124.51,55.894 						"/>
					</g>
					<g>
						<polygon fill="#A01537" points="64.301,53.929 59.709,47.358 60.111,47.073 64.721,53.636 						"/>
					</g>
					<g>
						
							<rect x="112.53" y="46.492" transform="matrix(0.8189 0.574 -0.574 0.8189 49.4136 -55.5892)" fill="#A01537" width="0.51" height="8.014"/>
					</g>
					<g>
						<polygon fill="#A01537" points="116.028,58.45 115.659,58.094 121.324,52.424 121.678,52.781 						"/>
					</g>
					<g>
						<polygon fill="#A01537" points="113.447,56.07 113.061,55.751 118.225,49.608 118.594,49.935 						"/>
					</g>
					<g>
						
							<rect x="94.897" y="39.181" transform="matrix(0.9834 0.1814 -0.1814 0.9834 9.4138 -16.5445)" fill="#A01537" width="0.511" height="8.02"/>
					</g>
					<g>
						
							<rect x="98.654" y="40.014" transform="matrix(0.9639 0.2661 -0.2661 0.9639 15.2838 -24.7359)" fill="#A01537" width="0.505" height="8.018"/>
					</g>
					<g>
						
							<rect x="91.087" y="38.685" transform="matrix(0.9965 0.0832 -0.0832 0.9965 3.8691 -7.4519)" fill="#A01537" width="0.505" height="8.018"/>
					</g>
					<g>
						<polygon fill="#A01537" points="101.445,49.026 100.977,48.854 103.709,41.315 104.195,41.492 						"/>
					</g>
				</g>
			</g>
			<path fill="none" stroke="#A01537" stroke-width="0.1417" stroke-miterlimit="10" d="M159.76,63.441
				c-6.688-20.625-30.355-22.809-38.402-23.127C118.559,32.75,109.19,10.939,87.5,10.939c-21.689,0-31.076,21.811-33.859,29.375
				c-8.062,0.319-31.696,2.502-38.4,23.127C8.536,84.07,26.387,99.733,32.707,104.728c-2.179,7.762-7.409,30.909,10.124,43.666
				c17.549,12.754,37.965,0.619,44.67-3.855c6.705,4.475,27.104,16.609,44.652,3.855c17.551-12.757,12.32-35.904,10.141-43.666
				C148.613,99.733,166.465,84.07,159.76,63.441z"/>
			<path fill="none" stroke="#A01537" stroke-width="0.1417" stroke-miterlimit="10" d="M127.577,86.618
				c0,22.133-17.935,40.084-40.077,40.084c-22.142,0-40.077-17.951-40.077-40.084c0-22.138,17.935-40.085,40.077-40.085
				C109.643,46.533,127.577,64.48,127.577,86.618z"/>
		</g>
		<g>
			<path fill="#A01537" d="M87.5,52.638c-18.622,0-33.774,15.153-33.774,33.783c0,18.627,15.153,33.779,33.774,33.779
				c18.622,0,33.774-15.152,33.774-33.779C121.274,67.791,106.122,52.638,87.5,52.638z"/>
			<path fill="#FF0033" d="M115.643,86.421c0,15.541-12.604,28.146-28.143,28.146c-15.554,0-28.143-12.605-28.143-28.146
				c0-15.546,12.588-28.143,28.143-28.143C103.039,58.278,115.643,70.875,115.643,86.421z"/>
		</g>
	</g>
</g>
<g id="Centro">
	<animateTransform  type="rotate" 
		fill="remove" calcMode="linear" restart="always" 
		to="360 87 87" from="0 87 87" additive="replace" 
		dur="15s" accumulate="none" attributeName="transform" 
		repeatCount="indefinite">
	</animateTransform>
	<path fill="#A01537" d="M108.688,79.541c-1.225-3.771-4.711-6.311-8.684-6.311c-0.954,0-1.91,0.159-2.816,0.452
		c-0.201,0.067-0.402,0.143-0.604,0.227c0.018-0.21,0.033-0.427,0.033-0.637c0-5.037-4.089-9.127-9.117-9.127
		c-5.029,0-9.135,4.091-9.135,9.127c0,0.209,0.034,0.427,0.034,0.637c-0.185-0.083-0.386-0.167-0.587-0.227
		c-0.922-0.301-1.86-0.452-2.816-0.452c-3.973,0-7.458,2.54-8.683,6.311c-1.558,4.785,1.073,9.939,5.867,11.494
		c0.202,0.067,0.403,0.117,0.604,0.168c-0.135,0.168-0.268,0.318-0.403,0.486c-1.424,1.979-2.011,4.391-1.626,6.805
		c0.386,2.398,1.676,4.525,3.654,5.95c1.559,1.14,3.419,1.743,5.364,1.743c2.9,0,5.666-1.408,7.376-3.771
		c0.134-0.167,0.234-0.336,0.352-0.521c0.117,0.185,0.218,0.354,0.352,0.537c1.711,2.346,4.459,3.754,7.376,3.754
		c1.944,0,3.788-0.604,5.364-1.743c1.977-1.425,3.268-3.552,3.653-5.95c0.369-2.414-0.202-4.826-1.644-6.789
		c-0.116-0.184-0.25-0.334-0.385-0.485c0.201-0.05,0.402-0.117,0.603-0.185c2.313-0.754,4.208-2.358,5.315-4.529
		C109.24,84.334,109.441,81.862,108.688,79.541z"/>
	<path fill="#FF0033" d="M99.316,86.421c0,6.523-5.296,11.82-11.816,11.82c-6.537,0-11.817-5.297-11.817-11.82
		c0-6.528,5.28-11.817,11.817-11.817C94.021,74.604,99.316,79.893,99.316,86.421z"/>
	<path fill="#A01537" d="M96.183,86.421c0,4.798-3.89,8.688-8.683,8.688c-4.793,0-8.683-3.89-8.683-8.688
		c0-4.793,3.889-8.682,8.683-8.682C92.293,77.739,96.183,81.628,96.183,86.421z"/>
</g>
</svg>
