<?xml version="1.0" encoding="UTF-8"?>
<svg id="Layer_1" xmlns="http://www.w3.org/2000/svg" version="1.1" viewBox="0 0 250 250">
  <!-- Generator: Adobe Illustrator 29.3.1, SVG Export Plug-In . SVG Version: 2.1.0 Build 151)  -->
  <defs>
    <style>
      .st0 {
        fill: #231f20;
      }

      .st1 {
        fill: #fff;
      }
    </style>
  </defs>
  <path class="st0" d="M124.7,245.4c-66.4,0-120.5-54-120.5-120.5S58.2,4.5,124.7,4.5s120.5,54,120.5,120.5-54,120.5-120.5,120.5Z"/>
  <path class="st1" d="M124.7,5.6C58.8,5.6,5.3,59.1,5.3,125s53.6,119.4,119.4,119.4,119.4-53.6,119.4-119.4S190.5,5.6,124.7,5.6Z"/>
  <g>
    <path class="st0" d="M124.7,240.2c-63.5,0-115.2-51.7-115.2-115.2S61.1,9.8,124.7,9.8s115.2,51.7,115.2,115.2-51.7,115.2-115.2,115.2Z"/>
    <path class="st1" d="M69.2,131.9c.2,0,.4,0,.5,0,16-.1,28.7-7.4,35.9-20.4,7.3-13.3,6.9-30.8-.9-43.3-7.4-11.7-19.9-17.8-35.2-17-21.1,1.1-38.5,16.8-44.3,40.1-4.9,19.7-.8,44.8,19.3,56.7.7.4,1.4.6,2.2.6,1.5,0,2.9-.7,3.7-2.1,1.2-2,.5-4.6-1.5-5.8-16.3-9.7-19.5-30.8-15.4-47.4,3.9-15.6,15.5-32.6,36.5-33.7,12.1-.6,21.9,4,27.6,13.1,6.3,10,6.6,24,.7,34.7-5.6,10.2-15.7,15.8-28.5,16-3.1,0-5.8-.2-8.2-.7v-9.4c0-2.3-1.9-4.2-4.2-4.2s-4.2,1.9-4.2,4.2v5c-.8-1-1.5-2.1-1.8-3.3-1.6-5.5,1.8-12,5.8-14.5,2.5-1.5,4.8-1.3,7,.7,1.7,1.6,4.4,1.5,6-.2,1.6-1.7,1.5-4.4-.2-6-5-4.6-11.5-5.3-17.2-1.7-7.7,4.7-11.9,15.5-9.5,24.1,1,3.4,3.5,8.3,10,11.5v64.1c0,2.3,1.9,4.2,4.2,4.2s4.2-1.9,4.2-4.2v-61.5c2.3.4,4.8.6,7.7.6"/>
    <path class="st1" d="M102.7,165.9h-2.5v-34.9l-4.8.6c-14.4,1.7-25.3,14-28.5,32.1-3.5,19.8,3.1,45,25.9,56.7.6.3,1.3.5,1.9.5,1.5,0,3-.8,3.8-2.3,1.1-2.1.2-4.6-1.8-5.7-18.9-9.7-24.4-30.9-21.4-47.7,1.7-9.7,6.9-20.3,16.4-24v24.7h-8.4c-2.3,0-4.2,1.9-4.2,4.2s1.9,4.2,4.2,4.2h8.4v21.6c0,2.3,1.9,4.2,4.2,4.2s4.2-1.9,4.2-4.2v-21.6h2.5c2.3,0,4.2-1.9,4.2-4.2s-1.9-4.2-4.2-4.2"/>
    <path class="st1" d="M132.1,104.1c-15.4,0-27.9,12.5-27.9,27.9s12.5,27.9,27.9,27.9,27.9-12.5,27.9-27.9-12.5-27.9-27.9-27.9M132.1,151.3c-10.7,0-19.4-8.7-19.4-19.4s8.7-19.4,19.4-19.4,19.4,8.7,19.4,19.4-8.7,19.4-19.4,19.4"/>
    <path class="st1" d="M182.3,197.2l-.3.3c-2.6,2.6-4.8,4.8-8.4,6.7V58.8c0-14.6-9.1-24.9-26.4-29.6-2.3-.6-4.6.7-5.2,3-.6,2.3.7,4.6,3,5.2,13.6,3.7,20.2,10.7,20.2,21.4v158l5.7-2c9.3-3.3,13.3-7.3,17.2-11.2l.3-.3c1.7-1.7,1.7-4.3,0-6-1.7-1.7-4.3-1.7-6,0"/>
    <path class="st1" d="M199.8,59.7l-7.1-6.5v66h-7.4c-2.3,0-4.2,1.9-4.2,4.2s1.9,4.2,4.2,4.2h7.4v63.6c0,2.3,1.9,4.2,4.2,4.2s4.2-1.9,4.2-4.2v-63.6h8.2c2.3,0,4.2-1.9,4.2-4.2s-1.9-4.2-4.2-4.2h-8.2v-44.7c8.2,11.8,20.1,35.7,15.2,70.8-.3,2.3,1.3,4.5,3.6,4.8,2.3.3,4.5-1.3,4.8-3.6,7.9-56.2-23.6-85.6-25-86.8"/>
  </g>
</svg>